<?xml version="1.0" encoding="utf-8" standalone="no"?>
<!DOCTYPE svg PUBLIC "-//W3C//DTD SVG 1.1//EN"
  "http://www.w3.org/Graphics/SVG/1.1/DTD/svg11.dtd">
<svg xmlns:xlink="http://www.w3.org/1999/xlink" width="453.250625pt" height="350.866375pt" viewBox="0 0 453.250625 350.866375" xmlns="http://www.w3.org/2000/svg" version="1.1">
 <metadata>
  <rdf:RDF xmlns:dc="http://purl.org/dc/elements/1.1/" xmlns:cc="http://creativecommons.org/ns#" xmlns:rdf="http://www.w3.org/1999/02/22-rdf-syntax-ns#">
   <cc:Work>
    <dc:type rdf:resource="http://purl.org/dc/dcmitype/StillImage"/>
    <dc:date>2025-09-02T15:10:14.627090</dc:date>
    <dc:format>image/svg+xml</dc:format>
    <dc:creator>
     <cc:Agent>
      <dc:title>Matplotlib v3.10.5, https://matplotlib.org/</dc:title>
     </cc:Agent>
    </dc:creator>
   </cc:Work>
  </rdf:RDF>
 </metadata>
 <defs>
  <style type="text/css">*{stroke-linejoin: round; stroke-linecap: butt}</style>
 </defs>
 <g id="figure_1">
  <g id="patch_1">
   <path d="M 0 350.866375 
L 453.250625 350.866375 
L 453.250625 0 
L 0 0 
z
" style="fill: #ffffff"/>
  </g>
  <g id="axes_1">
   <g id="patch_2">
    <path d="M 46.965625 313.310125 
L 446.050625 313.310125 
L 446.050625 22.318125 
L 46.965625 22.318125 
z
" style="fill: #ffffff"/>
   </g>
   <g id="FillBetweenPolyCollection_1">
    <defs>
     <path id="mc55390e707" d="M 65.105852 -37.55625 
L 65.105852 -37.55625 
L 68.733898 -37.55625 
L 68.733898 -37.55625 
L 72.361943 -37.55625 
L 72.361943 -37.55625 
L 75.989989 -37.55625 
L 75.989989 -37.55625 
L 79.618034 -37.55625 
L 79.618034 -37.55625 
L 83.24608 -37.55625 
L 83.24608 -37.55625 
L 86.874125 -37.55625 
L 86.874125 -37.55625 
L 90.50217 -37.55625 
L 90.50217 -37.55625 
L 94.130216 -37.55625 
L 94.130216 -37.55625 
L 97.758261 -37.55625 
L 97.758261 -37.55625 
L 101.386307 -37.55625 
L 101.386307 -37.55625 
L 105.014352 -37.55625 
L 105.014352 -37.55625 
L 108.642398 -37.55625 
L 108.642398 -37.55625 
L 112.270443 -37.55625 
L 112.270443 -37.55625 
L 115.898489 -37.55625 
L 115.898489 -37.55625 
L 119.526534 -37.55625 
L 119.526534 -37.55625 
L 123.15458 -37.55625 
L 123.15458 -37.55625 
L 126.782625 -37.55625 
L 126.782625 -37.55625 
L 130.41067 -37.55625 
L 130.41067 -37.55625 
L 134.038716 -37.55625 
L 134.038716 -37.55625 
L 137.666761 -37.55625 
L 137.666761 -37.55625 
L 141.294807 -37.55625 
L 141.294807 -37.55625 
L 144.922852 -37.55625 
L 144.922852 -37.55625 
L 148.550898 -37.55625 
L 148.550898 -37.55625 
L 152.178943 -37.55625 
L 152.178943 -37.55625 
L 155.806989 -37.55625 
L 155.806989 -37.55625 
L 159.435034 -37.55625 
L 159.435034 -37.55625 
L 163.06308 -37.55625 
L 163.06308 -37.55625 
L 166.691125 -37.55625 
L 166.691125 -37.55625 
L 170.31917 -37.55625 
L 170.31917 -37.55625 
L 173.947216 -37.55625 
L 173.947216 -37.55625 
L 177.575261 -37.55625 
L 177.575261 -37.55625 
L 181.203307 -37.55625 
L 181.203307 -37.55625 
L 184.831352 -37.55625 
L 184.831352 -37.55625 
L 188.459398 -37.55625 
L 188.459398 -37.55625 
L 192.087443 -37.55625 
L 192.087443 -37.55625 
L 195.715489 -37.55625 
L 195.715489 -37.55625 
L 199.343534 -37.55625 
L 199.343534 -37.55625 
L 202.97158 -37.55625 
L 202.97158 -37.55625 
L 206.599625 -37.55625 
L 206.599625 -37.55625 
L 210.22767 -37.55625 
L 210.22767 -37.55625 
L 213.855716 -37.55625 
L 213.855716 -37.55625 
L 217.483761 -37.55625 
L 217.483761 -37.55625 
L 221.111807 -37.55625 
L 221.111807 -37.55625 
L 224.739852 -37.55625 
L 224.739852 -37.55625 
L 228.367898 -37.55625 
L 228.367898 -37.55625 
L 231.995943 -37.55625 
L 231.995943 -37.55625 
L 235.623989 -37.55625 
L 235.623989 -37.55625 
L 239.252034 -37.55625 
L 239.252034 -37.55625 
L 242.88008 -37.55625 
L 242.88008 -37.55625 
L 246.508125 -37.55625 
L 246.508125 -37.55625 
L 250.13617 -37.55625 
L 250.13617 -37.55625 
L 253.764216 -37.55625 
L 253.764216 -37.55625 
L 257.392261 -37.55625 
L 257.392261 -37.55625 
L 261.020307 -37.55625 
L 261.020307 -37.55625 
L 264.648352 -37.55625 
L 264.648352 -37.55625 
L 268.276398 -37.55625 
L 268.276398 -37.55625 
L 271.904443 -37.55625 
L 271.904443 -37.55625 
L 275.532489 -37.55625 
L 275.532489 -37.55625 
L 279.160534 -37.55625 
L 279.160534 -37.55625 
L 282.78858 -37.55625 
L 282.78858 -37.55625 
L 286.416625 -37.55625 
L 286.416625 -37.55625 
L 290.04467 -37.55625 
L 290.04467 -37.55625 
L 293.672716 -37.55625 
L 293.672716 -37.55625 
L 297.300761 -37.55625 
L 297.300761 -37.55625 
L 300.928807 -37.55625 
L 300.928807 -37.55625 
L 304.556852 -37.55625 
L 304.556852 -37.55625 
L 308.184898 -37.55625 
L 308.184898 -37.55625 
L 311.812943 -37.55625 
L 311.812943 -37.55625 
L 315.440989 -37.55625 
L 315.440989 -37.55625 
L 319.069034 -37.55625 
L 319.069034 -37.55625 
L 322.69708 -37.55625 
L 322.69708 -37.55625 
L 326.325125 -37.55625 
L 326.325125 -37.55625 
L 329.95317 -37.55625 
L 329.95317 -37.55625 
L 333.581216 -37.55625 
L 333.581216 -37.55625 
L 337.209261 -37.55625 
L 337.209261 -37.55625 
L 340.837307 -37.55625 
L 340.837307 -37.55625 
L 344.465352 -37.55625 
L 344.465352 -37.55625 
L 348.093398 -37.55625 
L 348.093398 -37.55625 
L 351.721443 -37.55625 
L 351.721443 -37.55625 
L 355.349489 -37.55625 
L 355.349489 -37.55625 
L 358.977534 -37.55625 
L 358.977534 -37.55625 
L 362.60558 -37.55625 
L 362.60558 -37.55625 
L 366.233625 -37.55625 
L 366.233625 -37.55625 
L 369.86167 -37.55625 
L 369.86167 -37.55625 
L 373.489716 -37.55625 
L 373.489716 -37.55625 
L 377.117761 -37.55625 
L 377.117761 -37.55625 
L 380.745807 -37.55625 
L 380.745807 -37.55625 
L 384.373852 -37.55625 
L 384.373852 -37.55625 
L 388.001898 -37.55625 
L 388.001898 -37.55625 
L 391.629943 -37.55625 
L 391.629943 -37.55625 
L 395.257989 -37.55625 
L 395.257989 -37.55625 
L 398.886034 -37.55625 
L 398.886034 -37.55625 
L 402.51408 -37.55625 
L 402.51408 -37.55625 
L 406.142125 -37.55625 
L 406.142125 -37.55625 
L 409.77017 -37.55625 
L 409.77017 -37.55625 
L 413.398216 -37.55625 
L 413.398216 -37.55625 
L 417.026261 -37.55625 
L 417.026261 -37.55625 
L 420.654307 -37.55625 
L 420.654307 -37.55625 
L 424.282352 -37.55625 
L 424.282352 -37.55625 
L 427.910398 -37.55625 
L 427.910398 -37.55625 
L 427.910398 -105.685329 
L 427.910398 -105.685329 
L 427.910398 -105.685329 
L 424.282352 -105.685329 
L 424.282352 -112.61371 
L 420.654307 -112.61371 
L 420.654307 -112.61371 
L 417.026261 -112.61371 
L 417.026261 -105.685329 
L 413.398216 -105.685329 
L 413.398216 -156.493456 
L 409.77017 -156.493456 
L 409.77017 -149.565075 
L 406.142125 -149.565075 
L 406.142125 -133.398853 
L 402.51408 -133.398853 
L 402.51408 -170.350218 
L 398.886034 -170.350218 
L 398.886034 -186.51644 
L 395.257989 -186.51644 
L 395.257989 -208.456313 
L 391.629943 -208.456313 
L 391.629943 -225.777266 
L 388.001898 -225.777266 
L 388.001898 -217.694155 
L 384.373852 -217.694155 
L 384.373852 -250.026599 
L 380.745807 -250.026599 
L 380.745807 -245.407679 
L 377.117761 -245.407679 
L 377.117761 -262.728631 
L 373.489716 -262.728631 
L 373.489716 -260.419171 
L 369.86167 -260.419171 
L 369.86167 -276.585393 
L 366.233625 -276.585393 
L 366.233625 -265.038091 
L 362.60558 -265.038091 
L 362.60558 -291.596885 
L 358.977534 -291.596885 
L 358.977534 -304.298917 
L 355.349489 -304.298917 
L 355.349489 -291.596885 
L 351.721443 -291.596885 
L 351.721443 -314.691488 
L 348.093398 -314.691488 
L 348.093398 -276.585393 
L 344.465352 -276.585393 
L 344.465352 -253.49079 
L 340.837307 -253.49079 
L 340.837307 -247.717139 
L 337.209261 -247.717139 
L 337.209261 -225.777266 
L 333.581216 -225.777266 
L 333.581216 -229.241456 
L 329.95317 -229.241456 
L 329.95317 -268.502282 
L 326.325125 -268.502282 
L 326.325125 -216.539425 
L 322.69708 -216.539425 
L 322.69708 -221.158345 
L 319.069034 -221.158345 
L 319.069034 -245.407679 
L 315.440989 -245.407679 
L 315.440989 -258.10971 
L 311.812943 -258.10971 
L 311.812943 -241.943488 
L 308.184898 -241.943488 
L 308.184898 -252.33606 
L 304.556852 -252.33606 
L 304.556852 -265.038091 
L 300.928807 -265.038091 
L 300.928807 -239.634028 
L 297.300761 -239.634028 
L 297.300761 -268.502282 
L 293.672716 -268.502282 
L 293.672716 -262.728631 
L 290.04467 -262.728631 
L 290.04467 -284.668504 
L 286.416625 -284.668504 
L 286.416625 -278.894853 
L 282.78858 -278.894853 
L 282.78858 -282.359044 
L 279.160534 -282.359044 
L 279.160534 -267.347552 
L 275.532489 -267.347552 
L 275.532489 -285.823234 
L 271.904443 -285.823234 
L 271.904443 -254.64552 
L 268.276398 -254.64552 
L 268.276398 -259.26444 
L 264.648352 -259.26444 
L 264.648352 -241.943488 
L 261.020307 -241.943488 
L 261.020307 -259.26444 
L 257.392261 -259.26444 
L 257.392261 -237.324567 
L 253.764216 -237.324567 
L 253.764216 -201.527933 
L 250.13617 -201.527933 
L 250.13617 -299.679996 
L 246.508125 -299.679996 
L 246.508125 -98.756948 
L 242.88008 -98.756948 
L 242.88008 -127.625202 
L 239.252034 -127.625202 
L 239.252034 -117.232631 
L 235.623989 -117.232631 
L 235.623989 -77.971806 
L 231.995943 -77.971806 
L 231.995943 -80.281266 
L 228.367898 -80.281266 
L 228.367898 -65.269774 
L 224.739852 -65.269774 
L 224.739852 -61.805583 
L 221.111807 -61.805583 
L 221.111807 -49.103552 
L 217.483761 -49.103552 
L 217.483761 -43.329901 
L 213.855716 -43.329901 
L 213.855716 -49.103552 
L 210.22767 -49.103552 
L 210.22767 -43.329901 
L 206.599625 -43.329901 
L 206.599625 -41.02044 
L 202.97158 -41.02044 
L 202.97158 -38.71098 
L 199.343534 -38.71098 
L 199.343534 -37.55625 
L 195.715489 -37.55625 
L 195.715489 -37.55625 
L 192.087443 -37.55625 
L 192.087443 -37.55625 
L 188.459398 -37.55625 
L 188.459398 -37.55625 
L 184.831352 -37.55625 
L 184.831352 -37.55625 
L 181.203307 -37.55625 
L 181.203307 -37.55625 
L 177.575261 -37.55625 
L 177.575261 -37.55625 
L 173.947216 -37.55625 
L 173.947216 -37.55625 
L 170.31917 -37.55625 
L 170.31917 -37.55625 
L 166.691125 -37.55625 
L 166.691125 -37.55625 
L 163.06308 -37.55625 
L 163.06308 -37.55625 
L 159.435034 -37.55625 
L 159.435034 -37.55625 
L 155.806989 -37.55625 
L 155.806989 -37.55625 
L 152.178943 -37.55625 
L 152.178943 -37.55625 
L 148.550898 -37.55625 
L 148.550898 -37.55625 
L 144.922852 -37.55625 
L 144.922852 -37.55625 
L 141.294807 -37.55625 
L 141.294807 -37.55625 
L 137.666761 -37.55625 
L 137.666761 -37.55625 
L 134.038716 -37.55625 
L 134.038716 -37.55625 
L 130.41067 -37.55625 
L 130.41067 -37.55625 
L 126.782625 -37.55625 
L 126.782625 -37.55625 
L 123.15458 -37.55625 
L 123.15458 -37.55625 
L 119.526534 -37.55625 
L 119.526534 -37.55625 
L 115.898489 -37.55625 
L 115.898489 -37.55625 
L 112.270443 -37.55625 
L 112.270443 -37.55625 
L 108.642398 -37.55625 
L 108.642398 -37.55625 
L 105.014352 -37.55625 
L 105.014352 -37.55625 
L 101.386307 -37.55625 
L 101.386307 -37.55625 
L 97.758261 -37.55625 
L 97.758261 -37.55625 
L 94.130216 -37.55625 
L 94.130216 -37.55625 
L 90.50217 -37.55625 
L 90.50217 -37.55625 
L 86.874125 -37.55625 
L 86.874125 -37.55625 
L 83.24608 -37.55625 
L 83.24608 -37.55625 
L 79.618034 -37.55625 
L 79.618034 -37.55625 
L 75.989989 -37.55625 
L 75.989989 -37.55625 
L 72.361943 -37.55625 
L 72.361943 -37.55625 
L 68.733898 -37.55625 
L 68.733898 -37.55625 
L 65.105852 -37.55625 
z
" style="stroke: #2f4f4f"/>
    </defs>
    <g clip-path="url(#pd766500f93)">
     <use xlink:href="#mc55390e707" x="0" y="350.866375" style="fill: #2f4f4f; fill-opacity: 0.3; stroke: #2f4f4f"/>
    </g>
   </g>
   <g id="FillBetweenPolyCollection_2">
    <defs>
     <path id="m060cdf4397" d="M 65.105852 -37.55625 
L 65.105852 -37.55625 
L 68.733898 -37.55625 
L 68.733898 -37.55625 
L 72.361943 -37.55625 
L 72.361943 -37.55625 
L 75.989989 -37.55625 
L 75.989989 -37.55625 
L 79.618034 -37.55625 
L 79.618034 -37.55625 
L 83.24608 -37.55625 
L 83.24608 -37.55625 
L 86.874125 -37.55625 
L 86.874125 -37.55625 
L 90.50217 -37.55625 
L 90.50217 -37.55625 
L 94.130216 -37.55625 
L 94.130216 -37.55625 
L 97.758261 -37.55625 
L 97.758261 -37.55625 
L 101.386307 -37.55625 
L 101.386307 -37.55625 
L 105.014352 -37.55625 
L 105.014352 -37.55625 
L 108.642398 -37.55625 
L 108.642398 -37.55625 
L 112.270443 -37.55625 
L 112.270443 -37.55625 
L 115.898489 -37.55625 
L 115.898489 -37.55625 
L 119.526534 -37.55625 
L 119.526534 -37.55625 
L 123.15458 -37.55625 
L 123.15458 -37.55625 
L 126.782625 -37.55625 
L 126.782625 -37.55625 
L 130.41067 -37.55625 
L 130.41067 -37.55625 
L 134.038716 -37.55625 
L 134.038716 -37.55625 
L 137.666761 -37.55625 
L 137.666761 -37.55625 
L 141.294807 -37.55625 
L 141.294807 -37.55625 
L 144.922852 -37.55625 
L 144.922852 -37.55625 
L 148.550898 -37.55625 
L 148.550898 -37.55625 
L 152.178943 -37.55625 
L 152.178943 -37.55625 
L 155.806989 -37.55625 
L 155.806989 -37.55625 
L 159.435034 -37.55625 
L 159.435034 -37.55625 
L 163.06308 -37.55625 
L 163.06308 -37.55625 
L 166.691125 -37.55625 
L 166.691125 -37.55625 
L 170.31917 -37.55625 
L 170.31917 -37.55625 
L 173.947216 -37.55625 
L 173.947216 -37.55625 
L 177.575261 -37.55625 
L 177.575261 -37.55625 
L 181.203307 -37.55625 
L 181.203307 -37.55625 
L 184.831352 -37.55625 
L 184.831352 -37.55625 
L 188.459398 -37.55625 
L 188.459398 -37.55625 
L 192.087443 -37.55625 
L 192.087443 -37.55625 
L 195.715489 -37.55625 
L 195.715489 -37.55625 
L 199.343534 -37.55625 
L 199.343534 -37.55625 
L 202.97158 -37.55625 
L 202.97158 -37.55625 
L 206.599625 -37.55625 
L 206.599625 -37.55625 
L 210.22767 -37.55625 
L 210.22767 -37.55625 
L 213.855716 -37.55625 
L 213.855716 -37.55625 
L 217.483761 -37.55625 
L 217.483761 -37.55625 
L 221.111807 -37.55625 
L 221.111807 -37.55625 
L 224.739852 -37.55625 
L 224.739852 -37.55625 
L 228.367898 -37.55625 
L 228.367898 -37.55625 
L 231.995943 -37.55625 
L 231.995943 -37.55625 
L 235.623989 -37.55625 
L 235.623989 -37.55625 
L 239.252034 -37.55625 
L 239.252034 -37.55625 
L 242.88008 -37.55625 
L 242.88008 -37.55625 
L 246.508125 -37.55625 
L 246.508125 -37.55625 
L 250.13617 -37.55625 
L 250.13617 -37.55625 
L 253.764216 -37.55625 
L 253.764216 -37.55625 
L 257.392261 -37.55625 
L 257.392261 -37.55625 
L 261.020307 -37.55625 
L 261.020307 -37.55625 
L 264.648352 -37.55625 
L 264.648352 -37.55625 
L 268.276398 -37.55625 
L 268.276398 -37.55625 
L 271.904443 -37.55625 
L 271.904443 -37.55625 
L 275.532489 -37.55625 
L 275.532489 -37.55625 
L 279.160534 -37.55625 
L 279.160534 -37.55625 
L 282.78858 -37.55625 
L 282.78858 -37.55625 
L 286.416625 -37.55625 
L 286.416625 -37.55625 
L 290.04467 -37.55625 
L 290.04467 -37.55625 
L 293.672716 -37.55625 
L 293.672716 -37.55625 
L 297.300761 -37.55625 
L 297.300761 -37.55625 
L 300.928807 -37.55625 
L 300.928807 -37.55625 
L 304.556852 -37.55625 
L 304.556852 -37.55625 
L 308.184898 -37.55625 
L 308.184898 -37.55625 
L 311.812943 -37.55625 
L 311.812943 -37.55625 
L 315.440989 -37.55625 
L 315.440989 -37.55625 
L 319.069034 -37.55625 
L 319.069034 -37.55625 
L 322.69708 -37.55625 
L 322.69708 -37.55625 
L 326.325125 -37.55625 
L 326.325125 -37.55625 
L 329.95317 -37.55625 
L 329.95317 -37.55625 
L 333.581216 -37.55625 
L 333.581216 -37.55625 
L 337.209261 -37.55625 
L 337.209261 -37.55625 
L 340.837307 -37.55625 
L 340.837307 -37.55625 
L 344.465352 -37.55625 
L 344.465352 -37.55625 
L 348.093398 -37.55625 
L 348.093398 -37.55625 
L 351.721443 -37.55625 
L 351.721443 -37.55625 
L 355.349489 -37.55625 
L 355.349489 -37.55625 
L 358.977534 -37.55625 
L 358.977534 -37.55625 
L 362.60558 -37.55625 
L 362.60558 -37.55625 
L 366.233625 -37.55625 
L 366.233625 -37.55625 
L 369.86167 -37.55625 
L 369.86167 -37.55625 
L 373.489716 -37.55625 
L 373.489716 -37.55625 
L 377.117761 -37.55625 
L 377.117761 -37.55625 
L 380.745807 -37.55625 
L 380.745807 -37.55625 
L 384.373852 -37.55625 
L 384.373852 -37.55625 
L 388.001898 -37.55625 
L 388.001898 -37.55625 
L 391.629943 -37.55625 
L 391.629943 -37.55625 
L 395.257989 -37.55625 
L 395.257989 -37.55625 
L 398.886034 -37.55625 
L 398.886034 -37.55625 
L 402.51408 -37.55625 
L 402.51408 -37.55625 
L 406.142125 -37.55625 
L 406.142125 -37.55625 
L 409.77017 -37.55625 
L 409.77017 -37.55625 
L 413.398216 -37.55625 
L 413.398216 -37.55625 
L 417.026261 -37.55625 
L 417.026261 -37.55625 
L 420.654307 -37.55625 
L 420.654307 -37.55625 
L 424.282352 -37.55625 
L 424.282352 -37.55625 
L 427.910398 -37.55625 
L 427.910398 -37.55625 
L 427.910398 -106.84006 
L 427.910398 -106.84006 
L 427.910398 -106.84006 
L 424.282352 -106.84006 
L 424.282352 -110.30425 
L 420.654307 -110.30425 
L 420.654307 -120.696821 
L 417.026261 -120.696821 
L 417.026261 -96.447488 
L 413.398216 -96.447488 
L 413.398216 -149.565075 
L 409.77017 -149.565075 
L 409.77017 -147.255615 
L 406.142125 -147.255615 
L 406.142125 -156.493456 
L 402.51408 -156.493456 
L 402.51408 -176.123869 
L 398.886034 -176.123869 
L 398.886034 -201.527933 
L 395.257989 -201.527933 
L 395.257989 -232.705647 
L 391.629943 -232.705647 
L 391.629943 -236.169837 
L 388.001898 -236.169837 
L 388.001898 -207.301583 
L 384.373852 -207.301583 
L 384.373852 -258.10971 
L 380.745807 -258.10971 
L 380.745807 -248.871869 
L 377.117761 -248.871869 
L 377.117761 -260.419171 
L 373.489716 -260.419171 
L 373.489716 -255.80025 
L 369.86167 -255.80025 
L 369.86167 -262.728631 
L 366.233625 -262.728631 
L 366.233625 -277.740123 
L 362.60558 -277.740123 
L 362.60558 -266.192821 
L 358.977534 -266.192821 
L 358.977534 -283.513774 
L 355.349489 -283.513774 
L 355.349489 -283.513774 
L 351.721443 -283.513774 
L 351.721443 -277.740123 
L 348.093398 -277.740123 
L 348.093398 -283.513774 
L 344.465352 -283.513774 
L 344.465352 -231.550917 
L 340.837307 -231.550917 
L 340.837307 -277.740123 
L 337.209261 -277.740123 
L 337.209261 -256.95498 
L 333.581216 -256.95498 
L 333.581216 -240.788758 
L 329.95317 -240.788758 
L 329.95317 -252.33606 
L 326.325125 -252.33606 
L 326.325125 -224.622536 
L 322.69708 -224.622536 
L 322.69708 -261.573901 
L 319.069034 -261.573901 
L 319.069034 -235.015107 
L 315.440989 -235.015107 
L 315.440989 -268.502282 
L 311.812943 -268.502282 
L 311.812943 -240.788758 
L 308.184898 -240.788758 
L 308.184898 -256.95498 
L 304.556852 -256.95498 
L 304.556852 -277.740123 
L 300.928807 -277.740123 
L 300.928807 -260.419171 
L 297.300761 -260.419171 
L 297.300761 -253.49079 
L 293.672716 -253.49079 
L 293.672716 -268.502282 
L 290.04467 -268.502282 
L 290.04467 -241.943488 
L 286.416625 -241.943488 
L 286.416625 -270.811742 
L 282.78858 -270.811742 
L 282.78858 -253.49079 
L 279.160534 -253.49079 
L 279.160534 -280.049583 
L 275.532489 -280.049583 
L 275.532489 -281.204313 
L 271.904443 -281.204313 
L 271.904443 -276.585393 
L 268.276398 -276.585393 
L 268.276398 -253.49079 
L 264.648352 -253.49079 
L 264.648352 -258.10971 
L 261.020307 -258.10971 
L 261.020307 -276.585393 
L 257.392261 -276.585393 
L 257.392261 -282.359044 
L 253.764216 -282.359044 
L 253.764216 -297.370536 
L 250.13617 -297.370536 
L 250.13617 -215.384694 
L 246.508125 -215.384694 
L 246.508125 -139.172504 
L 242.88008 -139.172504 
L 242.88008 -125.315742 
L 239.252034 -125.315742 
L 239.252034 -89.519107 
L 235.623989 -89.519107 
L 235.623989 -76.817075 
L 231.995943 -76.817075 
L 231.995943 -64.115044 
L 228.367898 -64.115044 
L 228.367898 -65.269774 
L 224.739852 -65.269774 
L 224.739852 -64.115044 
L 221.111807 -64.115044 
L 221.111807 -51.413012 
L 217.483761 -51.413012 
L 217.483761 -52.567742 
L 213.855716 -52.567742 
L 213.855716 -49.103552 
L 210.22767 -49.103552 
L 210.22767 -45.639361 
L 206.599625 -45.639361 
L 206.599625 -42.175171 
L 202.97158 -42.175171 
L 202.97158 -38.71098 
L 199.343534 -38.71098 
L 199.343534 -39.86571 
L 195.715489 -39.86571 
L 195.715489 -38.71098 
L 192.087443 -38.71098 
L 192.087443 -37.55625 
L 188.459398 -37.55625 
L 188.459398 -37.55625 
L 184.831352 -37.55625 
L 184.831352 -37.55625 
L 181.203307 -37.55625 
L 181.203307 -37.55625 
L 177.575261 -37.55625 
L 177.575261 -37.55625 
L 173.947216 -37.55625 
L 173.947216 -37.55625 
L 170.31917 -37.55625 
L 170.31917 -37.55625 
L 166.691125 -37.55625 
L 166.691125 -37.55625 
L 163.06308 -37.55625 
L 163.06308 -37.55625 
L 159.435034 -37.55625 
L 159.435034 -37.55625 
L 155.806989 -37.55625 
L 155.806989 -37.55625 
L 152.178943 -37.55625 
L 152.178943 -37.55625 
L 148.550898 -37.55625 
L 148.550898 -37.55625 
L 144.922852 -37.55625 
L 144.922852 -37.55625 
L 141.294807 -37.55625 
L 141.294807 -37.55625 
L 137.666761 -37.55625 
L 137.666761 -37.55625 
L 134.038716 -37.55625 
L 134.038716 -37.55625 
L 130.41067 -37.55625 
L 130.41067 -37.55625 
L 126.782625 -37.55625 
L 126.782625 -37.55625 
L 123.15458 -37.55625 
L 123.15458 -37.55625 
L 119.526534 -37.55625 
L 119.526534 -37.55625 
L 115.898489 -37.55625 
L 115.898489 -37.55625 
L 112.270443 -37.55625 
L 112.270443 -37.55625 
L 108.642398 -37.55625 
L 108.642398 -37.55625 
L 105.014352 -37.55625 
L 105.014352 -37.55625 
L 101.386307 -37.55625 
L 101.386307 -37.55625 
L 97.758261 -37.55625 
L 97.758261 -37.55625 
L 94.130216 -37.55625 
L 94.130216 -37.55625 
L 90.50217 -37.55625 
L 90.50217 -37.55625 
L 86.874125 -37.55625 
L 86.874125 -37.55625 
L 83.24608 -37.55625 
L 83.24608 -37.55625 
L 79.618034 -37.55625 
L 79.618034 -37.55625 
L 75.989989 -37.55625 
L 75.989989 -37.55625 
L 72.361943 -37.55625 
L 72.361943 -37.55625 
L 68.733898 -37.55625 
L 68.733898 -37.55625 
L 65.105852 -37.55625 
z
" style="stroke: #daa520"/>
    </defs>
    <g clip-path="url(#pd766500f93)">
     <use xlink:href="#m060cdf4397" x="0" y="350.866375" style="fill: #daa520; fill-opacity: 0.3; stroke: #daa520"/>
    </g>
   </g>
   <g id="matplotlib.axis_1">
    <g id="xtick_1">
     <g id="line2d_1">
      <defs>
       <path id="mb4ef703e0f" d="M 0 0 
L 0 3.5 
" style="stroke: #000000; stroke-width: 0.8"/>
      </defs>
      <g>
       <use xlink:href="#mb4ef703e0f" x="65.105852" y="313.310125" style="stroke: #000000; stroke-width: 0.8"/>
      </g>
     </g>
     <g id="text_1">
      <!-- −1.00 -->
      <g transform="translate(49.783196 327.908563) scale(0.1 -0.1)">
       <defs>
        <path id="DejaVuSans-2212" d="M 678 2272 
L 4684 2272 
L 4684 1741 
L 678 1741 
L 678 2272 
z
" transform="scale(0.015625)"/>
        <path id="DejaVuSans-31" d="M 794 531 
L 1825 531 
L 1825 4091 
L 703 3866 
L 703 4441 
L 1819 4666 
L 2450 4666 
L 2450 531 
L 3481 531 
L 3481 0 
L 794 0 
L 794 531 
z
" transform="scale(0.015625)"/>
        <path id="DejaVuSans-2e" d="M 684 794 
L 1344 794 
L 1344 0 
L 684 0 
L 684 794 
z
" transform="scale(0.015625)"/>
        <path id="DejaVuSans-30" d="M 2034 4250 
Q 1547 4250 1301 3770 
Q 1056 3291 1056 2328 
Q 1056 1369 1301 889 
Q 1547 409 2034 409 
Q 2525 409 2770 889 
Q 3016 1369 3016 2328 
Q 3016 3291 2770 3770 
Q 2525 4250 2034 4250 
z
M 2034 4750 
Q 2819 4750 3233 4129 
Q 3647 3509 3647 2328 
Q 3647 1150 3233 529 
Q 2819 -91 2034 -91 
Q 1250 -91 836 529 
Q 422 1150 422 2328 
Q 422 3509 836 4129 
Q 1250 4750 2034 4750 
z
" transform="scale(0.015625)"/>
       </defs>
       <use xlink:href="#DejaVuSans-2212"/>
       <use xlink:href="#DejaVuSans-31" transform="translate(83.789062 0)"/>
       <use xlink:href="#DejaVuSans-2e" transform="translate(147.412109 0)"/>
       <use xlink:href="#DejaVuSans-30" transform="translate(179.199219 0)"/>
       <use xlink:href="#DejaVuSans-30" transform="translate(242.822266 0)"/>
      </g>
     </g>
    </g>
    <g id="xtick_2">
     <g id="line2d_2">
      <g>
       <use xlink:href="#mb4ef703e0f" x="110.45642" y="313.310125" style="stroke: #000000; stroke-width: 0.8"/>
      </g>
     </g>
     <g id="text_2">
      <!-- −0.75 -->
      <g transform="translate(95.133764 327.908563) scale(0.1 -0.1)">
       <defs>
        <path id="DejaVuSans-37" d="M 525 4666 
L 3525 4666 
L 3525 4397 
L 1831 0 
L 1172 0 
L 2766 4134 
L 525 4134 
L 525 4666 
z
" transform="scale(0.015625)"/>
        <path id="DejaVuSans-35" d="M 691 4666 
L 3169 4666 
L 3169 4134 
L 1269 4134 
L 1269 2991 
Q 1406 3038 1543 3061 
Q 1681 3084 1819 3084 
Q 2600 3084 3056 2656 
Q 3513 2228 3513 1497 
Q 3513 744 3044 326 
Q 2575 -91 1722 -91 
Q 1428 -91 1123 -41 
Q 819 9 494 109 
L 494 744 
Q 775 591 1075 516 
Q 1375 441 1709 441 
Q 2250 441 2565 725 
Q 2881 1009 2881 1497 
Q 2881 1984 2565 2268 
Q 2250 2553 1709 2553 
Q 1456 2553 1204 2497 
Q 953 2441 691 2322 
L 691 4666 
z
" transform="scale(0.015625)"/>
       </defs>
       <use xlink:href="#DejaVuSans-2212"/>
       <use xlink:href="#DejaVuSans-30" transform="translate(83.789062 0)"/>
       <use xlink:href="#DejaVuSans-2e" transform="translate(147.412109 0)"/>
       <use xlink:href="#DejaVuSans-37" transform="translate(179.199219 0)"/>
       <use xlink:href="#DejaVuSans-35" transform="translate(242.822266 0)"/>
      </g>
     </g>
    </g>
    <g id="xtick_3">
     <g id="line2d_3">
      <g>
       <use xlink:href="#mb4ef703e0f" x="155.806989" y="313.310125" style="stroke: #000000; stroke-width: 0.8"/>
      </g>
     </g>
     <g id="text_3">
      <!-- −0.50 -->
      <g transform="translate(140.484332 327.908563) scale(0.1 -0.1)">
       <use xlink:href="#DejaVuSans-2212"/>
       <use xlink:href="#DejaVuSans-30" transform="translate(83.789062 0)"/>
       <use xlink:href="#DejaVuSans-2e" transform="translate(147.412109 0)"/>
       <use xlink:href="#DejaVuSans-35" transform="translate(179.199219 0)"/>
       <use xlink:href="#DejaVuSans-30" transform="translate(242.822266 0)"/>
      </g>
     </g>
    </g>
    <g id="xtick_4">
     <g id="line2d_4">
      <g>
       <use xlink:href="#mb4ef703e0f" x="201.157557" y="313.310125" style="stroke: #000000; stroke-width: 0.8"/>
      </g>
     </g>
     <g id="text_4">
      <!-- −0.25 -->
      <g transform="translate(185.834901 327.908563) scale(0.1 -0.1)">
       <defs>
        <path id="DejaVuSans-32" d="M 1228 531 
L 3431 531 
L 3431 0 
L 469 0 
L 469 531 
Q 828 903 1448 1529 
Q 2069 2156 2228 2338 
Q 2531 2678 2651 2914 
Q 2772 3150 2772 3378 
Q 2772 3750 2511 3984 
Q 2250 4219 1831 4219 
Q 1534 4219 1204 4116 
Q 875 4013 500 3803 
L 500 4441 
Q 881 4594 1212 4672 
Q 1544 4750 1819 4750 
Q 2544 4750 2975 4387 
Q 3406 4025 3406 3419 
Q 3406 3131 3298 2873 
Q 3191 2616 2906 2266 
Q 2828 2175 2409 1742 
Q 1991 1309 1228 531 
z
" transform="scale(0.015625)"/>
       </defs>
       <use xlink:href="#DejaVuSans-2212"/>
       <use xlink:href="#DejaVuSans-30" transform="translate(83.789062 0)"/>
       <use xlink:href="#DejaVuSans-2e" transform="translate(147.412109 0)"/>
       <use xlink:href="#DejaVuSans-32" transform="translate(179.199219 0)"/>
       <use xlink:href="#DejaVuSans-35" transform="translate(242.822266 0)"/>
      </g>
     </g>
    </g>
    <g id="xtick_5">
     <g id="line2d_5">
      <g>
       <use xlink:href="#mb4ef703e0f" x="246.508125" y="313.310125" style="stroke: #000000; stroke-width: 0.8"/>
      </g>
     </g>
     <g id="text_5">
      <!-- 0.00 -->
      <g transform="translate(235.375313 327.908563) scale(0.1 -0.1)">
       <use xlink:href="#DejaVuSans-30"/>
       <use xlink:href="#DejaVuSans-2e" transform="translate(63.623047 0)"/>
       <use xlink:href="#DejaVuSans-30" transform="translate(95.410156 0)"/>
       <use xlink:href="#DejaVuSans-30" transform="translate(159.033203 0)"/>
      </g>
     </g>
    </g>
    <g id="xtick_6">
     <g id="line2d_6">
      <g>
       <use xlink:href="#mb4ef703e0f" x="291.858693" y="313.310125" style="stroke: #000000; stroke-width: 0.8"/>
      </g>
     </g>
     <g id="text_6">
      <!-- 0.25 -->
      <g transform="translate(280.725881 327.908563) scale(0.1 -0.1)">
       <use xlink:href="#DejaVuSans-30"/>
       <use xlink:href="#DejaVuSans-2e" transform="translate(63.623047 0)"/>
       <use xlink:href="#DejaVuSans-32" transform="translate(95.410156 0)"/>
       <use xlink:href="#DejaVuSans-35" transform="translate(159.033203 0)"/>
      </g>
     </g>
    </g>
    <g id="xtick_7">
     <g id="line2d_7">
      <g>
       <use xlink:href="#mb4ef703e0f" x="337.209261" y="313.310125" style="stroke: #000000; stroke-width: 0.8"/>
      </g>
     </g>
     <g id="text_7">
      <!-- 0.50 -->
      <g transform="translate(326.076449 327.908563) scale(0.1 -0.1)">
       <use xlink:href="#DejaVuSans-30"/>
       <use xlink:href="#DejaVuSans-2e" transform="translate(63.623047 0)"/>
       <use xlink:href="#DejaVuSans-35" transform="translate(95.410156 0)"/>
       <use xlink:href="#DejaVuSans-30" transform="translate(159.033203 0)"/>
      </g>
     </g>
    </g>
    <g id="xtick_8">
     <g id="line2d_8">
      <g>
       <use xlink:href="#mb4ef703e0f" x="382.55983" y="313.310125" style="stroke: #000000; stroke-width: 0.8"/>
      </g>
     </g>
     <g id="text_8">
      <!-- 0.75 -->
      <g transform="translate(371.427017 327.908563) scale(0.1 -0.1)">
       <use xlink:href="#DejaVuSans-30"/>
       <use xlink:href="#DejaVuSans-2e" transform="translate(63.623047 0)"/>
       <use xlink:href="#DejaVuSans-37" transform="translate(95.410156 0)"/>
       <use xlink:href="#DejaVuSans-35" transform="translate(159.033203 0)"/>
      </g>
     </g>
    </g>
    <g id="xtick_9">
     <g id="line2d_9">
      <g>
       <use xlink:href="#mb4ef703e0f" x="427.910398" y="313.310125" style="stroke: #000000; stroke-width: 0.8"/>
      </g>
     </g>
     <g id="text_9">
      <!-- 1.00 -->
      <g transform="translate(416.777585 327.908563) scale(0.1 -0.1)">
       <use xlink:href="#DejaVuSans-31"/>
       <use xlink:href="#DejaVuSans-2e" transform="translate(63.623047 0)"/>
       <use xlink:href="#DejaVuSans-30" transform="translate(95.410156 0)"/>
       <use xlink:href="#DejaVuSans-30" transform="translate(159.033203 0)"/>
      </g>
     </g>
    </g>
    <g id="text_10">
     <!-- sc scores -->
     <g transform="translate(223.527656 341.586687) scale(0.1 -0.1)">
      <defs>
       <path id="DejaVuSans-73" d="M 2834 3397 
L 2834 2853 
Q 2591 2978 2328 3040 
Q 2066 3103 1784 3103 
Q 1356 3103 1142 2972 
Q 928 2841 928 2578 
Q 928 2378 1081 2264 
Q 1234 2150 1697 2047 
L 1894 2003 
Q 2506 1872 2764 1633 
Q 3022 1394 3022 966 
Q 3022 478 2636 193 
Q 2250 -91 1575 -91 
Q 1294 -91 989 -36 
Q 684 19 347 128 
L 347 722 
Q 666 556 975 473 
Q 1284 391 1588 391 
Q 1994 391 2212 530 
Q 2431 669 2431 922 
Q 2431 1156 2273 1281 
Q 2116 1406 1581 1522 
L 1381 1569 
Q 847 1681 609 1914 
Q 372 2147 372 2553 
Q 372 3047 722 3315 
Q 1072 3584 1716 3584 
Q 2034 3584 2315 3537 
Q 2597 3491 2834 3397 
z
" transform="scale(0.015625)"/>
       <path id="DejaVuSans-63" d="M 3122 3366 
L 3122 2828 
Q 2878 2963 2633 3030 
Q 2388 3097 2138 3097 
Q 1578 3097 1268 2742 
Q 959 2388 959 1747 
Q 959 1106 1268 751 
Q 1578 397 2138 397 
Q 2388 397 2633 464 
Q 2878 531 3122 666 
L 3122 134 
Q 2881 22 2623 -34 
Q 2366 -91 2075 -91 
Q 1284 -91 818 406 
Q 353 903 353 1747 
Q 353 2603 823 3093 
Q 1294 3584 2113 3584 
Q 2378 3584 2631 3529 
Q 2884 3475 3122 3366 
z
" transform="scale(0.015625)"/>
       <path id="DejaVuSans-20" transform="scale(0.015625)"/>
       <path id="DejaVuSans-6f" d="M 1959 3097 
Q 1497 3097 1228 2736 
Q 959 2375 959 1747 
Q 959 1119 1226 758 
Q 1494 397 1959 397 
Q 2419 397 2687 759 
Q 2956 1122 2956 1747 
Q 2956 2369 2687 2733 
Q 2419 3097 1959 3097 
z
M 1959 3584 
Q 2709 3584 3137 3096 
Q 3566 2609 3566 1747 
Q 3566 888 3137 398 
Q 2709 -91 1959 -91 
Q 1206 -91 779 398 
Q 353 888 353 1747 
Q 353 2609 779 3096 
Q 1206 3584 1959 3584 
z
" transform="scale(0.015625)"/>
       <path id="DejaVuSans-72" d="M 2631 2963 
Q 2534 3019 2420 3045 
Q 2306 3072 2169 3072 
Q 1681 3072 1420 2755 
Q 1159 2438 1159 1844 
L 1159 0 
L 581 0 
L 581 3500 
L 1159 3500 
L 1159 2956 
Q 1341 3275 1631 3429 
Q 1922 3584 2338 3584 
Q 2397 3584 2469 3576 
Q 2541 3569 2628 3553 
L 2631 2963 
z
" transform="scale(0.015625)"/>
       <path id="DejaVuSans-65" d="M 3597 1894 
L 3597 1613 
L 953 1613 
Q 991 1019 1311 708 
Q 1631 397 2203 397 
Q 2534 397 2845 478 
Q 3156 559 3463 722 
L 3463 178 
Q 3153 47 2828 -22 
Q 2503 -91 2169 -91 
Q 1331 -91 842 396 
Q 353 884 353 1716 
Q 353 2575 817 3079 
Q 1281 3584 2069 3584 
Q 2775 3584 3186 3129 
Q 3597 2675 3597 1894 
z
M 3022 2063 
Q 3016 2534 2758 2815 
Q 2500 3097 2075 3097 
Q 1594 3097 1305 2825 
Q 1016 2553 972 2059 
L 3022 2063 
z
" transform="scale(0.015625)"/>
      </defs>
      <use xlink:href="#DejaVuSans-73"/>
      <use xlink:href="#DejaVuSans-63" transform="translate(52.099609 0)"/>
      <use xlink:href="#DejaVuSans-20" transform="translate(107.080078 0)"/>
      <use xlink:href="#DejaVuSans-73" transform="translate(138.867188 0)"/>
      <use xlink:href="#DejaVuSans-63" transform="translate(190.966797 0)"/>
      <use xlink:href="#DejaVuSans-6f" transform="translate(245.947266 0)"/>
      <use xlink:href="#DejaVuSans-72" transform="translate(307.128906 0)"/>
      <use xlink:href="#DejaVuSans-65" transform="translate(345.992188 0)"/>
      <use xlink:href="#DejaVuSans-73" transform="translate(407.515625 0)"/>
     </g>
    </g>
   </g>
   <g id="matplotlib.axis_2">
    <g id="ytick_1">
     <g id="line2d_10">
      <defs>
       <path id="ma91c89d1b1" d="M 0 0 
L -3.5 0 
" style="stroke: #000000; stroke-width: 0.8"/>
      </defs>
      <g>
       <use xlink:href="#ma91c89d1b1" x="46.965625" y="313.310125" style="stroke: #000000; stroke-width: 0.8"/>
      </g>
     </g>
     <g id="text_11">
      <!-- 0 -->
      <g transform="translate(33.603125 317.109344) scale(0.1 -0.1)">
       <use xlink:href="#DejaVuSans-30"/>
      </g>
     </g>
    </g>
    <g id="ytick_2">
     <g id="line2d_11">
      <g>
       <use xlink:href="#ma91c89d1b1" x="46.965625" y="255.573617" style="stroke: #000000; stroke-width: 0.8"/>
      </g>
     </g>
     <g id="text_12">
      <!-- 50 -->
      <g transform="translate(27.240625 259.372836) scale(0.1 -0.1)">
       <use xlink:href="#DejaVuSans-35"/>
       <use xlink:href="#DejaVuSans-30" transform="translate(63.623047 0)"/>
      </g>
     </g>
    </g>
    <g id="ytick_3">
     <g id="line2d_12">
      <g>
       <use xlink:href="#ma91c89d1b1" x="46.965625" y="197.837109" style="stroke: #000000; stroke-width: 0.8"/>
      </g>
     </g>
     <g id="text_13">
      <!-- 100 -->
      <g transform="translate(20.878125 201.636328) scale(0.1 -0.1)">
       <use xlink:href="#DejaVuSans-31"/>
       <use xlink:href="#DejaVuSans-30" transform="translate(63.623047 0)"/>
       <use xlink:href="#DejaVuSans-30" transform="translate(127.246094 0)"/>
      </g>
     </g>
    </g>
    <g id="ytick_4">
     <g id="line2d_13">
      <g>
       <use xlink:href="#ma91c89d1b1" x="46.965625" y="140.100601" style="stroke: #000000; stroke-width: 0.8"/>
      </g>
     </g>
     <g id="text_14">
      <!-- 150 -->
      <g transform="translate(20.878125 143.89982) scale(0.1 -0.1)">
       <use xlink:href="#DejaVuSans-31"/>
       <use xlink:href="#DejaVuSans-35" transform="translate(63.623047 0)"/>
       <use xlink:href="#DejaVuSans-30" transform="translate(127.246094 0)"/>
      </g>
     </g>
    </g>
    <g id="ytick_5">
     <g id="line2d_14">
      <g>
       <use xlink:href="#ma91c89d1b1" x="46.965625" y="82.364093" style="stroke: #000000; stroke-width: 0.8"/>
      </g>
     </g>
     <g id="text_15">
      <!-- 200 -->
      <g transform="translate(20.878125 86.163312) scale(0.1 -0.1)">
       <use xlink:href="#DejaVuSans-32"/>
       <use xlink:href="#DejaVuSans-30" transform="translate(63.623047 0)"/>
       <use xlink:href="#DejaVuSans-30" transform="translate(127.246094 0)"/>
      </g>
     </g>
    </g>
    <g id="ytick_6">
     <g id="line2d_15">
      <g>
       <use xlink:href="#ma91c89d1b1" x="46.965625" y="24.627585" style="stroke: #000000; stroke-width: 0.8"/>
      </g>
     </g>
     <g id="text_16">
      <!-- 250 -->
      <g transform="translate(20.878125 28.426804) scale(0.1 -0.1)">
       <use xlink:href="#DejaVuSans-32"/>
       <use xlink:href="#DejaVuSans-35" transform="translate(63.623047 0)"/>
       <use xlink:href="#DejaVuSans-30" transform="translate(127.246094 0)"/>
      </g>
     </g>
    </g>
    <g id="text_17">
     <!-- count -->
     <g transform="translate(14.798438 181.920375) rotate(-90) scale(0.1 -0.1)">
      <defs>
       <path id="DejaVuSans-75" d="M 544 1381 
L 544 3500 
L 1119 3500 
L 1119 1403 
Q 1119 906 1312 657 
Q 1506 409 1894 409 
Q 2359 409 2629 706 
Q 2900 1003 2900 1516 
L 2900 3500 
L 3475 3500 
L 3475 0 
L 2900 0 
L 2900 538 
Q 2691 219 2414 64 
Q 2138 -91 1772 -91 
Q 1169 -91 856 284 
Q 544 659 544 1381 
z
M 1991 3584 
L 1991 3584 
z
" transform="scale(0.015625)"/>
       <path id="DejaVuSans-6e" d="M 3513 2113 
L 3513 0 
L 2938 0 
L 2938 2094 
Q 2938 2591 2744 2837 
Q 2550 3084 2163 3084 
Q 1697 3084 1428 2787 
Q 1159 2491 1159 1978 
L 1159 0 
L 581 0 
L 581 3500 
L 1159 3500 
L 1159 2956 
Q 1366 3272 1645 3428 
Q 1925 3584 2291 3584 
Q 2894 3584 3203 3211 
Q 3513 2838 3513 2113 
z
" transform="scale(0.015625)"/>
       <path id="DejaVuSans-74" d="M 1172 4494 
L 1172 3500 
L 2356 3500 
L 2356 3053 
L 1172 3053 
L 1172 1153 
Q 1172 725 1289 603 
Q 1406 481 1766 481 
L 2356 481 
L 2356 0 
L 1766 0 
Q 1100 0 847 248 
Q 594 497 594 1153 
L 594 3053 
L 172 3053 
L 172 3500 
L 594 3500 
L 594 4494 
L 1172 4494 
z
" transform="scale(0.015625)"/>
      </defs>
      <use xlink:href="#DejaVuSans-63"/>
      <use xlink:href="#DejaVuSans-6f" transform="translate(54.980469 0)"/>
      <use xlink:href="#DejaVuSans-75" transform="translate(116.162109 0)"/>
      <use xlink:href="#DejaVuSans-6e" transform="translate(179.541016 0)"/>
      <use xlink:href="#DejaVuSans-74" transform="translate(242.919922 0)"/>
     </g>
    </g>
   </g>
   <g id="line2d_16">
    <path d="M 195.466514 312.166473 
L 197.798715 311.586345 
L 200.130915 310.828347 
L 202.463115 309.883259 
L 204.795316 308.746261 
L 207.127516 307.405852 
L 209.459717 305.830401 
L 211.791917 303.958781 
L 214.124117 301.70049 
L 216.456318 298.945786 
L 218.788518 295.580085 
L 221.120719 291.493536 
L 223.452919 286.578935 
L 225.785119 280.718298 
L 228.11732 273.766641 
L 230.44952 265.546674 
L 232.781721 255.867771 
L 235.113921 244.576267 
L 237.446121 231.631939 
L 239.778322 217.189217 
L 243.276622 193.654661 
L 246.774923 169.91682 
L 249.107123 155.228869 
L 251.439324 142.133319 
L 253.771524 130.910086 
L 256.103725 121.543075 
L 258.435925 113.783403 
L 260.768126 107.256672 
L 263.100326 101.577031 
L 265.432526 96.441516 
L 267.764727 91.688878 
L 270.096927 87.313919 
L 272.429128 83.436704 
L 274.761328 80.239197 
L 275.927428 78.951311 
L 277.093528 77.89406 
L 278.259629 77.078869 
L 279.425729 76.511723 
L 280.591829 76.193248 
L 281.757929 76.119109 
L 282.924029 76.280553 
L 284.09013 76.664963 
L 285.25623 77.25634 
L 286.42233 78.035678 
L 288.75453 80.069027 
L 291.086731 82.565819 
L 300.415532 93.296246 
L 306.246033 99.157783 
L 315.574835 108.617163 
L 317.907035 110.491989 
L 319.073136 111.248883 
L 320.239236 111.867622 
L 321.405336 112.340474 
L 322.571436 112.663744 
L 323.737536 112.836571 
L 324.903637 112.8592 
L 326.069737 112.730957 
L 327.235837 112.448282 
L 328.401937 112.003144 
L 329.568037 111.382183 
L 330.734138 110.566785 
L 331.900238 109.534225 
L 333.066338 108.259812 
L 334.232438 106.719853 
L 335.398538 104.895109 
L 336.564639 102.774343 
L 337.730739 100.357526 
L 340.062939 94.705455 
L 342.39514 88.229333 
L 347.05954 74.972856 
L 348.225641 72.06929 
L 349.391741 69.484291 
L 350.557841 67.279253 
L 351.723941 65.501828 
L 352.890041 64.184239 
L 354.056142 63.34253 
L 355.222242 62.976743 
L 356.388342 63.071955 
L 357.554442 63.600059 
L 358.720542 64.522152 
L 359.886643 65.791374 
L 361.052743 67.356017 
L 363.384943 71.15951 
L 365.717144 75.538798 
L 370.381544 84.983016 
L 375.045945 94.933325 
L 378.544246 103.0919 
L 380.876446 109.040834 
L 383.208647 115.466496 
L 385.540847 122.407783 
L 387.873047 129.898425 
L 390.205248 137.958284 
L 393.703548 151.040063 
L 404.19845 191.698908 
L 407.696751 203.561358 
L 413.527252 221.923976 
L 417.025552 233.326802 
L 419.357753 241.533715 
L 421.689953 250.344954 
L 425.188254 264.489072 
L 427.520454 274.081113 
L 427.520454 274.081113 
" clip-path="url(#pd766500f93)" style="fill: none; stroke: #2f4f4f; stroke-width: 1.5; stroke-linecap: square"/>
   </g>
   <g id="line2d_17">
    <path d="M 195.466514 311.316095 
L 197.798715 310.558454 
L 200.130915 309.604731 
L 202.463115 308.434818 
L 204.795316 307.038703 
L 207.127516 305.418278 
L 209.459717 303.585577 
L 212.958017 300.474449 
L 216.456318 296.948354 
L 218.788518 294.323651 
L 221.120719 291.375096 
L 223.452919 287.924968 
L 224.619019 285.930284 
L 225.785119 283.700139 
L 226.95122 281.185795 
L 228.11732 278.334067 
L 229.28342 275.088739 
L 230.44952 271.392387 
L 231.61562 267.18861 
L 232.781721 262.424633 
L 233.947821 257.054244 
L 235.113921 251.041023 
L 236.280021 244.361747 
L 238.612222 228.998745 
L 240.944422 211.168579 
L 243.276622 191.463675 
L 249.107123 141.088893 
L 251.439324 123.859576 
L 252.605424 116.412894 
L 253.771524 109.842759 
L 254.937625 104.175287 
L 256.103725 99.398395 
L 257.269825 95.465012 
L 258.435925 92.298971 
L 259.602025 89.802928 
L 260.768126 87.867481 
L 261.934226 86.380542 
L 263.100326 85.236007 
L 264.266426 84.340937 
L 266.598627 83.021411 
L 268.930827 82.075073 
L 271.263027 81.449201 
L 272.429128 81.290513 
L 273.595228 81.259918 
L 274.761328 81.372674 
L 275.927428 81.637034 
L 277.093528 82.052378 
L 279.425729 83.287117 
L 281.757929 84.901663 
L 286.42233 88.257813 
L 288.75453 89.550011 
L 291.086731 90.423014 
L 293.418931 90.888389 
L 295.751132 91.057008 
L 300.415532 91.265496 
L 302.747733 91.708325 
L 305.079933 92.56266 
L 307.412134 93.856055 
L 309.744334 95.521817 
L 317.907035 101.984847 
L 320.239236 103.244358 
L 321.405336 103.670174 
L 322.571436 103.938951 
L 323.737536 104.038914 
L 324.903637 103.962143 
L 326.069737 103.70496 
L 327.235837 103.268123 
L 328.401937 102.656763 
L 329.568037 101.880034 
L 331.900238 99.883242 
L 334.232438 97.402935 
L 336.564639 94.574957 
L 340.062939 89.952006 
L 344.72734 83.695126 
L 347.05954 80.853917 
L 349.391741 78.452747 
L 350.557841 77.478056 
L 351.723941 76.68255 
L 352.890041 76.083104 
L 354.056142 75.69189 
L 355.222242 75.515963 
L 356.388342 75.557246 
L 357.554442 75.812892 
L 358.720542 76.275914 
L 359.886643 76.935992 
L 361.052743 77.780355 
L 362.218843 78.794646 
L 364.551043 81.272415 
L 366.883244 84.250953 
L 369.215444 87.627296 
L 371.547645 91.322832 
L 375.045945 97.349059 
L 378.544246 103.845405 
L 382.042546 110.745847 
L 385.540847 118.190485 
L 387.873047 123.702253 
L 390.205248 129.921597 
L 392.537448 137.064333 
L 394.869649 145.230855 
L 397.201849 154.342311 
L 400.70015 169.1902 
L 406.530651 194.123571 
L 410.028951 207.885727 
L 413.527252 220.704643 
L 419.357753 241.738303 
L 422.856053 255.313849 
L 427.520454 274.343468 
L 427.520454 274.343468 
" clip-path="url(#pd766500f93)" style="fill: none; stroke: #daa520; stroke-width: 1.5; stroke-linecap: square"/>
   </g>
   <g id="line2d_18">
    <path d="M 324.20895 313.310125 
L 324.20895 22.318125 
" clip-path="url(#pd766500f93)" style="fill: none; stroke-dasharray: 5.55,2.4; stroke-dashoffset: 0; stroke: #daa520; stroke-width: 1.5"/>
   </g>
   <g id="line2d_19">
    <path d="M 325.226487 313.310125 
L 325.226487 22.318125 
" clip-path="url(#pd766500f93)" style="fill: none; stroke-dasharray: 5.55,2.4; stroke-dashoffset: 0; stroke: #2f4f4f; stroke-width: 1.5"/>
   </g>
   <g id="line2d_20">
    <path d="M 324.717718 313.310125 
L 324.717718 22.318125 
" clip-path="url(#pd766500f93)" style="fill: none; stroke: #ff0000; stroke-width: 2; stroke-linecap: square"/>
   </g>
   <g id="patch_3">
    <path d="M 46.965625 313.310125 
L 46.965625 22.318125 
" style="fill: none; stroke: #000000; stroke-width: 0.8; stroke-linejoin: miter; stroke-linecap: square"/>
   </g>
   <g id="patch_4">
    <path d="M 446.050625 313.310125 
L 446.050625 22.318125 
" style="fill: none; stroke: #000000; stroke-width: 0.8; stroke-linejoin: miter; stroke-linecap: square"/>
   </g>
   <g id="patch_5">
    <path d="M 46.965625 313.310125 
L 446.050625 313.310125 
" style="fill: none; stroke: #000000; stroke-width: 0.8; stroke-linejoin: miter; stroke-linecap: square"/>
   </g>
   <g id="patch_6">
    <path d="M 46.965625 22.318125 
L 446.050625 22.318125 
" style="fill: none; stroke: #000000; stroke-width: 0.8; stroke-linejoin: miter; stroke-linecap: square"/>
   </g>
   <g id="text_18">
    <!-- Sc Score Distribution for 2PFK -->
    <g transform="translate(156.89625 16.318125) scale(0.12 -0.12)">
     <defs>
      <path id="DejaVuSans-53" d="M 3425 4513 
L 3425 3897 
Q 3066 4069 2747 4153 
Q 2428 4238 2131 4238 
Q 1616 4238 1336 4038 
Q 1056 3838 1056 3469 
Q 1056 3159 1242 3001 
Q 1428 2844 1947 2747 
L 2328 2669 
Q 3034 2534 3370 2195 
Q 3706 1856 3706 1288 
Q 3706 609 3251 259 
Q 2797 -91 1919 -91 
Q 1588 -91 1214 -16 
Q 841 59 441 206 
L 441 856 
Q 825 641 1194 531 
Q 1563 422 1919 422 
Q 2459 422 2753 634 
Q 3047 847 3047 1241 
Q 3047 1584 2836 1778 
Q 2625 1972 2144 2069 
L 1759 2144 
Q 1053 2284 737 2584 
Q 422 2884 422 3419 
Q 422 4038 858 4394 
Q 1294 4750 2059 4750 
Q 2388 4750 2728 4690 
Q 3069 4631 3425 4513 
z
" transform="scale(0.015625)"/>
      <path id="DejaVuSans-44" d="M 1259 4147 
L 1259 519 
L 2022 519 
Q 2988 519 3436 956 
Q 3884 1394 3884 2338 
Q 3884 3275 3436 3711 
Q 2988 4147 2022 4147 
L 1259 4147 
z
M 628 4666 
L 1925 4666 
Q 3281 4666 3915 4102 
Q 4550 3538 4550 2338 
Q 4550 1131 3912 565 
Q 3275 0 1925 0 
L 628 0 
L 628 4666 
z
" transform="scale(0.015625)"/>
      <path id="DejaVuSans-69" d="M 603 3500 
L 1178 3500 
L 1178 0 
L 603 0 
L 603 3500 
z
M 603 4863 
L 1178 4863 
L 1178 4134 
L 603 4134 
L 603 4863 
z
" transform="scale(0.015625)"/>
      <path id="DejaVuSans-62" d="M 3116 1747 
Q 3116 2381 2855 2742 
Q 2594 3103 2138 3103 
Q 1681 3103 1420 2742 
Q 1159 2381 1159 1747 
Q 1159 1113 1420 752 
Q 1681 391 2138 391 
Q 2594 391 2855 752 
Q 3116 1113 3116 1747 
z
M 1159 2969 
Q 1341 3281 1617 3432 
Q 1894 3584 2278 3584 
Q 2916 3584 3314 3078 
Q 3713 2572 3713 1747 
Q 3713 922 3314 415 
Q 2916 -91 2278 -91 
Q 1894 -91 1617 61 
Q 1341 213 1159 525 
L 1159 0 
L 581 0 
L 581 4863 
L 1159 4863 
L 1159 2969 
z
" transform="scale(0.015625)"/>
      <path id="DejaVuSans-66" d="M 2375 4863 
L 2375 4384 
L 1825 4384 
Q 1516 4384 1395 4259 
Q 1275 4134 1275 3809 
L 1275 3500 
L 2222 3500 
L 2222 3053 
L 1275 3053 
L 1275 0 
L 697 0 
L 697 3053 
L 147 3053 
L 147 3500 
L 697 3500 
L 697 3744 
Q 697 4328 969 4595 
Q 1241 4863 1831 4863 
L 2375 4863 
z
" transform="scale(0.015625)"/>
      <path id="DejaVuSans-50" d="M 1259 4147 
L 1259 2394 
L 2053 2394 
Q 2494 2394 2734 2622 
Q 2975 2850 2975 3272 
Q 2975 3691 2734 3919 
Q 2494 4147 2053 4147 
L 1259 4147 
z
M 628 4666 
L 2053 4666 
Q 2838 4666 3239 4311 
Q 3641 3956 3641 3272 
Q 3641 2581 3239 2228 
Q 2838 1875 2053 1875 
L 1259 1875 
L 1259 0 
L 628 0 
L 628 4666 
z
" transform="scale(0.015625)"/>
      <path id="DejaVuSans-46" d="M 628 4666 
L 3309 4666 
L 3309 4134 
L 1259 4134 
L 1259 2759 
L 3109 2759 
L 3109 2228 
L 1259 2228 
L 1259 0 
L 628 0 
L 628 4666 
z
" transform="scale(0.015625)"/>
      <path id="DejaVuSans-4b" d="M 628 4666 
L 1259 4666 
L 1259 2694 
L 3353 4666 
L 4166 4666 
L 1850 2491 
L 4331 0 
L 3500 0 
L 1259 2247 
L 1259 0 
L 628 0 
L 628 4666 
z
" transform="scale(0.015625)"/>
     </defs>
     <use xlink:href="#DejaVuSans-53"/>
     <use xlink:href="#DejaVuSans-63" transform="translate(63.476562 0)"/>
     <use xlink:href="#DejaVuSans-20" transform="translate(118.457031 0)"/>
     <use xlink:href="#DejaVuSans-53" transform="translate(150.244141 0)"/>
     <use xlink:href="#DejaVuSans-63" transform="translate(213.720703 0)"/>
     <use xlink:href="#DejaVuSans-6f" transform="translate(268.701172 0)"/>
     <use xlink:href="#DejaVuSans-72" transform="translate(329.882812 0)"/>
     <use xlink:href="#DejaVuSans-65" transform="translate(368.746094 0)"/>
     <use xlink:href="#DejaVuSans-20" transform="translate(430.269531 0)"/>
     <use xlink:href="#DejaVuSans-44" transform="translate(462.056641 0)"/>
     <use xlink:href="#DejaVuSans-69" transform="translate(539.058594 0)"/>
     <use xlink:href="#DejaVuSans-73" transform="translate(566.841797 0)"/>
     <use xlink:href="#DejaVuSans-74" transform="translate(618.941406 0)"/>
     <use xlink:href="#DejaVuSans-72" transform="translate(658.150391 0)"/>
     <use xlink:href="#DejaVuSans-69" transform="translate(699.263672 0)"/>
     <use xlink:href="#DejaVuSans-62" transform="translate(727.046875 0)"/>
     <use xlink:href="#DejaVuSans-75" transform="translate(790.523438 0)"/>
     <use xlink:href="#DejaVuSans-74" transform="translate(853.902344 0)"/>
     <use xlink:href="#DejaVuSans-69" transform="translate(893.111328 0)"/>
     <use xlink:href="#DejaVuSans-6f" transform="translate(920.894531 0)"/>
     <use xlink:href="#DejaVuSans-6e" transform="translate(982.076172 0)"/>
     <use xlink:href="#DejaVuSans-20" transform="translate(1045.455078 0)"/>
     <use xlink:href="#DejaVuSans-66" transform="translate(1077.242188 0)"/>
     <use xlink:href="#DejaVuSans-6f" transform="translate(1112.447266 0)"/>
     <use xlink:href="#DejaVuSans-72" transform="translate(1173.628906 0)"/>
     <use xlink:href="#DejaVuSans-20" transform="translate(1214.742188 0)"/>
     <use xlink:href="#DejaVuSans-32" transform="translate(1246.529297 0)"/>
     <use xlink:href="#DejaVuSans-50" transform="translate(1310.152344 0)"/>
     <use xlink:href="#DejaVuSans-46" transform="translate(1370.455078 0)"/>
     <use xlink:href="#DejaVuSans-4b" transform="translate(1427.974609 0)"/>
    </g>
   </g>
   <g id="legend_1">
    <g id="patch_7">
     <path d="M 53.965625 74.90875 
L 190.892187 74.90875 
Q 192.892187 74.90875 192.892187 72.90875 
L 192.892187 29.318125 
Q 192.892187 27.318125 190.892187 27.318125 
L 53.965625 27.318125 
Q 51.965625 27.318125 51.965625 29.318125 
L 51.965625 72.90875 
Q 51.965625 74.90875 53.965625 74.90875 
z
" style="fill: #ffffff; opacity: 0.8; stroke: #cccccc; stroke-linejoin: miter"/>
    </g>
    <g id="line2d_21">
     <path d="M 55.965625 35.416562 
L 65.965625 35.416562 
L 75.965625 35.416562 
" style="fill: none; stroke-dasharray: 5.55,2.4; stroke-dashoffset: 0; stroke: #daa520; stroke-width: 1.5"/>
    </g>
    <g id="text_19">
     <!-- 2PFK_A Median: 0.43 -->
     <g transform="translate(83.965625 38.916562) scale(0.1 -0.1)">
      <defs>
       <path id="DejaVuSans-5f" d="M 3263 -1063 
L 3263 -1509 
L -63 -1509 
L -63 -1063 
L 3263 -1063 
z
" transform="scale(0.015625)"/>
       <path id="DejaVuSans-41" d="M 2188 4044 
L 1331 1722 
L 3047 1722 
L 2188 4044 
z
M 1831 4666 
L 2547 4666 
L 4325 0 
L 3669 0 
L 3244 1197 
L 1141 1197 
L 716 0 
L 50 0 
L 1831 4666 
z
" transform="scale(0.015625)"/>
       <path id="DejaVuSans-4d" d="M 628 4666 
L 1569 4666 
L 2759 1491 
L 3956 4666 
L 4897 4666 
L 4897 0 
L 4281 0 
L 4281 4097 
L 3078 897 
L 2444 897 
L 1241 4097 
L 1241 0 
L 628 0 
L 628 4666 
z
" transform="scale(0.015625)"/>
       <path id="DejaVuSans-64" d="M 2906 2969 
L 2906 4863 
L 3481 4863 
L 3481 0 
L 2906 0 
L 2906 525 
Q 2725 213 2448 61 
Q 2172 -91 1784 -91 
Q 1150 -91 751 415 
Q 353 922 353 1747 
Q 353 2572 751 3078 
Q 1150 3584 1784 3584 
Q 2172 3584 2448 3432 
Q 2725 3281 2906 2969 
z
M 947 1747 
Q 947 1113 1208 752 
Q 1469 391 1925 391 
Q 2381 391 2643 752 
Q 2906 1113 2906 1747 
Q 2906 2381 2643 2742 
Q 2381 3103 1925 3103 
Q 1469 3103 1208 2742 
Q 947 2381 947 1747 
z
" transform="scale(0.015625)"/>
       <path id="DejaVuSans-61" d="M 2194 1759 
Q 1497 1759 1228 1600 
Q 959 1441 959 1056 
Q 959 750 1161 570 
Q 1363 391 1709 391 
Q 2188 391 2477 730 
Q 2766 1069 2766 1631 
L 2766 1759 
L 2194 1759 
z
M 3341 1997 
L 3341 0 
L 2766 0 
L 2766 531 
Q 2569 213 2275 61 
Q 1981 -91 1556 -91 
Q 1019 -91 701 211 
Q 384 513 384 1019 
Q 384 1609 779 1909 
Q 1175 2209 1959 2209 
L 2766 2209 
L 2766 2266 
Q 2766 2663 2505 2880 
Q 2244 3097 1772 3097 
Q 1472 3097 1187 3025 
Q 903 2953 641 2809 
L 641 3341 
Q 956 3463 1253 3523 
Q 1550 3584 1831 3584 
Q 2591 3584 2966 3190 
Q 3341 2797 3341 1997 
z
" transform="scale(0.015625)"/>
       <path id="DejaVuSans-3a" d="M 750 794 
L 1409 794 
L 1409 0 
L 750 0 
L 750 794 
z
M 750 3309 
L 1409 3309 
L 1409 2516 
L 750 2516 
L 750 3309 
z
" transform="scale(0.015625)"/>
       <path id="DejaVuSans-34" d="M 2419 4116 
L 825 1625 
L 2419 1625 
L 2419 4116 
z
M 2253 4666 
L 3047 4666 
L 3047 1625 
L 3713 1625 
L 3713 1100 
L 3047 1100 
L 3047 0 
L 2419 0 
L 2419 1100 
L 313 1100 
L 313 1709 
L 2253 4666 
z
" transform="scale(0.015625)"/>
       <path id="DejaVuSans-33" d="M 2597 2516 
Q 3050 2419 3304 2112 
Q 3559 1806 3559 1356 
Q 3559 666 3084 287 
Q 2609 -91 1734 -91 
Q 1441 -91 1130 -33 
Q 819 25 488 141 
L 488 750 
Q 750 597 1062 519 
Q 1375 441 1716 441 
Q 2309 441 2620 675 
Q 2931 909 2931 1356 
Q 2931 1769 2642 2001 
Q 2353 2234 1838 2234 
L 1294 2234 
L 1294 2753 
L 1863 2753 
Q 2328 2753 2575 2939 
Q 2822 3125 2822 3475 
Q 2822 3834 2567 4026 
Q 2313 4219 1838 4219 
Q 1578 4219 1281 4162 
Q 984 4106 628 3988 
L 628 4550 
Q 988 4650 1302 4700 
Q 1616 4750 1894 4750 
Q 2613 4750 3031 4423 
Q 3450 4097 3450 3541 
Q 3450 3153 3228 2886 
Q 3006 2619 2597 2516 
z
" transform="scale(0.015625)"/>
      </defs>
      <use xlink:href="#DejaVuSans-32"/>
      <use xlink:href="#DejaVuSans-50" transform="translate(63.623047 0)"/>
      <use xlink:href="#DejaVuSans-46" transform="translate(123.925781 0)"/>
      <use xlink:href="#DejaVuSans-4b" transform="translate(181.445312 0)"/>
      <use xlink:href="#DejaVuSans-5f" transform="translate(247.021484 0)"/>
      <use xlink:href="#DejaVuSans-41" transform="translate(297.021484 0)"/>
      <use xlink:href="#DejaVuSans-20" transform="translate(365.429688 0)"/>
      <use xlink:href="#DejaVuSans-4d" transform="translate(397.216797 0)"/>
      <use xlink:href="#DejaVuSans-65" transform="translate(483.496094 0)"/>
      <use xlink:href="#DejaVuSans-64" transform="translate(545.019531 0)"/>
      <use xlink:href="#DejaVuSans-69" transform="translate(608.496094 0)"/>
      <use xlink:href="#DejaVuSans-61" transform="translate(636.279297 0)"/>
      <use xlink:href="#DejaVuSans-6e" transform="translate(697.558594 0)"/>
      <use xlink:href="#DejaVuSans-3a" transform="translate(760.9375 0)"/>
      <use xlink:href="#DejaVuSans-20" transform="translate(794.628906 0)"/>
      <use xlink:href="#DejaVuSans-30" transform="translate(826.416016 0)"/>
      <use xlink:href="#DejaVuSans-2e" transform="translate(890.039062 0)"/>
      <use xlink:href="#DejaVuSans-34" transform="translate(921.826172 0)"/>
      <use xlink:href="#DejaVuSans-33" transform="translate(985.449219 0)"/>
     </g>
    </g>
    <g id="line2d_22">
     <path d="M 55.965625 50.372813 
L 65.965625 50.372813 
L 75.965625 50.372813 
" style="fill: none; stroke-dasharray: 5.55,2.4; stroke-dashoffset: 0; stroke: #2f4f4f; stroke-width: 1.5"/>
    </g>
    <g id="text_20">
     <!-- 2PFK_B Median: 0.43 -->
     <g transform="translate(83.965625 53.872813) scale(0.1 -0.1)">
      <defs>
       <path id="DejaVuSans-42" d="M 1259 2228 
L 1259 519 
L 2272 519 
Q 2781 519 3026 730 
Q 3272 941 3272 1375 
Q 3272 1813 3026 2020 
Q 2781 2228 2272 2228 
L 1259 2228 
z
M 1259 4147 
L 1259 2741 
L 2194 2741 
Q 2656 2741 2882 2914 
Q 3109 3088 3109 3444 
Q 3109 3797 2882 3972 
Q 2656 4147 2194 4147 
L 1259 4147 
z
M 628 4666 
L 2241 4666 
Q 2963 4666 3353 4366 
Q 3744 4066 3744 3513 
Q 3744 3084 3544 2831 
Q 3344 2578 2956 2516 
Q 3422 2416 3680 2098 
Q 3938 1781 3938 1306 
Q 3938 681 3513 340 
Q 3088 0 2303 0 
L 628 0 
L 628 4666 
z
" transform="scale(0.015625)"/>
      </defs>
      <use xlink:href="#DejaVuSans-32"/>
      <use xlink:href="#DejaVuSans-50" transform="translate(63.623047 0)"/>
      <use xlink:href="#DejaVuSans-46" transform="translate(123.925781 0)"/>
      <use xlink:href="#DejaVuSans-4b" transform="translate(181.445312 0)"/>
      <use xlink:href="#DejaVuSans-5f" transform="translate(247.021484 0)"/>
      <use xlink:href="#DejaVuSans-42" transform="translate(297.021484 0)"/>
      <use xlink:href="#DejaVuSans-20" transform="translate(365.625 0)"/>
      <use xlink:href="#DejaVuSans-4d" transform="translate(397.412109 0)"/>
      <use xlink:href="#DejaVuSans-65" transform="translate(483.691406 0)"/>
      <use xlink:href="#DejaVuSans-64" transform="translate(545.214844 0)"/>
      <use xlink:href="#DejaVuSans-69" transform="translate(608.691406 0)"/>
      <use xlink:href="#DejaVuSans-61" transform="translate(636.474609 0)"/>
      <use xlink:href="#DejaVuSans-6e" transform="translate(697.753906 0)"/>
      <use xlink:href="#DejaVuSans-3a" transform="translate(761.132812 0)"/>
      <use xlink:href="#DejaVuSans-20" transform="translate(794.824219 0)"/>
      <use xlink:href="#DejaVuSans-30" transform="translate(826.611328 0)"/>
      <use xlink:href="#DejaVuSans-2e" transform="translate(890.234375 0)"/>
      <use xlink:href="#DejaVuSans-34" transform="translate(922.021484 0)"/>
      <use xlink:href="#DejaVuSans-33" transform="translate(985.644531 0)"/>
     </g>
    </g>
    <g id="line2d_23">
     <path d="M 55.965625 65.329063 
L 65.965625 65.329063 
L 75.965625 65.329063 
" style="fill: none; stroke: #ff0000; stroke-width: 2; stroke-linecap: square"/>
    </g>
    <g id="text_21">
     <!-- Sc Score: 0.43 -->
     <g transform="translate(83.965625 68.829063) scale(0.1 -0.1)">
      <use xlink:href="#DejaVuSans-53"/>
      <use xlink:href="#DejaVuSans-63" transform="translate(63.476562 0)"/>
      <use xlink:href="#DejaVuSans-20" transform="translate(118.457031 0)"/>
      <use xlink:href="#DejaVuSans-53" transform="translate(150.244141 0)"/>
      <use xlink:href="#DejaVuSans-63" transform="translate(213.720703 0)"/>
      <use xlink:href="#DejaVuSans-6f" transform="translate(268.701172 0)"/>
      <use xlink:href="#DejaVuSans-72" transform="translate(329.882812 0)"/>
      <use xlink:href="#DejaVuSans-65" transform="translate(368.746094 0)"/>
      <use xlink:href="#DejaVuSans-3a" transform="translate(430.269531 0)"/>
      <use xlink:href="#DejaVuSans-20" transform="translate(463.960938 0)"/>
      <use xlink:href="#DejaVuSans-30" transform="translate(495.748047 0)"/>
      <use xlink:href="#DejaVuSans-2e" transform="translate(559.371094 0)"/>
      <use xlink:href="#DejaVuSans-34" transform="translate(591.158203 0)"/>
      <use xlink:href="#DejaVuSans-33" transform="translate(654.78125 0)"/>
     </g>
    </g>
   </g>
  </g>
 </g>
 <defs>
  <clipPath id="pd766500f93">
   <rect x="46.965625" y="22.318125" width="399.085" height="290.992"/>
  </clipPath>
 </defs>
</svg>
