<?xml version="1.0" encoding="utf-8" standalone="no"?>
<!DOCTYPE svg PUBLIC "-//W3C//DTD SVG 1.1//EN"
  "http://www.w3.org/Graphics/SVG/1.1/DTD/svg11.dtd">
<svg xmlns:xlink="http://www.w3.org/1999/xlink" width="453.250625pt" height="352.714375pt" viewBox="0 0 453.250625 352.714375" xmlns="http://www.w3.org/2000/svg" version="1.1">
 <metadata>
  <rdf:RDF xmlns:dc="http://purl.org/dc/elements/1.1/" xmlns:cc="http://creativecommons.org/ns#" xmlns:rdf="http://www.w3.org/1999/02/22-rdf-syntax-ns#">
   <cc:Work>
    <dc:type rdf:resource="http://purl.org/dc/dcmitype/StillImage"/>
    <dc:date>2025-09-02T15:10:29.978518</dc:date>
    <dc:format>image/svg+xml</dc:format>
    <dc:creator>
     <cc:Agent>
      <dc:title>Matplotlib v3.10.5, https://matplotlib.org/</dc:title>
     </cc:Agent>
    </dc:creator>
   </cc:Work>
  </rdf:RDF>
 </metadata>
 <defs>
  <style type="text/css">*{stroke-linejoin: round; stroke-linecap: butt}</style>
 </defs>
 <g id="figure_1">
  <g id="patch_1">
   <path d="M 0 352.714375 
L 453.250625 352.714375 
L 453.250625 0 
L 0 0 
z
" style="fill: #ffffff"/>
  </g>
  <g id="axes_1">
   <g id="patch_2">
    <path d="M 46.965625 315.158125 
L 446.050625 315.158125 
L 446.050625 22.318125 
L 46.965625 22.318125 
z
" style="fill: #ffffff"/>
   </g>
   <g id="FillBetweenPolyCollection_1">
    <defs>
     <path id="meee8db1e74" d="M 65.105852 -37.55625 
L 65.105852 -37.55625 
L 68.733898 -37.55625 
L 68.733898 -37.55625 
L 72.361943 -37.55625 
L 72.361943 -37.55625 
L 75.989989 -37.55625 
L 75.989989 -37.55625 
L 79.618034 -37.55625 
L 79.618034 -37.55625 
L 83.24608 -37.55625 
L 83.24608 -37.55625 
L 86.874125 -37.55625 
L 86.874125 -37.55625 
L 90.50217 -37.55625 
L 90.50217 -37.55625 
L 94.130216 -37.55625 
L 94.130216 -37.55625 
L 97.758261 -37.55625 
L 97.758261 -37.55625 
L 101.386307 -37.55625 
L 101.386307 -37.55625 
L 105.014352 -37.55625 
L 105.014352 -37.55625 
L 108.642398 -37.55625 
L 108.642398 -37.55625 
L 112.270443 -37.55625 
L 112.270443 -37.55625 
L 115.898489 -37.55625 
L 115.898489 -37.55625 
L 119.526534 -37.55625 
L 119.526534 -37.55625 
L 123.15458 -37.55625 
L 123.15458 -37.55625 
L 126.782625 -37.55625 
L 126.782625 -37.55625 
L 130.41067 -37.55625 
L 130.41067 -37.55625 
L 134.038716 -37.55625 
L 134.038716 -37.55625 
L 137.666761 -37.55625 
L 137.666761 -37.55625 
L 141.294807 -37.55625 
L 141.294807 -37.55625 
L 144.922852 -37.55625 
L 144.922852 -37.55625 
L 148.550898 -37.55625 
L 148.550898 -37.55625 
L 152.178943 -37.55625 
L 152.178943 -37.55625 
L 155.806989 -37.55625 
L 155.806989 -37.55625 
L 159.435034 -37.55625 
L 159.435034 -37.55625 
L 163.06308 -37.55625 
L 163.06308 -37.55625 
L 166.691125 -37.55625 
L 166.691125 -37.55625 
L 170.31917 -37.55625 
L 170.31917 -37.55625 
L 173.947216 -37.55625 
L 173.947216 -37.55625 
L 177.575261 -37.55625 
L 177.575261 -37.55625 
L 181.203307 -37.55625 
L 181.203307 -37.55625 
L 184.831352 -37.55625 
L 184.831352 -37.55625 
L 188.459398 -37.55625 
L 188.459398 -37.55625 
L 192.087443 -37.55625 
L 192.087443 -37.55625 
L 195.715489 -37.55625 
L 195.715489 -37.55625 
L 199.343534 -37.55625 
L 199.343534 -37.55625 
L 202.97158 -37.55625 
L 202.97158 -37.55625 
L 206.599625 -37.55625 
L 206.599625 -37.55625 
L 210.22767 -37.55625 
L 210.22767 -37.55625 
L 213.855716 -37.55625 
L 213.855716 -37.55625 
L 217.483761 -37.55625 
L 217.483761 -37.55625 
L 221.111807 -37.55625 
L 221.111807 -37.55625 
L 224.739852 -37.55625 
L 224.739852 -37.55625 
L 228.367898 -37.55625 
L 228.367898 -37.55625 
L 231.995943 -37.55625 
L 231.995943 -37.55625 
L 235.623989 -37.55625 
L 235.623989 -37.55625 
L 239.252034 -37.55625 
L 239.252034 -37.55625 
L 242.88008 -37.55625 
L 242.88008 -37.55625 
L 246.508125 -37.55625 
L 246.508125 -37.55625 
L 250.13617 -37.55625 
L 250.13617 -37.55625 
L 253.764216 -37.55625 
L 253.764216 -37.55625 
L 257.392261 -37.55625 
L 257.392261 -37.55625 
L 261.020307 -37.55625 
L 261.020307 -37.55625 
L 264.648352 -37.55625 
L 264.648352 -37.55625 
L 268.276398 -37.55625 
L 268.276398 -37.55625 
L 271.904443 -37.55625 
L 271.904443 -37.55625 
L 275.532489 -37.55625 
L 275.532489 -37.55625 
L 279.160534 -37.55625 
L 279.160534 -37.55625 
L 282.78858 -37.55625 
L 282.78858 -37.55625 
L 286.416625 -37.55625 
L 286.416625 -37.55625 
L 290.04467 -37.55625 
L 290.04467 -37.55625 
L 293.672716 -37.55625 
L 293.672716 -37.55625 
L 297.300761 -37.55625 
L 297.300761 -37.55625 
L 300.928807 -37.55625 
L 300.928807 -37.55625 
L 304.556852 -37.55625 
L 304.556852 -37.55625 
L 308.184898 -37.55625 
L 308.184898 -37.55625 
L 311.812943 -37.55625 
L 311.812943 -37.55625 
L 315.440989 -37.55625 
L 315.440989 -37.55625 
L 319.069034 -37.55625 
L 319.069034 -37.55625 
L 322.69708 -37.55625 
L 322.69708 -37.55625 
L 326.325125 -37.55625 
L 326.325125 -37.55625 
L 329.95317 -37.55625 
L 329.95317 -37.55625 
L 333.581216 -37.55625 
L 333.581216 -37.55625 
L 337.209261 -37.55625 
L 337.209261 -37.55625 
L 340.837307 -37.55625 
L 340.837307 -37.55625 
L 344.465352 -37.55625 
L 344.465352 -37.55625 
L 348.093398 -37.55625 
L 348.093398 -37.55625 
L 351.721443 -37.55625 
L 351.721443 -37.55625 
L 355.349489 -37.55625 
L 355.349489 -37.55625 
L 358.977534 -37.55625 
L 358.977534 -37.55625 
L 362.60558 -37.55625 
L 362.60558 -37.55625 
L 366.233625 -37.55625 
L 366.233625 -37.55625 
L 369.86167 -37.55625 
L 369.86167 -37.55625 
L 373.489716 -37.55625 
L 373.489716 -37.55625 
L 377.117761 -37.55625 
L 377.117761 -37.55625 
L 380.745807 -37.55625 
L 380.745807 -37.55625 
L 384.373852 -37.55625 
L 384.373852 -37.55625 
L 388.001898 -37.55625 
L 388.001898 -37.55625 
L 391.629943 -37.55625 
L 391.629943 -37.55625 
L 395.257989 -37.55625 
L 395.257989 -37.55625 
L 398.886034 -37.55625 
L 398.886034 -37.55625 
L 402.51408 -37.55625 
L 402.51408 -37.55625 
L 406.142125 -37.55625 
L 406.142125 -37.55625 
L 409.77017 -37.55625 
L 409.77017 -37.55625 
L 413.398216 -37.55625 
L 413.398216 -37.55625 
L 417.026261 -37.55625 
L 417.026261 -37.55625 
L 420.654307 -37.55625 
L 420.654307 -37.55625 
L 424.282352 -37.55625 
L 424.282352 -37.55625 
L 427.910398 -37.55625 
L 427.910398 -37.55625 
L 427.910398 -64.437719 
L 427.910398 -64.437719 
L 427.910398 -64.437719 
L 424.282352 -64.437719 
L 424.282352 -114.840473 
L 420.654307 -114.840473 
L 420.654307 -129.401268 
L 417.026261 -129.401268 
L 417.026261 -168.60341 
L 413.398216 -168.60341 
L 413.398216 -203.325307 
L 409.77017 -203.325307 
L 409.77017 -243.64751 
L 406.142125 -243.64751 
L 406.142125 -267.168795 
L 402.51408 -267.168795 
L 402.51408 -314.211366 
L 398.886034 -314.211366 
L 398.886034 -294.050264 
L 395.257989 -294.050264 
L 395.257989 -316.451488 
L 391.629943 -316.451488 
L 391.629943 -315.331427 
L 388.001898 -315.331427 
L 388.001898 -286.209836 
L 384.373852 -286.209836 
L 384.373852 -278.369407 
L 380.745807 -278.369407 
L 380.745807 -272.769101 
L 377.117761 -272.769101 
L 377.117761 -264.928673 
L 373.489716 -264.928673 
L 373.489716 -255.968183 
L 369.86167 -255.968183 
L 369.86167 -253.728061 
L 366.233625 -253.728061 
L 366.233625 -245.887633 
L 362.60558 -245.887633 
L 362.60558 -252.608 
L 358.977534 -252.608 
L 358.977534 -258.208306 
L 355.349489 -258.208306 
L 355.349489 -232.446898 
L 351.721443 -232.446898 
L 351.721443 -242.527449 
L 348.093398 -242.527449 
L 348.093398 -238.047204 
L 344.465352 -238.047204 
L 344.465352 -254.848122 
L 340.837307 -254.848122 
L 340.837307 -236.927143 
L 337.209261 -236.927143 
L 337.209261 -230.206776 
L 333.581216 -230.206776 
L 333.581216 -213.405858 
L 329.95317 -213.405858 
L 329.95317 -245.887633 
L 326.325125 -245.887633 
L 326.325125 -260.448428 
L 322.69708 -260.448428 
L 322.69708 -229.086715 
L 319.069034 -229.086715 
L 319.069034 -236.927143 
L 315.440989 -236.927143 
L 315.440989 -225.726531 
L 311.812943 -225.726531 
L 311.812943 -186.524389 
L 308.184898 -186.524389 
L 308.184898 -221.246286 
L 304.556852 -221.246286 
L 304.556852 -220.126225 
L 300.928807 -220.126225 
L 300.928807 -215.64598 
L 297.300761 -215.64598 
L 297.300761 -189.884573 
L 293.672716 -189.884573 
L 293.672716 -220.126225 
L 290.04467 -220.126225 
L 290.04467 -173.083655 
L 286.416625 -173.083655 
L 286.416625 -198.845062 
L 282.78858 -198.845062 
L 282.78858 -185.404328 
L 279.160534 -185.404328 
L 279.160534 -175.323777 
L 275.532489 -175.323777 
L 275.532489 -194.364818 
L 271.904443 -194.364818 
L 271.904443 -194.364818 
L 268.276398 -194.364818 
L 268.276398 -210.045674 
L 264.648352 -210.045674 
L 264.648352 -194.364818 
L 261.020307 -194.364818 
L 261.020307 -179.804022 
L 257.392261 -179.804022 
L 257.392261 -177.5639 
L 253.764216 -177.5639 
L 253.764216 -157.402798 
L 250.13617 -157.402798 
L 250.13617 -159.64292 
L 246.508125 -159.64292 
L 246.508125 -157.402798 
L 242.88008 -157.402798 
L 242.88008 -82.358698 
L 239.252034 -82.358698 
L 239.252034 -59.957474 
L 235.623989 -59.957474 
L 235.623989 -48.756862 
L 231.995943 -48.756862 
L 231.995943 -55.477229 
L 228.367898 -55.477229 
L 228.367898 -47.636801 
L 224.739852 -47.636801 
L 224.739852 -43.156556 
L 221.111807 -43.156556 
L 221.111807 -39.796372 
L 217.483761 -39.796372 
L 217.483761 -37.55625 
L 213.855716 -37.55625 
L 213.855716 -38.676311 
L 210.22767 -38.676311 
L 210.22767 -38.676311 
L 206.599625 -38.676311 
L 206.599625 -40.916434 
L 202.97158 -40.916434 
L 202.97158 -39.796372 
L 199.343534 -39.796372 
L 199.343534 -37.55625 
L 195.715489 -37.55625 
L 195.715489 -37.55625 
L 192.087443 -37.55625 
L 192.087443 -38.676311 
L 188.459398 -38.676311 
L 188.459398 -37.55625 
L 184.831352 -37.55625 
L 184.831352 -37.55625 
L 181.203307 -37.55625 
L 181.203307 -38.676311 
L 177.575261 -38.676311 
L 177.575261 -40.916434 
L 173.947216 -40.916434 
L 173.947216 -37.55625 
L 170.31917 -37.55625 
L 170.31917 -38.676311 
L 166.691125 -38.676311 
L 166.691125 -37.55625 
L 163.06308 -37.55625 
L 163.06308 -38.676311 
L 159.435034 -38.676311 
L 159.435034 -37.55625 
L 155.806989 -37.55625 
L 155.806989 -37.55625 
L 152.178943 -37.55625 
L 152.178943 -37.55625 
L 148.550898 -37.55625 
L 148.550898 -37.55625 
L 144.922852 -37.55625 
L 144.922852 -37.55625 
L 141.294807 -37.55625 
L 141.294807 -37.55625 
L 137.666761 -37.55625 
L 137.666761 -37.55625 
L 134.038716 -37.55625 
L 134.038716 -37.55625 
L 130.41067 -37.55625 
L 130.41067 -37.55625 
L 126.782625 -37.55625 
L 126.782625 -37.55625 
L 123.15458 -37.55625 
L 123.15458 -37.55625 
L 119.526534 -37.55625 
L 119.526534 -37.55625 
L 115.898489 -37.55625 
L 115.898489 -37.55625 
L 112.270443 -37.55625 
L 112.270443 -37.55625 
L 108.642398 -37.55625 
L 108.642398 -37.55625 
L 105.014352 -37.55625 
L 105.014352 -37.55625 
L 101.386307 -37.55625 
L 101.386307 -37.55625 
L 97.758261 -37.55625 
L 97.758261 -37.55625 
L 94.130216 -37.55625 
L 94.130216 -37.55625 
L 90.50217 -37.55625 
L 90.50217 -37.55625 
L 86.874125 -37.55625 
L 86.874125 -37.55625 
L 83.24608 -37.55625 
L 83.24608 -37.55625 
L 79.618034 -37.55625 
L 79.618034 -37.55625 
L 75.989989 -37.55625 
L 75.989989 -37.55625 
L 72.361943 -37.55625 
L 72.361943 -37.55625 
L 68.733898 -37.55625 
L 68.733898 -37.55625 
L 65.105852 -37.55625 
z
" style="stroke: #2f4f4f"/>
    </defs>
    <g clip-path="url(#pe06344c5e2)">
     <use xlink:href="#meee8db1e74" x="0" y="352.714375" style="fill: #2f4f4f; fill-opacity: 0.3; stroke: #2f4f4f"/>
    </g>
   </g>
   <g id="FillBetweenPolyCollection_2">
    <defs>
     <path id="m849b46dcd7" d="M 65.105852 -37.55625 
L 65.105852 -37.55625 
L 68.733898 -37.55625 
L 68.733898 -37.55625 
L 72.361943 -37.55625 
L 72.361943 -37.55625 
L 75.989989 -37.55625 
L 75.989989 -37.55625 
L 79.618034 -37.55625 
L 79.618034 -37.55625 
L 83.24608 -37.55625 
L 83.24608 -37.55625 
L 86.874125 -37.55625 
L 86.874125 -37.55625 
L 90.50217 -37.55625 
L 90.50217 -37.55625 
L 94.130216 -37.55625 
L 94.130216 -37.55625 
L 97.758261 -37.55625 
L 97.758261 -37.55625 
L 101.386307 -37.55625 
L 101.386307 -37.55625 
L 105.014352 -37.55625 
L 105.014352 -37.55625 
L 108.642398 -37.55625 
L 108.642398 -37.55625 
L 112.270443 -37.55625 
L 112.270443 -37.55625 
L 115.898489 -37.55625 
L 115.898489 -37.55625 
L 119.526534 -37.55625 
L 119.526534 -37.55625 
L 123.15458 -37.55625 
L 123.15458 -37.55625 
L 126.782625 -37.55625 
L 126.782625 -37.55625 
L 130.41067 -37.55625 
L 130.41067 -37.55625 
L 134.038716 -37.55625 
L 134.038716 -37.55625 
L 137.666761 -37.55625 
L 137.666761 -37.55625 
L 141.294807 -37.55625 
L 141.294807 -37.55625 
L 144.922852 -37.55625 
L 144.922852 -37.55625 
L 148.550898 -37.55625 
L 148.550898 -37.55625 
L 152.178943 -37.55625 
L 152.178943 -37.55625 
L 155.806989 -37.55625 
L 155.806989 -37.55625 
L 159.435034 -37.55625 
L 159.435034 -37.55625 
L 163.06308 -37.55625 
L 163.06308 -37.55625 
L 166.691125 -37.55625 
L 166.691125 -37.55625 
L 170.31917 -37.55625 
L 170.31917 -37.55625 
L 173.947216 -37.55625 
L 173.947216 -37.55625 
L 177.575261 -37.55625 
L 177.575261 -37.55625 
L 181.203307 -37.55625 
L 181.203307 -37.55625 
L 184.831352 -37.55625 
L 184.831352 -37.55625 
L 188.459398 -37.55625 
L 188.459398 -37.55625 
L 192.087443 -37.55625 
L 192.087443 -37.55625 
L 195.715489 -37.55625 
L 195.715489 -37.55625 
L 199.343534 -37.55625 
L 199.343534 -37.55625 
L 202.97158 -37.55625 
L 202.97158 -37.55625 
L 206.599625 -37.55625 
L 206.599625 -37.55625 
L 210.22767 -37.55625 
L 210.22767 -37.55625 
L 213.855716 -37.55625 
L 213.855716 -37.55625 
L 217.483761 -37.55625 
L 217.483761 -37.55625 
L 221.111807 -37.55625 
L 221.111807 -37.55625 
L 224.739852 -37.55625 
L 224.739852 -37.55625 
L 228.367898 -37.55625 
L 228.367898 -37.55625 
L 231.995943 -37.55625 
L 231.995943 -37.55625 
L 235.623989 -37.55625 
L 235.623989 -37.55625 
L 239.252034 -37.55625 
L 239.252034 -37.55625 
L 242.88008 -37.55625 
L 242.88008 -37.55625 
L 246.508125 -37.55625 
L 246.508125 -37.55625 
L 250.13617 -37.55625 
L 250.13617 -37.55625 
L 253.764216 -37.55625 
L 253.764216 -37.55625 
L 257.392261 -37.55625 
L 257.392261 -37.55625 
L 261.020307 -37.55625 
L 261.020307 -37.55625 
L 264.648352 -37.55625 
L 264.648352 -37.55625 
L 268.276398 -37.55625 
L 268.276398 -37.55625 
L 271.904443 -37.55625 
L 271.904443 -37.55625 
L 275.532489 -37.55625 
L 275.532489 -37.55625 
L 279.160534 -37.55625 
L 279.160534 -37.55625 
L 282.78858 -37.55625 
L 282.78858 -37.55625 
L 286.416625 -37.55625 
L 286.416625 -37.55625 
L 290.04467 -37.55625 
L 290.04467 -37.55625 
L 293.672716 -37.55625 
L 293.672716 -37.55625 
L 297.300761 -37.55625 
L 297.300761 -37.55625 
L 300.928807 -37.55625 
L 300.928807 -37.55625 
L 304.556852 -37.55625 
L 304.556852 -37.55625 
L 308.184898 -37.55625 
L 308.184898 -37.55625 
L 311.812943 -37.55625 
L 311.812943 -37.55625 
L 315.440989 -37.55625 
L 315.440989 -37.55625 
L 319.069034 -37.55625 
L 319.069034 -37.55625 
L 322.69708 -37.55625 
L 322.69708 -37.55625 
L 326.325125 -37.55625 
L 326.325125 -37.55625 
L 329.95317 -37.55625 
L 329.95317 -37.55625 
L 333.581216 -37.55625 
L 333.581216 -37.55625 
L 337.209261 -37.55625 
L 337.209261 -37.55625 
L 340.837307 -37.55625 
L 340.837307 -37.55625 
L 344.465352 -37.55625 
L 344.465352 -37.55625 
L 348.093398 -37.55625 
L 348.093398 -37.55625 
L 351.721443 -37.55625 
L 351.721443 -37.55625 
L 355.349489 -37.55625 
L 355.349489 -37.55625 
L 358.977534 -37.55625 
L 358.977534 -37.55625 
L 362.60558 -37.55625 
L 362.60558 -37.55625 
L 366.233625 -37.55625 
L 366.233625 -37.55625 
L 369.86167 -37.55625 
L 369.86167 -37.55625 
L 373.489716 -37.55625 
L 373.489716 -37.55625 
L 377.117761 -37.55625 
L 377.117761 -37.55625 
L 380.745807 -37.55625 
L 380.745807 -37.55625 
L 384.373852 -37.55625 
L 384.373852 -37.55625 
L 388.001898 -37.55625 
L 388.001898 -37.55625 
L 391.629943 -37.55625 
L 391.629943 -37.55625 
L 395.257989 -37.55625 
L 395.257989 -37.55625 
L 398.886034 -37.55625 
L 398.886034 -37.55625 
L 402.51408 -37.55625 
L 402.51408 -37.55625 
L 406.142125 -37.55625 
L 406.142125 -37.55625 
L 409.77017 -37.55625 
L 409.77017 -37.55625 
L 413.398216 -37.55625 
L 413.398216 -37.55625 
L 417.026261 -37.55625 
L 417.026261 -37.55625 
L 420.654307 -37.55625 
L 420.654307 -37.55625 
L 424.282352 -37.55625 
L 424.282352 -37.55625 
L 427.910398 -37.55625 
L 427.910398 -37.55625 
L 427.910398 -72.278147 
L 427.910398 -72.278147 
L 427.910398 -72.278147 
L 424.282352 -72.278147 
L 424.282352 -111.480289 
L 420.654307 -111.480289 
L 420.654307 -146.202186 
L 417.026261 -146.202186 
L 417.026261 -173.083655 
L 413.398216 -173.083655 
L 413.398216 -224.60647 
L 409.77017 -224.60647 
L 409.77017 -230.206776 
L 406.142125 -230.206776 
L 406.142125 -276.129285 
L 402.51408 -276.129285 
L 402.51408 -292.930203 
L 398.886034 -292.930203 
L 398.886034 -307.490999 
L 395.257989 -307.490999 
L 395.257989 -315.331427 
L 391.629943 -315.331427 
L 391.629943 -316.451488 
L 388.001898 -316.451488 
L 388.001898 -303.010754 
L 384.373852 -303.010754 
L 384.373852 -298.530509 
L 380.745807 -298.530509 
L 380.745807 -310.851182 
L 377.117761 -310.851182 
L 377.117761 -281.729591 
L 373.489716 -281.729591 
L 373.489716 -289.570019 
L 369.86167 -289.570019 
L 369.86167 -259.328367 
L 366.233625 -259.328367 
L 366.233625 -286.209836 
L 362.60558 -286.209836 
L 362.60558 -288.449958 
L 358.977534 -288.449958 
L 358.977534 -307.490999 
L 355.349489 -307.490999 
L 355.349489 -307.490999 
L 351.721443 -307.490999 
L 351.721443 -294.050264 
L 348.093398 -294.050264 
L 348.093398 -270.528979 
L 344.465352 -270.528979 
L 344.465352 -283.969713 
L 340.837307 -283.969713 
L 340.837307 -250.367877 
L 337.209261 -250.367877 
L 337.209261 -282.849652 
L 333.581216 -282.849652 
L 333.581216 -287.329897 
L 329.95317 -287.329897 
L 329.95317 -267.168795 
L 326.325125 -267.168795 
L 326.325125 -283.969713 
L 322.69708 -283.969713 
L 322.69708 -250.367877 
L 319.069034 -250.367877 
L 319.069034 -255.968183 
L 315.440989 -255.968183 
L 315.440989 -278.369407 
L 311.812943 -278.369407 
L 311.812943 -261.568489 
L 308.184898 -261.568489 
L 308.184898 -287.329897 
L 304.556852 -287.329897 
L 304.556852 -249.247816 
L 300.928807 -249.247816 
L 300.928807 -222.366348 
L 297.300761 -222.366348 
L 297.300761 -254.848122 
L 293.672716 -254.848122 
L 293.672716 -222.366348 
L 290.04467 -222.366348 
L 290.04467 -205.56543 
L 286.416625 -205.56543 
L 286.416625 -221.246286 
L 282.78858 -221.246286 
L 282.78858 -221.246286 
L 279.160534 -221.246286 
L 279.160534 -185.404328 
L 275.532489 -185.404328 
L 275.532489 -179.804022 
L 271.904443 -179.804022 
L 271.904443 -197.725001 
L 268.276398 -197.725001 
L 268.276398 -166.363288 
L 264.648352 -166.363288 
L 264.648352 -159.64292 
L 261.020307 -159.64292 
L 261.020307 -151.802492 
L 257.392261 -151.802492 
L 257.392261 -157.402798 
L 253.764216 -157.402798 
L 253.764216 -137.241697 
L 250.13617 -137.241697 
L 250.13617 -124.921023 
L 246.508125 -124.921023 
L 246.508125 -156.282737 
L 242.88008 -156.282737 
L 242.88008 -84.59882 
L 239.252034 -84.59882 
L 239.252034 -68.917964 
L 235.623989 -68.917964 
L 235.623989 -56.59729 
L 231.995943 -56.59729 
L 231.995943 -53.237107 
L 228.367898 -53.237107 
L 228.367898 -47.636801 
L 224.739852 -47.636801 
L 224.739852 -40.916434 
L 221.111807 -40.916434 
L 221.111807 -48.756862 
L 217.483761 -48.756862 
L 217.483761 -38.676311 
L 213.855716 -38.676311 
L 213.855716 -39.796372 
L 210.22767 -39.796372 
L 210.22767 -38.676311 
L 206.599625 -38.676311 
L 206.599625 -39.796372 
L 202.97158 -39.796372 
L 202.97158 -40.916434 
L 199.343534 -40.916434 
L 199.343534 -38.676311 
L 195.715489 -38.676311 
L 195.715489 -37.55625 
L 192.087443 -37.55625 
L 192.087443 -38.676311 
L 188.459398 -38.676311 
L 188.459398 -37.55625 
L 184.831352 -37.55625 
L 184.831352 -37.55625 
L 181.203307 -37.55625 
L 181.203307 -37.55625 
L 177.575261 -37.55625 
L 177.575261 -37.55625 
L 173.947216 -37.55625 
L 173.947216 -37.55625 
L 170.31917 -37.55625 
L 170.31917 -37.55625 
L 166.691125 -37.55625 
L 166.691125 -37.55625 
L 163.06308 -37.55625 
L 163.06308 -37.55625 
L 159.435034 -37.55625 
L 159.435034 -37.55625 
L 155.806989 -37.55625 
L 155.806989 -37.55625 
L 152.178943 -37.55625 
L 152.178943 -37.55625 
L 148.550898 -37.55625 
L 148.550898 -37.55625 
L 144.922852 -37.55625 
L 144.922852 -37.55625 
L 141.294807 -37.55625 
L 141.294807 -37.55625 
L 137.666761 -37.55625 
L 137.666761 -37.55625 
L 134.038716 -37.55625 
L 134.038716 -37.55625 
L 130.41067 -37.55625 
L 130.41067 -37.55625 
L 126.782625 -37.55625 
L 126.782625 -37.55625 
L 123.15458 -37.55625 
L 123.15458 -37.55625 
L 119.526534 -37.55625 
L 119.526534 -37.55625 
L 115.898489 -37.55625 
L 115.898489 -37.55625 
L 112.270443 -37.55625 
L 112.270443 -37.55625 
L 108.642398 -37.55625 
L 108.642398 -37.55625 
L 105.014352 -37.55625 
L 105.014352 -37.55625 
L 101.386307 -37.55625 
L 101.386307 -37.55625 
L 97.758261 -37.55625 
L 97.758261 -37.55625 
L 94.130216 -37.55625 
L 94.130216 -37.55625 
L 90.50217 -37.55625 
L 90.50217 -37.55625 
L 86.874125 -37.55625 
L 86.874125 -37.55625 
L 83.24608 -37.55625 
L 83.24608 -37.55625 
L 79.618034 -37.55625 
L 79.618034 -37.55625 
L 75.989989 -37.55625 
L 75.989989 -37.55625 
L 72.361943 -37.55625 
L 72.361943 -37.55625 
L 68.733898 -37.55625 
L 68.733898 -37.55625 
L 65.105852 -37.55625 
z
" style="stroke: #daa520"/>
    </defs>
    <g clip-path="url(#pe06344c5e2)">
     <use xlink:href="#m849b46dcd7" x="0" y="352.714375" style="fill: #daa520; fill-opacity: 0.3; stroke: #daa520"/>
    </g>
   </g>
   <g id="matplotlib.axis_1">
    <g id="xtick_1">
     <g id="line2d_1">
      <defs>
       <path id="m8305d68f7a" d="M 0 0 
L 0 3.5 
" style="stroke: #000000; stroke-width: 0.8"/>
      </defs>
      <g>
       <use xlink:href="#m8305d68f7a" x="65.105852" y="315.158125" style="stroke: #000000; stroke-width: 0.8"/>
      </g>
     </g>
     <g id="text_1">
      <!-- −1.00 -->
      <g transform="translate(49.783196 329.756562) scale(0.1 -0.1)">
       <defs>
        <path id="DejaVuSans-2212" d="M 678 2272 
L 4684 2272 
L 4684 1741 
L 678 1741 
L 678 2272 
z
" transform="scale(0.015625)"/>
        <path id="DejaVuSans-31" d="M 794 531 
L 1825 531 
L 1825 4091 
L 703 3866 
L 703 4441 
L 1819 4666 
L 2450 4666 
L 2450 531 
L 3481 531 
L 3481 0 
L 794 0 
L 794 531 
z
" transform="scale(0.015625)"/>
        <path id="DejaVuSans-2e" d="M 684 794 
L 1344 794 
L 1344 0 
L 684 0 
L 684 794 
z
" transform="scale(0.015625)"/>
        <path id="DejaVuSans-30" d="M 2034 4250 
Q 1547 4250 1301 3770 
Q 1056 3291 1056 2328 
Q 1056 1369 1301 889 
Q 1547 409 2034 409 
Q 2525 409 2770 889 
Q 3016 1369 3016 2328 
Q 3016 3291 2770 3770 
Q 2525 4250 2034 4250 
z
M 2034 4750 
Q 2819 4750 3233 4129 
Q 3647 3509 3647 2328 
Q 3647 1150 3233 529 
Q 2819 -91 2034 -91 
Q 1250 -91 836 529 
Q 422 1150 422 2328 
Q 422 3509 836 4129 
Q 1250 4750 2034 4750 
z
" transform="scale(0.015625)"/>
       </defs>
       <use xlink:href="#DejaVuSans-2212"/>
       <use xlink:href="#DejaVuSans-31" transform="translate(83.789062 0)"/>
       <use xlink:href="#DejaVuSans-2e" transform="translate(147.412109 0)"/>
       <use xlink:href="#DejaVuSans-30" transform="translate(179.199219 0)"/>
       <use xlink:href="#DejaVuSans-30" transform="translate(242.822266 0)"/>
      </g>
     </g>
    </g>
    <g id="xtick_2">
     <g id="line2d_2">
      <g>
       <use xlink:href="#m8305d68f7a" x="110.45642" y="315.158125" style="stroke: #000000; stroke-width: 0.8"/>
      </g>
     </g>
     <g id="text_2">
      <!-- −0.75 -->
      <g transform="translate(95.133764 329.756562) scale(0.1 -0.1)">
       <defs>
        <path id="DejaVuSans-37" d="M 525 4666 
L 3525 4666 
L 3525 4397 
L 1831 0 
L 1172 0 
L 2766 4134 
L 525 4134 
L 525 4666 
z
" transform="scale(0.015625)"/>
        <path id="DejaVuSans-35" d="M 691 4666 
L 3169 4666 
L 3169 4134 
L 1269 4134 
L 1269 2991 
Q 1406 3038 1543 3061 
Q 1681 3084 1819 3084 
Q 2600 3084 3056 2656 
Q 3513 2228 3513 1497 
Q 3513 744 3044 326 
Q 2575 -91 1722 -91 
Q 1428 -91 1123 -41 
Q 819 9 494 109 
L 494 744 
Q 775 591 1075 516 
Q 1375 441 1709 441 
Q 2250 441 2565 725 
Q 2881 1009 2881 1497 
Q 2881 1984 2565 2268 
Q 2250 2553 1709 2553 
Q 1456 2553 1204 2497 
Q 953 2441 691 2322 
L 691 4666 
z
" transform="scale(0.015625)"/>
       </defs>
       <use xlink:href="#DejaVuSans-2212"/>
       <use xlink:href="#DejaVuSans-30" transform="translate(83.789062 0)"/>
       <use xlink:href="#DejaVuSans-2e" transform="translate(147.412109 0)"/>
       <use xlink:href="#DejaVuSans-37" transform="translate(179.199219 0)"/>
       <use xlink:href="#DejaVuSans-35" transform="translate(242.822266 0)"/>
      </g>
     </g>
    </g>
    <g id="xtick_3">
     <g id="line2d_3">
      <g>
       <use xlink:href="#m8305d68f7a" x="155.806989" y="315.158125" style="stroke: #000000; stroke-width: 0.8"/>
      </g>
     </g>
     <g id="text_3">
      <!-- −0.50 -->
      <g transform="translate(140.484332 329.756562) scale(0.1 -0.1)">
       <use xlink:href="#DejaVuSans-2212"/>
       <use xlink:href="#DejaVuSans-30" transform="translate(83.789062 0)"/>
       <use xlink:href="#DejaVuSans-2e" transform="translate(147.412109 0)"/>
       <use xlink:href="#DejaVuSans-35" transform="translate(179.199219 0)"/>
       <use xlink:href="#DejaVuSans-30" transform="translate(242.822266 0)"/>
      </g>
     </g>
    </g>
    <g id="xtick_4">
     <g id="line2d_4">
      <g>
       <use xlink:href="#m8305d68f7a" x="201.157557" y="315.158125" style="stroke: #000000; stroke-width: 0.8"/>
      </g>
     </g>
     <g id="text_4">
      <!-- −0.25 -->
      <g transform="translate(185.834901 329.756562) scale(0.1 -0.1)">
       <defs>
        <path id="DejaVuSans-32" d="M 1228 531 
L 3431 531 
L 3431 0 
L 469 0 
L 469 531 
Q 828 903 1448 1529 
Q 2069 2156 2228 2338 
Q 2531 2678 2651 2914 
Q 2772 3150 2772 3378 
Q 2772 3750 2511 3984 
Q 2250 4219 1831 4219 
Q 1534 4219 1204 4116 
Q 875 4013 500 3803 
L 500 4441 
Q 881 4594 1212 4672 
Q 1544 4750 1819 4750 
Q 2544 4750 2975 4387 
Q 3406 4025 3406 3419 
Q 3406 3131 3298 2873 
Q 3191 2616 2906 2266 
Q 2828 2175 2409 1742 
Q 1991 1309 1228 531 
z
" transform="scale(0.015625)"/>
       </defs>
       <use xlink:href="#DejaVuSans-2212"/>
       <use xlink:href="#DejaVuSans-30" transform="translate(83.789062 0)"/>
       <use xlink:href="#DejaVuSans-2e" transform="translate(147.412109 0)"/>
       <use xlink:href="#DejaVuSans-32" transform="translate(179.199219 0)"/>
       <use xlink:href="#DejaVuSans-35" transform="translate(242.822266 0)"/>
      </g>
     </g>
    </g>
    <g id="xtick_5">
     <g id="line2d_5">
      <g>
       <use xlink:href="#m8305d68f7a" x="246.508125" y="315.158125" style="stroke: #000000; stroke-width: 0.8"/>
      </g>
     </g>
     <g id="text_5">
      <!-- 0.00 -->
      <g transform="translate(235.375313 329.756562) scale(0.1 -0.1)">
       <use xlink:href="#DejaVuSans-30"/>
       <use xlink:href="#DejaVuSans-2e" transform="translate(63.623047 0)"/>
       <use xlink:href="#DejaVuSans-30" transform="translate(95.410156 0)"/>
       <use xlink:href="#DejaVuSans-30" transform="translate(159.033203 0)"/>
      </g>
     </g>
    </g>
    <g id="xtick_6">
     <g id="line2d_6">
      <g>
       <use xlink:href="#m8305d68f7a" x="291.858693" y="315.158125" style="stroke: #000000; stroke-width: 0.8"/>
      </g>
     </g>
     <g id="text_6">
      <!-- 0.25 -->
      <g transform="translate(280.725881 329.756562) scale(0.1 -0.1)">
       <use xlink:href="#DejaVuSans-30"/>
       <use xlink:href="#DejaVuSans-2e" transform="translate(63.623047 0)"/>
       <use xlink:href="#DejaVuSans-32" transform="translate(95.410156 0)"/>
       <use xlink:href="#DejaVuSans-35" transform="translate(159.033203 0)"/>
      </g>
     </g>
    </g>
    <g id="xtick_7">
     <g id="line2d_7">
      <g>
       <use xlink:href="#m8305d68f7a" x="337.209261" y="315.158125" style="stroke: #000000; stroke-width: 0.8"/>
      </g>
     </g>
     <g id="text_7">
      <!-- 0.50 -->
      <g transform="translate(326.076449 329.756562) scale(0.1 -0.1)">
       <use xlink:href="#DejaVuSans-30"/>
       <use xlink:href="#DejaVuSans-2e" transform="translate(63.623047 0)"/>
       <use xlink:href="#DejaVuSans-35" transform="translate(95.410156 0)"/>
       <use xlink:href="#DejaVuSans-30" transform="translate(159.033203 0)"/>
      </g>
     </g>
    </g>
    <g id="xtick_8">
     <g id="line2d_8">
      <g>
       <use xlink:href="#m8305d68f7a" x="382.55983" y="315.158125" style="stroke: #000000; stroke-width: 0.8"/>
      </g>
     </g>
     <g id="text_8">
      <!-- 0.75 -->
      <g transform="translate(371.427017 329.756562) scale(0.1 -0.1)">
       <use xlink:href="#DejaVuSans-30"/>
       <use xlink:href="#DejaVuSans-2e" transform="translate(63.623047 0)"/>
       <use xlink:href="#DejaVuSans-37" transform="translate(95.410156 0)"/>
       <use xlink:href="#DejaVuSans-35" transform="translate(159.033203 0)"/>
      </g>
     </g>
    </g>
    <g id="xtick_9">
     <g id="line2d_9">
      <g>
       <use xlink:href="#m8305d68f7a" x="427.910398" y="315.158125" style="stroke: #000000; stroke-width: 0.8"/>
      </g>
     </g>
     <g id="text_9">
      <!-- 1.00 -->
      <g transform="translate(416.777585 329.756562) scale(0.1 -0.1)">
       <use xlink:href="#DejaVuSans-31"/>
       <use xlink:href="#DejaVuSans-2e" transform="translate(63.623047 0)"/>
       <use xlink:href="#DejaVuSans-30" transform="translate(95.410156 0)"/>
       <use xlink:href="#DejaVuSans-30" transform="translate(159.033203 0)"/>
      </g>
     </g>
    </g>
    <g id="text_10">
     <!-- sc scores -->
     <g transform="translate(223.527656 343.434687) scale(0.1 -0.1)">
      <defs>
       <path id="DejaVuSans-73" d="M 2834 3397 
L 2834 2853 
Q 2591 2978 2328 3040 
Q 2066 3103 1784 3103 
Q 1356 3103 1142 2972 
Q 928 2841 928 2578 
Q 928 2378 1081 2264 
Q 1234 2150 1697 2047 
L 1894 2003 
Q 2506 1872 2764 1633 
Q 3022 1394 3022 966 
Q 3022 478 2636 193 
Q 2250 -91 1575 -91 
Q 1294 -91 989 -36 
Q 684 19 347 128 
L 347 722 
Q 666 556 975 473 
Q 1284 391 1588 391 
Q 1994 391 2212 530 
Q 2431 669 2431 922 
Q 2431 1156 2273 1281 
Q 2116 1406 1581 1522 
L 1381 1569 
Q 847 1681 609 1914 
Q 372 2147 372 2553 
Q 372 3047 722 3315 
Q 1072 3584 1716 3584 
Q 2034 3584 2315 3537 
Q 2597 3491 2834 3397 
z
" transform="scale(0.015625)"/>
       <path id="DejaVuSans-63" d="M 3122 3366 
L 3122 2828 
Q 2878 2963 2633 3030 
Q 2388 3097 2138 3097 
Q 1578 3097 1268 2742 
Q 959 2388 959 1747 
Q 959 1106 1268 751 
Q 1578 397 2138 397 
Q 2388 397 2633 464 
Q 2878 531 3122 666 
L 3122 134 
Q 2881 22 2623 -34 
Q 2366 -91 2075 -91 
Q 1284 -91 818 406 
Q 353 903 353 1747 
Q 353 2603 823 3093 
Q 1294 3584 2113 3584 
Q 2378 3584 2631 3529 
Q 2884 3475 3122 3366 
z
" transform="scale(0.015625)"/>
       <path id="DejaVuSans-20" transform="scale(0.015625)"/>
       <path id="DejaVuSans-6f" d="M 1959 3097 
Q 1497 3097 1228 2736 
Q 959 2375 959 1747 
Q 959 1119 1226 758 
Q 1494 397 1959 397 
Q 2419 397 2687 759 
Q 2956 1122 2956 1747 
Q 2956 2369 2687 2733 
Q 2419 3097 1959 3097 
z
M 1959 3584 
Q 2709 3584 3137 3096 
Q 3566 2609 3566 1747 
Q 3566 888 3137 398 
Q 2709 -91 1959 -91 
Q 1206 -91 779 398 
Q 353 888 353 1747 
Q 353 2609 779 3096 
Q 1206 3584 1959 3584 
z
" transform="scale(0.015625)"/>
       <path id="DejaVuSans-72" d="M 2631 2963 
Q 2534 3019 2420 3045 
Q 2306 3072 2169 3072 
Q 1681 3072 1420 2755 
Q 1159 2438 1159 1844 
L 1159 0 
L 581 0 
L 581 3500 
L 1159 3500 
L 1159 2956 
Q 1341 3275 1631 3429 
Q 1922 3584 2338 3584 
Q 2397 3584 2469 3576 
Q 2541 3569 2628 3553 
L 2631 2963 
z
" transform="scale(0.015625)"/>
       <path id="DejaVuSans-65" d="M 3597 1894 
L 3597 1613 
L 953 1613 
Q 991 1019 1311 708 
Q 1631 397 2203 397 
Q 2534 397 2845 478 
Q 3156 559 3463 722 
L 3463 178 
Q 3153 47 2828 -22 
Q 2503 -91 2169 -91 
Q 1331 -91 842 396 
Q 353 884 353 1716 
Q 353 2575 817 3079 
Q 1281 3584 2069 3584 
Q 2775 3584 3186 3129 
Q 3597 2675 3597 1894 
z
M 3022 2063 
Q 3016 2534 2758 2815 
Q 2500 3097 2075 3097 
Q 1594 3097 1305 2825 
Q 1016 2553 972 2059 
L 3022 2063 
z
" transform="scale(0.015625)"/>
      </defs>
      <use xlink:href="#DejaVuSans-73"/>
      <use xlink:href="#DejaVuSans-63" transform="translate(52.099609 0)"/>
      <use xlink:href="#DejaVuSans-20" transform="translate(107.080078 0)"/>
      <use xlink:href="#DejaVuSans-73" transform="translate(138.867188 0)"/>
      <use xlink:href="#DejaVuSans-63" transform="translate(190.966797 0)"/>
      <use xlink:href="#DejaVuSans-6f" transform="translate(245.947266 0)"/>
      <use xlink:href="#DejaVuSans-72" transform="translate(307.128906 0)"/>
      <use xlink:href="#DejaVuSans-65" transform="translate(345.992188 0)"/>
      <use xlink:href="#DejaVuSans-73" transform="translate(407.515625 0)"/>
     </g>
    </g>
   </g>
   <g id="matplotlib.axis_2">
    <g id="ytick_1">
     <g id="line2d_10">
      <defs>
       <path id="m403db4dd3e" d="M 0 0 
L -3.5 0 
" style="stroke: #000000; stroke-width: 0.8"/>
      </defs>
      <g>
       <use xlink:href="#m403db4dd3e" x="46.965625" y="315.158125" style="stroke: #000000; stroke-width: 0.8"/>
      </g>
     </g>
     <g id="text_11">
      <!-- 0 -->
      <g transform="translate(33.603125 318.957344) scale(0.1 -0.1)">
       <use xlink:href="#DejaVuSans-30"/>
      </g>
     </g>
    </g>
    <g id="ytick_2">
     <g id="line2d_11">
      <g>
       <use xlink:href="#m403db4dd3e" x="46.965625" y="259.155065" style="stroke: #000000; stroke-width: 0.8"/>
      </g>
     </g>
     <g id="text_12">
      <!-- 50 -->
      <g transform="translate(27.240625 262.954284) scale(0.1 -0.1)">
       <use xlink:href="#DejaVuSans-35"/>
       <use xlink:href="#DejaVuSans-30" transform="translate(63.623047 0)"/>
      </g>
     </g>
    </g>
    <g id="ytick_3">
     <g id="line2d_12">
      <g>
       <use xlink:href="#m403db4dd3e" x="46.965625" y="203.152005" style="stroke: #000000; stroke-width: 0.8"/>
      </g>
     </g>
     <g id="text_13">
      <!-- 100 -->
      <g transform="translate(20.878125 206.951224) scale(0.1 -0.1)">
       <use xlink:href="#DejaVuSans-31"/>
       <use xlink:href="#DejaVuSans-30" transform="translate(63.623047 0)"/>
       <use xlink:href="#DejaVuSans-30" transform="translate(127.246094 0)"/>
      </g>
     </g>
    </g>
    <g id="ytick_4">
     <g id="line2d_13">
      <g>
       <use xlink:href="#m403db4dd3e" x="46.965625" y="147.148945" style="stroke: #000000; stroke-width: 0.8"/>
      </g>
     </g>
     <g id="text_14">
      <!-- 150 -->
      <g transform="translate(20.878125 150.948164) scale(0.1 -0.1)">
       <use xlink:href="#DejaVuSans-31"/>
       <use xlink:href="#DejaVuSans-35" transform="translate(63.623047 0)"/>
       <use xlink:href="#DejaVuSans-30" transform="translate(127.246094 0)"/>
      </g>
     </g>
    </g>
    <g id="ytick_5">
     <g id="line2d_14">
      <g>
       <use xlink:href="#m403db4dd3e" x="46.965625" y="91.145886" style="stroke: #000000; stroke-width: 0.8"/>
      </g>
     </g>
     <g id="text_15">
      <!-- 200 -->
      <g transform="translate(20.878125 94.945104) scale(0.1 -0.1)">
       <use xlink:href="#DejaVuSans-32"/>
       <use xlink:href="#DejaVuSans-30" transform="translate(63.623047 0)"/>
       <use xlink:href="#DejaVuSans-30" transform="translate(127.246094 0)"/>
      </g>
     </g>
    </g>
    <g id="ytick_6">
     <g id="line2d_15">
      <g>
       <use xlink:href="#m403db4dd3e" x="46.965625" y="35.142826" style="stroke: #000000; stroke-width: 0.8"/>
      </g>
     </g>
     <g id="text_16">
      <!-- 250 -->
      <g transform="translate(20.878125 38.942044) scale(0.1 -0.1)">
       <use xlink:href="#DejaVuSans-32"/>
       <use xlink:href="#DejaVuSans-35" transform="translate(63.623047 0)"/>
       <use xlink:href="#DejaVuSans-30" transform="translate(127.246094 0)"/>
      </g>
     </g>
    </g>
    <g id="text_17">
     <!-- count -->
     <g transform="translate(14.798438 182.844375) rotate(-90) scale(0.1 -0.1)">
      <defs>
       <path id="DejaVuSans-75" d="M 544 1381 
L 544 3500 
L 1119 3500 
L 1119 1403 
Q 1119 906 1312 657 
Q 1506 409 1894 409 
Q 2359 409 2629 706 
Q 2900 1003 2900 1516 
L 2900 3500 
L 3475 3500 
L 3475 0 
L 2900 0 
L 2900 538 
Q 2691 219 2414 64 
Q 2138 -91 1772 -91 
Q 1169 -91 856 284 
Q 544 659 544 1381 
z
M 1991 3584 
L 1991 3584 
z
" transform="scale(0.015625)"/>
       <path id="DejaVuSans-6e" d="M 3513 2113 
L 3513 0 
L 2938 0 
L 2938 2094 
Q 2938 2591 2744 2837 
Q 2550 3084 2163 3084 
Q 1697 3084 1428 2787 
Q 1159 2491 1159 1978 
L 1159 0 
L 581 0 
L 581 3500 
L 1159 3500 
L 1159 2956 
Q 1366 3272 1645 3428 
Q 1925 3584 2291 3584 
Q 2894 3584 3203 3211 
Q 3513 2838 3513 2113 
z
" transform="scale(0.015625)"/>
       <path id="DejaVuSans-74" d="M 1172 4494 
L 1172 3500 
L 2356 3500 
L 2356 3053 
L 1172 3053 
L 1172 1153 
Q 1172 725 1289 603 
Q 1406 481 1766 481 
L 2356 481 
L 2356 0 
L 1766 0 
Q 1100 0 847 248 
Q 594 497 594 1153 
L 594 3053 
L 172 3053 
L 172 3500 
L 594 3500 
L 594 4494 
L 1172 4494 
z
" transform="scale(0.015625)"/>
      </defs>
      <use xlink:href="#DejaVuSans-63"/>
      <use xlink:href="#DejaVuSans-6f" transform="translate(54.980469 0)"/>
      <use xlink:href="#DejaVuSans-75" transform="translate(116.162109 0)"/>
      <use xlink:href="#DejaVuSans-6e" transform="translate(179.541016 0)"/>
      <use xlink:href="#DejaVuSans-74" transform="translate(242.919922 0)"/>
     </g>
    </g>
   </g>
   <g id="line2d_16">
    <path d="M 162.698081 314.604354 
L 172.000586 314.192804 
L 177.316302 314.163777 
L 191.934524 314.35813 
L 198.57917 314.029057 
L 207.881674 313.418465 
L 210.539533 313.086228 
L 213.197391 312.53263 
L 215.855249 311.647954 
L 217.184179 311.046315 
L 218.513108 310.318775 
L 219.842037 309.44868 
L 221.170966 308.416393 
L 222.499895 307.19778 
L 223.828825 305.762726 
L 225.157754 304.074015 
L 226.486683 302.086993 
L 227.815612 299.75039 
L 229.144542 297.008623 
L 230.473471 293.805685 
L 231.8024 290.090464 
L 233.131329 285.823039 
L 234.460258 280.981207 
L 235.789188 275.5663 
L 238.447046 263.162437 
L 241.104904 249.181998 
L 246.420621 220.265889 
L 249.07848 207.184704 
L 251.736338 195.778379 
L 253.065267 190.75244 
L 254.394196 186.170907 
L 255.723126 182.018011 
L 257.052055 178.2765 
L 258.380984 174.931843 
L 259.709913 171.974498 
L 261.038843 169.400049 
L 262.367772 167.20741 
L 263.696701 165.395577 
L 265.02563 163.959651 
L 266.354559 162.886893 
L 267.683489 162.153603 
L 269.012418 161.7234 
L 270.341347 161.547278 
L 271.670276 161.565495 
L 278.314922 162.231567 
L 279.643851 162.076264 
L 280.972781 161.741277 
L 282.30171 161.217926 
L 283.630639 160.509681 
L 284.959568 159.629715 
L 287.617427 157.43908 
L 290.275285 154.842373 
L 303.564577 141.119675 
L 307.551365 136.997487 
L 310.209223 133.887464 
L 312.867082 130.432089 
L 318.182799 123.297113 
L 319.511728 121.733306 
L 320.840657 120.35321 
L 322.169586 119.190209 
L 323.498515 118.262103 
L 324.827445 117.568594 
L 326.156374 117.090817 
L 327.485303 116.793081 
L 330.143161 116.535388 
L 332.80102 116.353988 
L 335.458878 115.885992 
L 338.116737 114.988879 
L 340.774595 113.756246 
L 346.090312 111.1374 
L 355.392816 107.053933 
L 358.050675 105.535947 
L 360.708533 103.73197 
L 363.366392 101.579955 
L 366.02425 98.969046 
L 368.682108 95.769451 
L 371.339967 91.901598 
L 373.997825 87.386275 
L 376.655684 82.343498 
L 384.629259 66.344429 
L 385.958188 64.027704 
L 387.287117 61.993045 
L 388.616047 60.330409 
L 389.944976 59.135421 
L 391.273905 58.505473 
L 392.602834 58.535339 
L 393.931763 59.312737 
L 395.260693 60.914205 
L 396.589622 63.401557 
L 397.918551 66.819076 
L 399.24748 71.191533 
L 400.57641 76.523061 
L 401.905339 82.796897 
L 403.234268 89.975991 
L 404.563197 98.004441 
L 407.221056 116.305367 
L 409.878914 136.972937 
L 413.865702 170.562121 
L 419.181418 215.765481 
L 421.839277 236.814524 
L 424.497135 255.906057 
L 427.154994 272.451941 
L 427.154994 272.451941 
" clip-path="url(#pe06344c5e2)" style="fill: none; stroke: #2f4f4f; stroke-width: 1.5; stroke-linecap: square"/>
   </g>
   <g id="line2d_17">
    <path d="M 162.698081 315.157753 
L 178.645232 315.072012 
L 185.289878 314.839236 
L 191.934524 314.349657 
L 203.894887 313.098422 
L 207.881674 312.570507 
L 210.539533 312.048337 
L 213.197391 311.298679 
L 215.855249 310.249748 
L 218.513108 308.826034 
L 219.842037 307.941763 
L 221.170966 306.91801 
L 222.499895 305.729844 
L 223.828825 304.34641 
L 225.157754 302.730973 
L 226.486683 300.841698 
L 227.815612 298.633332 
L 229.144542 296.059935 
L 230.473471 293.078699 
L 231.8024 289.654751 
L 233.131329 285.766563 
L 234.460258 281.411345 
L 237.118117 271.407582 
L 239.775975 260.115166 
L 245.091692 237.020634 
L 247.74955 226.869022 
L 250.407409 218.207813 
L 253.065267 210.915542 
L 255.723126 204.575866 
L 266.354559 180.657801 
L 274.328135 162.083595 
L 279.643851 150.434742 
L 284.959568 139.439352 
L 291.604214 125.726999 
L 295.591002 116.897746 
L 302.235648 101.724712 
L 304.893506 96.454592 
L 306.222436 94.225154 
L 307.551365 92.32688 
L 308.880294 90.780763 
L 310.209223 89.58232 
L 311.538152 88.700278 
L 312.867082 88.078879 
L 315.52494 87.310137 
L 318.182799 86.619518 
L 319.511728 86.132098 
L 320.840657 85.500282 
L 323.498515 83.81373 
L 328.814232 79.91746 
L 330.143161 79.139403 
L 331.472091 78.502561 
L 334.129949 77.602065 
L 338.116737 76.465821 
L 339.445666 75.886225 
L 340.774595 75.111604 
L 342.103524 74.111501 
L 343.432454 72.880611 
L 346.090312 69.83876 
L 350.0771 64.83068 
L 351.406029 63.399145 
L 352.734958 62.234841 
L 354.063887 61.406088 
L 355.392816 60.956729 
L 356.721746 60.900731 
L 358.050675 61.219367 
L 359.379604 61.861458 
L 360.708533 62.746894 
L 364.695321 65.783389 
L 366.02425 66.539103 
L 367.353179 67.000489 
L 368.682108 67.102248 
L 370.011038 66.809903 
L 371.339967 66.120841 
L 372.668896 65.061801 
L 373.997825 63.683447 
L 375.326755 62.053071 
L 377.984613 58.342399 
L 381.971401 52.753393 
L 383.30033 51.138837 
L 384.629259 49.741828 
L 385.958188 48.617997 
L 387.287117 47.826271 
L 388.616047 47.430001 
L 389.944976 47.496627 
L 391.273905 48.095997 
L 392.602834 49.297626 
L 393.931763 51.167316 
L 395.260693 53.763503 
L 396.589622 57.133705 
L 397.918551 61.311377 
L 399.24748 66.313471 
L 400.57641 72.138997 
L 401.905339 78.768823 
L 403.234268 86.166833 
L 405.892126 103.05367 
L 408.549985 122.28379 
L 411.207843 143.278101 
L 415.194631 176.822908 
L 420.510348 222.18076 
L 423.168206 243.461097 
L 425.826064 262.652233 
L 427.154994 271.205835 
L 427.154994 271.205835 
" clip-path="url(#pe06344c5e2)" style="fill: none; stroke: #daa520; stroke-width: 1.5; stroke-linecap: square"/>
   </g>
   <g id="line2d_18">
    <path d="M 343.038908 315.158125 
L 343.038908 22.318125 
" clip-path="url(#pe06344c5e2)" style="fill: none; stroke-dasharray: 5.55,2.4; stroke-dashoffset: 0; stroke: #daa520; stroke-width: 1.5"/>
   </g>
   <g id="line2d_19">
    <path d="M 342.919536 315.158125 
L 342.919536 22.318125 
" clip-path="url(#pe06344c5e2)" style="fill: none; stroke-dasharray: 5.55,2.4; stroke-dashoffset: 0; stroke: #2f4f4f; stroke-width: 1.5"/>
   </g>
   <g id="line2d_20">
    <path d="M 342.979222 315.158125 
L 342.979222 22.318125 
" clip-path="url(#pe06344c5e2)" style="fill: none; stroke: #ff0000; stroke-width: 2; stroke-linecap: square"/>
   </g>
   <g id="patch_3">
    <path d="M 46.965625 315.158125 
L 46.965625 22.318125 
" style="fill: none; stroke: #000000; stroke-width: 0.8; stroke-linejoin: miter; stroke-linecap: square"/>
   </g>
   <g id="patch_4">
    <path d="M 446.050625 315.158125 
L 446.050625 22.318125 
" style="fill: none; stroke: #000000; stroke-width: 0.8; stroke-linejoin: miter; stroke-linecap: square"/>
   </g>
   <g id="patch_5">
    <path d="M 46.965625 315.158125 
L 446.050625 315.158125 
" style="fill: none; stroke: #000000; stroke-width: 0.8; stroke-linejoin: miter; stroke-linecap: square"/>
   </g>
   <g id="patch_6">
    <path d="M 46.965625 22.318125 
L 446.050625 22.318125 
" style="fill: none; stroke: #000000; stroke-width: 0.8; stroke-linejoin: miter; stroke-linecap: square"/>
   </g>
   <g id="text_18">
    <!-- Sc Score Distribution for 2SNI -->
    <g transform="translate(157.831875 16.318125) scale(0.12 -0.12)">
     <defs>
      <path id="DejaVuSans-53" d="M 3425 4513 
L 3425 3897 
Q 3066 4069 2747 4153 
Q 2428 4238 2131 4238 
Q 1616 4238 1336 4038 
Q 1056 3838 1056 3469 
Q 1056 3159 1242 3001 
Q 1428 2844 1947 2747 
L 2328 2669 
Q 3034 2534 3370 2195 
Q 3706 1856 3706 1288 
Q 3706 609 3251 259 
Q 2797 -91 1919 -91 
Q 1588 -91 1214 -16 
Q 841 59 441 206 
L 441 856 
Q 825 641 1194 531 
Q 1563 422 1919 422 
Q 2459 422 2753 634 
Q 3047 847 3047 1241 
Q 3047 1584 2836 1778 
Q 2625 1972 2144 2069 
L 1759 2144 
Q 1053 2284 737 2584 
Q 422 2884 422 3419 
Q 422 4038 858 4394 
Q 1294 4750 2059 4750 
Q 2388 4750 2728 4690 
Q 3069 4631 3425 4513 
z
" transform="scale(0.015625)"/>
      <path id="DejaVuSans-44" d="M 1259 4147 
L 1259 519 
L 2022 519 
Q 2988 519 3436 956 
Q 3884 1394 3884 2338 
Q 3884 3275 3436 3711 
Q 2988 4147 2022 4147 
L 1259 4147 
z
M 628 4666 
L 1925 4666 
Q 3281 4666 3915 4102 
Q 4550 3538 4550 2338 
Q 4550 1131 3912 565 
Q 3275 0 1925 0 
L 628 0 
L 628 4666 
z
" transform="scale(0.015625)"/>
      <path id="DejaVuSans-69" d="M 603 3500 
L 1178 3500 
L 1178 0 
L 603 0 
L 603 3500 
z
M 603 4863 
L 1178 4863 
L 1178 4134 
L 603 4134 
L 603 4863 
z
" transform="scale(0.015625)"/>
      <path id="DejaVuSans-62" d="M 3116 1747 
Q 3116 2381 2855 2742 
Q 2594 3103 2138 3103 
Q 1681 3103 1420 2742 
Q 1159 2381 1159 1747 
Q 1159 1113 1420 752 
Q 1681 391 2138 391 
Q 2594 391 2855 752 
Q 3116 1113 3116 1747 
z
M 1159 2969 
Q 1341 3281 1617 3432 
Q 1894 3584 2278 3584 
Q 2916 3584 3314 3078 
Q 3713 2572 3713 1747 
Q 3713 922 3314 415 
Q 2916 -91 2278 -91 
Q 1894 -91 1617 61 
Q 1341 213 1159 525 
L 1159 0 
L 581 0 
L 581 4863 
L 1159 4863 
L 1159 2969 
z
" transform="scale(0.015625)"/>
      <path id="DejaVuSans-66" d="M 2375 4863 
L 2375 4384 
L 1825 4384 
Q 1516 4384 1395 4259 
Q 1275 4134 1275 3809 
L 1275 3500 
L 2222 3500 
L 2222 3053 
L 1275 3053 
L 1275 0 
L 697 0 
L 697 3053 
L 147 3053 
L 147 3500 
L 697 3500 
L 697 3744 
Q 697 4328 969 4595 
Q 1241 4863 1831 4863 
L 2375 4863 
z
" transform="scale(0.015625)"/>
      <path id="DejaVuSans-4e" d="M 628 4666 
L 1478 4666 
L 3547 763 
L 3547 4666 
L 4159 4666 
L 4159 0 
L 3309 0 
L 1241 3903 
L 1241 0 
L 628 0 
L 628 4666 
z
" transform="scale(0.015625)"/>
      <path id="DejaVuSans-49" d="M 628 4666 
L 1259 4666 
L 1259 0 
L 628 0 
L 628 4666 
z
" transform="scale(0.015625)"/>
     </defs>
     <use xlink:href="#DejaVuSans-53"/>
     <use xlink:href="#DejaVuSans-63" transform="translate(63.476562 0)"/>
     <use xlink:href="#DejaVuSans-20" transform="translate(118.457031 0)"/>
     <use xlink:href="#DejaVuSans-53" transform="translate(150.244141 0)"/>
     <use xlink:href="#DejaVuSans-63" transform="translate(213.720703 0)"/>
     <use xlink:href="#DejaVuSans-6f" transform="translate(268.701172 0)"/>
     <use xlink:href="#DejaVuSans-72" transform="translate(329.882812 0)"/>
     <use xlink:href="#DejaVuSans-65" transform="translate(368.746094 0)"/>
     <use xlink:href="#DejaVuSans-20" transform="translate(430.269531 0)"/>
     <use xlink:href="#DejaVuSans-44" transform="translate(462.056641 0)"/>
     <use xlink:href="#DejaVuSans-69" transform="translate(539.058594 0)"/>
     <use xlink:href="#DejaVuSans-73" transform="translate(566.841797 0)"/>
     <use xlink:href="#DejaVuSans-74" transform="translate(618.941406 0)"/>
     <use xlink:href="#DejaVuSans-72" transform="translate(658.150391 0)"/>
     <use xlink:href="#DejaVuSans-69" transform="translate(699.263672 0)"/>
     <use xlink:href="#DejaVuSans-62" transform="translate(727.046875 0)"/>
     <use xlink:href="#DejaVuSans-75" transform="translate(790.523438 0)"/>
     <use xlink:href="#DejaVuSans-74" transform="translate(853.902344 0)"/>
     <use xlink:href="#DejaVuSans-69" transform="translate(893.111328 0)"/>
     <use xlink:href="#DejaVuSans-6f" transform="translate(920.894531 0)"/>
     <use xlink:href="#DejaVuSans-6e" transform="translate(982.076172 0)"/>
     <use xlink:href="#DejaVuSans-20" transform="translate(1045.455078 0)"/>
     <use xlink:href="#DejaVuSans-66" transform="translate(1077.242188 0)"/>
     <use xlink:href="#DejaVuSans-6f" transform="translate(1112.447266 0)"/>
     <use xlink:href="#DejaVuSans-72" transform="translate(1173.628906 0)"/>
     <use xlink:href="#DejaVuSans-20" transform="translate(1214.742188 0)"/>
     <use xlink:href="#DejaVuSans-32" transform="translate(1246.529297 0)"/>
     <use xlink:href="#DejaVuSans-53" transform="translate(1310.152344 0)"/>
     <use xlink:href="#DejaVuSans-4e" transform="translate(1373.628906 0)"/>
     <use xlink:href="#DejaVuSans-49" transform="translate(1448.433594 0)"/>
    </g>
   </g>
   <g id="legend_1">
    <g id="patch_7">
     <path d="M 53.965625 74.90875 
L 188.790625 74.90875 
Q 190.790625 74.90875 190.790625 72.90875 
L 190.790625 29.318125 
Q 190.790625 27.318125 188.790625 27.318125 
L 53.965625 27.318125 
Q 51.965625 27.318125 51.965625 29.318125 
L 51.965625 72.90875 
Q 51.965625 74.90875 53.965625 74.90875 
z
" style="fill: #ffffff; opacity: 0.8; stroke: #cccccc; stroke-linejoin: miter"/>
    </g>
    <g id="line2d_21">
     <path d="M 55.965625 35.416562 
L 65.965625 35.416562 
L 75.965625 35.416562 
" style="fill: none; stroke-dasharray: 5.55,2.4; stroke-dashoffset: 0; stroke: #daa520; stroke-width: 1.5"/>
    </g>
    <g id="text_19">
     <!-- 2SNI_E Median: 0.53 -->
     <g transform="translate(83.965625 38.916562) scale(0.1 -0.1)">
      <defs>
       <path id="DejaVuSans-5f" d="M 3263 -1063 
L 3263 -1509 
L -63 -1509 
L -63 -1063 
L 3263 -1063 
z
" transform="scale(0.015625)"/>
       <path id="DejaVuSans-45" d="M 628 4666 
L 3578 4666 
L 3578 4134 
L 1259 4134 
L 1259 2753 
L 3481 2753 
L 3481 2222 
L 1259 2222 
L 1259 531 
L 3634 531 
L 3634 0 
L 628 0 
L 628 4666 
z
" transform="scale(0.015625)"/>
       <path id="DejaVuSans-4d" d="M 628 4666 
L 1569 4666 
L 2759 1491 
L 3956 4666 
L 4897 4666 
L 4897 0 
L 4281 0 
L 4281 4097 
L 3078 897 
L 2444 897 
L 1241 4097 
L 1241 0 
L 628 0 
L 628 4666 
z
" transform="scale(0.015625)"/>
       <path id="DejaVuSans-64" d="M 2906 2969 
L 2906 4863 
L 3481 4863 
L 3481 0 
L 2906 0 
L 2906 525 
Q 2725 213 2448 61 
Q 2172 -91 1784 -91 
Q 1150 -91 751 415 
Q 353 922 353 1747 
Q 353 2572 751 3078 
Q 1150 3584 1784 3584 
Q 2172 3584 2448 3432 
Q 2725 3281 2906 2969 
z
M 947 1747 
Q 947 1113 1208 752 
Q 1469 391 1925 391 
Q 2381 391 2643 752 
Q 2906 1113 2906 1747 
Q 2906 2381 2643 2742 
Q 2381 3103 1925 3103 
Q 1469 3103 1208 2742 
Q 947 2381 947 1747 
z
" transform="scale(0.015625)"/>
       <path id="DejaVuSans-61" d="M 2194 1759 
Q 1497 1759 1228 1600 
Q 959 1441 959 1056 
Q 959 750 1161 570 
Q 1363 391 1709 391 
Q 2188 391 2477 730 
Q 2766 1069 2766 1631 
L 2766 1759 
L 2194 1759 
z
M 3341 1997 
L 3341 0 
L 2766 0 
L 2766 531 
Q 2569 213 2275 61 
Q 1981 -91 1556 -91 
Q 1019 -91 701 211 
Q 384 513 384 1019 
Q 384 1609 779 1909 
Q 1175 2209 1959 2209 
L 2766 2209 
L 2766 2266 
Q 2766 2663 2505 2880 
Q 2244 3097 1772 3097 
Q 1472 3097 1187 3025 
Q 903 2953 641 2809 
L 641 3341 
Q 956 3463 1253 3523 
Q 1550 3584 1831 3584 
Q 2591 3584 2966 3190 
Q 3341 2797 3341 1997 
z
" transform="scale(0.015625)"/>
       <path id="DejaVuSans-3a" d="M 750 794 
L 1409 794 
L 1409 0 
L 750 0 
L 750 794 
z
M 750 3309 
L 1409 3309 
L 1409 2516 
L 750 2516 
L 750 3309 
z
" transform="scale(0.015625)"/>
       <path id="DejaVuSans-33" d="M 2597 2516 
Q 3050 2419 3304 2112 
Q 3559 1806 3559 1356 
Q 3559 666 3084 287 
Q 2609 -91 1734 -91 
Q 1441 -91 1130 -33 
Q 819 25 488 141 
L 488 750 
Q 750 597 1062 519 
Q 1375 441 1716 441 
Q 2309 441 2620 675 
Q 2931 909 2931 1356 
Q 2931 1769 2642 2001 
Q 2353 2234 1838 2234 
L 1294 2234 
L 1294 2753 
L 1863 2753 
Q 2328 2753 2575 2939 
Q 2822 3125 2822 3475 
Q 2822 3834 2567 4026 
Q 2313 4219 1838 4219 
Q 1578 4219 1281 4162 
Q 984 4106 628 3988 
L 628 4550 
Q 988 4650 1302 4700 
Q 1616 4750 1894 4750 
Q 2613 4750 3031 4423 
Q 3450 4097 3450 3541 
Q 3450 3153 3228 2886 
Q 3006 2619 2597 2516 
z
" transform="scale(0.015625)"/>
      </defs>
      <use xlink:href="#DejaVuSans-32"/>
      <use xlink:href="#DejaVuSans-53" transform="translate(63.623047 0)"/>
      <use xlink:href="#DejaVuSans-4e" transform="translate(127.099609 0)"/>
      <use xlink:href="#DejaVuSans-49" transform="translate(201.904297 0)"/>
      <use xlink:href="#DejaVuSans-5f" transform="translate(231.396484 0)"/>
      <use xlink:href="#DejaVuSans-45" transform="translate(281.396484 0)"/>
      <use xlink:href="#DejaVuSans-20" transform="translate(344.580078 0)"/>
      <use xlink:href="#DejaVuSans-4d" transform="translate(376.367188 0)"/>
      <use xlink:href="#DejaVuSans-65" transform="translate(462.646484 0)"/>
      <use xlink:href="#DejaVuSans-64" transform="translate(524.169922 0)"/>
      <use xlink:href="#DejaVuSans-69" transform="translate(587.646484 0)"/>
      <use xlink:href="#DejaVuSans-61" transform="translate(615.429688 0)"/>
      <use xlink:href="#DejaVuSans-6e" transform="translate(676.708984 0)"/>
      <use xlink:href="#DejaVuSans-3a" transform="translate(740.087891 0)"/>
      <use xlink:href="#DejaVuSans-20" transform="translate(773.779297 0)"/>
      <use xlink:href="#DejaVuSans-30" transform="translate(805.566406 0)"/>
      <use xlink:href="#DejaVuSans-2e" transform="translate(869.189453 0)"/>
      <use xlink:href="#DejaVuSans-35" transform="translate(900.976562 0)"/>
      <use xlink:href="#DejaVuSans-33" transform="translate(964.599609 0)"/>
     </g>
    </g>
    <g id="line2d_22">
     <path d="M 55.965625 50.372813 
L 65.965625 50.372813 
L 75.965625 50.372813 
" style="fill: none; stroke-dasharray: 5.55,2.4; stroke-dashoffset: 0; stroke: #2f4f4f; stroke-width: 1.5"/>
    </g>
    <g id="text_20">
     <!-- 2SNI_I Median: 0.53 -->
     <g transform="translate(83.965625 53.872813) scale(0.1 -0.1)">
      <use xlink:href="#DejaVuSans-32"/>
      <use xlink:href="#DejaVuSans-53" transform="translate(63.623047 0)"/>
      <use xlink:href="#DejaVuSans-4e" transform="translate(127.099609 0)"/>
      <use xlink:href="#DejaVuSans-49" transform="translate(201.904297 0)"/>
      <use xlink:href="#DejaVuSans-5f" transform="translate(231.396484 0)"/>
      <use xlink:href="#DejaVuSans-49" transform="translate(281.396484 0)"/>
      <use xlink:href="#DejaVuSans-20" transform="translate(310.888672 0)"/>
      <use xlink:href="#DejaVuSans-4d" transform="translate(342.675781 0)"/>
      <use xlink:href="#DejaVuSans-65" transform="translate(428.955078 0)"/>
      <use xlink:href="#DejaVuSans-64" transform="translate(490.478516 0)"/>
      <use xlink:href="#DejaVuSans-69" transform="translate(553.955078 0)"/>
      <use xlink:href="#DejaVuSans-61" transform="translate(581.738281 0)"/>
      <use xlink:href="#DejaVuSans-6e" transform="translate(643.017578 0)"/>
      <use xlink:href="#DejaVuSans-3a" transform="translate(706.396484 0)"/>
      <use xlink:href="#DejaVuSans-20" transform="translate(740.087891 0)"/>
      <use xlink:href="#DejaVuSans-30" transform="translate(771.875 0)"/>
      <use xlink:href="#DejaVuSans-2e" transform="translate(835.498047 0)"/>
      <use xlink:href="#DejaVuSans-35" transform="translate(867.285156 0)"/>
      <use xlink:href="#DejaVuSans-33" transform="translate(930.908203 0)"/>
     </g>
    </g>
    <g id="line2d_23">
     <path d="M 55.965625 65.329063 
L 65.965625 65.329063 
L 75.965625 65.329063 
" style="fill: none; stroke: #ff0000; stroke-width: 2; stroke-linecap: square"/>
    </g>
    <g id="text_21">
     <!-- Sc Score: 0.53 -->
     <g transform="translate(83.965625 68.829063) scale(0.1 -0.1)">
      <use xlink:href="#DejaVuSans-53"/>
      <use xlink:href="#DejaVuSans-63" transform="translate(63.476562 0)"/>
      <use xlink:href="#DejaVuSans-20" transform="translate(118.457031 0)"/>
      <use xlink:href="#DejaVuSans-53" transform="translate(150.244141 0)"/>
      <use xlink:href="#DejaVuSans-63" transform="translate(213.720703 0)"/>
      <use xlink:href="#DejaVuSans-6f" transform="translate(268.701172 0)"/>
      <use xlink:href="#DejaVuSans-72" transform="translate(329.882812 0)"/>
      <use xlink:href="#DejaVuSans-65" transform="translate(368.746094 0)"/>
      <use xlink:href="#DejaVuSans-3a" transform="translate(430.269531 0)"/>
      <use xlink:href="#DejaVuSans-20" transform="translate(463.960938 0)"/>
      <use xlink:href="#DejaVuSans-30" transform="translate(495.748047 0)"/>
      <use xlink:href="#DejaVuSans-2e" transform="translate(559.371094 0)"/>
      <use xlink:href="#DejaVuSans-35" transform="translate(591.158203 0)"/>
      <use xlink:href="#DejaVuSans-33" transform="translate(654.78125 0)"/>
     </g>
    </g>
   </g>
  </g>
 </g>
 <defs>
  <clipPath id="pe06344c5e2">
   <rect x="46.965625" y="22.318125" width="399.085" height="292.84"/>
  </clipPath>
 </defs>
</svg>
