<?xml version="1.0" encoding="utf-8" standalone="no"?>
<!DOCTYPE svg PUBLIC "-//W3C//DTD SVG 1.1//EN"
  "http://www.w3.org/Graphics/SVG/1.1/DTD/svg11.dtd">
<svg xmlns:xlink="http://www.w3.org/1999/xlink" width="453.250625pt" height="352.714375pt" viewBox="0 0 453.250625 352.714375" xmlns="http://www.w3.org/2000/svg" version="1.1">
 <metadata>
  <rdf:RDF xmlns:dc="http://purl.org/dc/elements/1.1/" xmlns:cc="http://creativecommons.org/ns#" xmlns:rdf="http://www.w3.org/1999/02/22-rdf-syntax-ns#">
   <cc:Work>
    <dc:type rdf:resource="http://purl.org/dc/dcmitype/StillImage"/>
    <dc:date>2025-09-02T15:10:24.419920</dc:date>
    <dc:format>image/svg+xml</dc:format>
    <dc:creator>
     <cc:Agent>
      <dc:title>Matplotlib v3.10.5, https://matplotlib.org/</dc:title>
     </cc:Agent>
    </dc:creator>
   </cc:Work>
  </rdf:RDF>
 </metadata>
 <defs>
  <style type="text/css">*{stroke-linejoin: round; stroke-linecap: butt}</style>
 </defs>
 <g id="figure_1">
  <g id="patch_1">
   <path d="M 0 352.714375 
L 453.250625 352.714375 
L 453.250625 0 
L 0 0 
z
" style="fill: #ffffff"/>
  </g>
  <g id="axes_1">
   <g id="patch_2">
    <path d="M 46.965625 315.158125 
L 446.050625 315.158125 
L 446.050625 22.318125 
L 46.965625 22.318125 
z
" style="fill: #ffffff"/>
   </g>
   <g id="FillBetweenPolyCollection_1">
    <defs>
     <path id="m363d87146f" d="M 65.105852 -37.55625 
L 65.105852 -37.55625 
L 68.733898 -37.55625 
L 68.733898 -37.55625 
L 72.361943 -37.55625 
L 72.361943 -37.55625 
L 75.989989 -37.55625 
L 75.989989 -37.55625 
L 79.618034 -37.55625 
L 79.618034 -37.55625 
L 83.24608 -37.55625 
L 83.24608 -37.55625 
L 86.874125 -37.55625 
L 86.874125 -37.55625 
L 90.50217 -37.55625 
L 90.50217 -37.55625 
L 94.130216 -37.55625 
L 94.130216 -37.55625 
L 97.758261 -37.55625 
L 97.758261 -37.55625 
L 101.386307 -37.55625 
L 101.386307 -37.55625 
L 105.014352 -37.55625 
L 105.014352 -37.55625 
L 108.642398 -37.55625 
L 108.642398 -37.55625 
L 112.270443 -37.55625 
L 112.270443 -37.55625 
L 115.898489 -37.55625 
L 115.898489 -37.55625 
L 119.526534 -37.55625 
L 119.526534 -37.55625 
L 123.15458 -37.55625 
L 123.15458 -37.55625 
L 126.782625 -37.55625 
L 126.782625 -37.55625 
L 130.41067 -37.55625 
L 130.41067 -37.55625 
L 134.038716 -37.55625 
L 134.038716 -37.55625 
L 137.666761 -37.55625 
L 137.666761 -37.55625 
L 141.294807 -37.55625 
L 141.294807 -37.55625 
L 144.922852 -37.55625 
L 144.922852 -37.55625 
L 148.550898 -37.55625 
L 148.550898 -37.55625 
L 152.178943 -37.55625 
L 152.178943 -37.55625 
L 155.806989 -37.55625 
L 155.806989 -37.55625 
L 159.435034 -37.55625 
L 159.435034 -37.55625 
L 163.06308 -37.55625 
L 163.06308 -37.55625 
L 166.691125 -37.55625 
L 166.691125 -37.55625 
L 170.31917 -37.55625 
L 170.31917 -37.55625 
L 173.947216 -37.55625 
L 173.947216 -37.55625 
L 177.575261 -37.55625 
L 177.575261 -37.55625 
L 181.203307 -37.55625 
L 181.203307 -37.55625 
L 184.831352 -37.55625 
L 184.831352 -37.55625 
L 188.459398 -37.55625 
L 188.459398 -37.55625 
L 192.087443 -37.55625 
L 192.087443 -37.55625 
L 195.715489 -37.55625 
L 195.715489 -37.55625 
L 199.343534 -37.55625 
L 199.343534 -37.55625 
L 202.97158 -37.55625 
L 202.97158 -37.55625 
L 206.599625 -37.55625 
L 206.599625 -37.55625 
L 210.22767 -37.55625 
L 210.22767 -37.55625 
L 213.855716 -37.55625 
L 213.855716 -37.55625 
L 217.483761 -37.55625 
L 217.483761 -37.55625 
L 221.111807 -37.55625 
L 221.111807 -37.55625 
L 224.739852 -37.55625 
L 224.739852 -37.55625 
L 228.367898 -37.55625 
L 228.367898 -37.55625 
L 231.995943 -37.55625 
L 231.995943 -37.55625 
L 235.623989 -37.55625 
L 235.623989 -37.55625 
L 239.252034 -37.55625 
L 239.252034 -37.55625 
L 242.88008 -37.55625 
L 242.88008 -37.55625 
L 246.508125 -37.55625 
L 246.508125 -37.55625 
L 250.13617 -37.55625 
L 250.13617 -37.55625 
L 253.764216 -37.55625 
L 253.764216 -37.55625 
L 257.392261 -37.55625 
L 257.392261 -37.55625 
L 261.020307 -37.55625 
L 261.020307 -37.55625 
L 264.648352 -37.55625 
L 264.648352 -37.55625 
L 268.276398 -37.55625 
L 268.276398 -37.55625 
L 271.904443 -37.55625 
L 271.904443 -37.55625 
L 275.532489 -37.55625 
L 275.532489 -37.55625 
L 279.160534 -37.55625 
L 279.160534 -37.55625 
L 282.78858 -37.55625 
L 282.78858 -37.55625 
L 286.416625 -37.55625 
L 286.416625 -37.55625 
L 290.04467 -37.55625 
L 290.04467 -37.55625 
L 293.672716 -37.55625 
L 293.672716 -37.55625 
L 297.300761 -37.55625 
L 297.300761 -37.55625 
L 300.928807 -37.55625 
L 300.928807 -37.55625 
L 304.556852 -37.55625 
L 304.556852 -37.55625 
L 308.184898 -37.55625 
L 308.184898 -37.55625 
L 311.812943 -37.55625 
L 311.812943 -37.55625 
L 315.440989 -37.55625 
L 315.440989 -37.55625 
L 319.069034 -37.55625 
L 319.069034 -37.55625 
L 322.69708 -37.55625 
L 322.69708 -37.55625 
L 326.325125 -37.55625 
L 326.325125 -37.55625 
L 329.95317 -37.55625 
L 329.95317 -37.55625 
L 333.581216 -37.55625 
L 333.581216 -37.55625 
L 337.209261 -37.55625 
L 337.209261 -37.55625 
L 340.837307 -37.55625 
L 340.837307 -37.55625 
L 344.465352 -37.55625 
L 344.465352 -37.55625 
L 348.093398 -37.55625 
L 348.093398 -37.55625 
L 351.721443 -37.55625 
L 351.721443 -37.55625 
L 355.349489 -37.55625 
L 355.349489 -37.55625 
L 358.977534 -37.55625 
L 358.977534 -37.55625 
L 362.60558 -37.55625 
L 362.60558 -37.55625 
L 366.233625 -37.55625 
L 366.233625 -37.55625 
L 369.86167 -37.55625 
L 369.86167 -37.55625 
L 373.489716 -37.55625 
L 373.489716 -37.55625 
L 377.117761 -37.55625 
L 377.117761 -37.55625 
L 380.745807 -37.55625 
L 380.745807 -37.55625 
L 384.373852 -37.55625 
L 384.373852 -37.55625 
L 388.001898 -37.55625 
L 388.001898 -37.55625 
L 391.629943 -37.55625 
L 391.629943 -37.55625 
L 395.257989 -37.55625 
L 395.257989 -37.55625 
L 398.886034 -37.55625 
L 398.886034 -37.55625 
L 402.51408 -37.55625 
L 402.51408 -37.55625 
L 406.142125 -37.55625 
L 406.142125 -37.55625 
L 409.77017 -37.55625 
L 409.77017 -37.55625 
L 413.398216 -37.55625 
L 413.398216 -37.55625 
L 417.026261 -37.55625 
L 417.026261 -37.55625 
L 420.654307 -37.55625 
L 420.654307 -37.55625 
L 424.282352 -37.55625 
L 424.282352 -37.55625 
L 427.910398 -37.55625 
L 427.910398 -37.55625 
L 427.910398 -50.996984 
L 427.910398 -50.996984 
L 427.910398 -50.996984 
L 424.282352 -50.996984 
L 424.282352 -98.039555 
L 420.654307 -98.039555 
L 420.654307 -145.082125 
L 417.026261 -145.082125 
L 417.026261 -161.883043 
L 413.398216 -161.883043 
L 413.398216 -186.524389 
L 409.77017 -186.524389 
L 409.77017 -206.685491 
L 406.142125 -206.685491 
L 406.142125 -243.64751 
L 402.51408 -243.64751 
L 402.51408 -233.56696 
L 398.886034 -233.56696 
L 398.886034 -245.887633 
L 395.257989 -245.887633 
L 395.257989 -259.328367 
L 391.629943 -259.328367 
L 391.629943 -297.410448 
L 388.001898 -297.410448 
L 388.001898 -283.969713 
L 384.373852 -283.969713 
L 384.373852 -273.889163 
L 380.745807 -273.889163 
L 380.745807 -219.006164 
L 377.117761 -219.006164 
L 377.117761 -255.968183 
L 373.489716 -255.968183 
L 373.489716 -207.805552 
L 369.86167 -207.805552 
L 369.86167 -198.845062 
L 366.233625 -198.845062 
L 366.233625 -207.805552 
L 362.60558 -207.805552 
L 362.60558 -197.725001 
L 358.977534 -197.725001 
L 358.977534 -206.685491 
L 355.349489 -206.685491 
L 355.349489 -219.006164 
L 351.721443 -219.006164 
L 351.721443 -213.405858 
L 348.093398 -213.405858 
L 348.093398 -251.487939 
L 344.465352 -251.487939 
L 344.465352 -247.007694 
L 340.837307 -247.007694 
L 340.837307 -199.965124 
L 337.209261 -199.965124 
L 337.209261 -187.64445 
L 333.581216 -187.64445 
L 333.581216 -176.443838 
L 329.95317 -176.443838 
L 329.95317 -171.963594 
L 326.325125 -171.963594 
L 326.325125 -174.203716 
L 322.69708 -174.203716 
L 322.69708 -159.64292 
L 319.069034 -159.64292 
L 319.069034 -168.60341 
L 315.440989 -168.60341 
L 315.440989 -178.683961 
L 311.812943 -178.683961 
L 311.812943 -160.762982 
L 308.184898 -160.762982 
L 308.184898 -142.842003 
L 304.556852 -142.842003 
L 304.556852 -158.522859 
L 300.928807 -158.522859 
L 300.928807 -168.60341 
L 297.300761 -168.60341 
L 297.300761 -187.64445 
L 293.672716 -187.64445 
L 293.672716 -167.483349 
L 290.04467 -167.483349 
L 290.04467 -199.965124 
L 286.416625 -199.965124 
L 286.416625 -194.364818 
L 282.78858 -194.364818 
L 282.78858 -191.004634 
L 279.160534 -191.004634 
L 279.160534 -183.164206 
L 275.532489 -183.164206 
L 275.532489 -207.805552 
L 271.904443 -207.805552 
L 271.904443 -207.805552 
L 268.276398 -207.805552 
L 268.276398 -202.205246 
L 264.648352 -202.205246 
L 264.648352 -207.805552 
L 261.020307 -207.805552 
L 261.020307 -157.402798 
L 257.392261 -157.402798 
L 257.392261 -118.200656 
L 253.764216 -118.200656 
L 253.764216 -114.840473 
L 250.13617 -114.840473 
L 250.13617 -90.199126 
L 246.508125 -90.199126 
L 246.508125 -83.478759 
L 242.88008 -83.478759 
L 242.88008 -63.317658 
L 239.252034 -63.317658 
L 239.252034 -55.477229 
L 235.623989 -55.477229 
L 235.623989 -50.996984 
L 231.995943 -50.996984 
L 231.995943 -46.51674 
L 228.367898 -46.51674 
L 228.367898 -45.396678 
L 224.739852 -45.396678 
L 224.739852 -40.916434 
L 221.111807 -40.916434 
L 221.111807 -39.796372 
L 217.483761 -39.796372 
L 217.483761 -40.916434 
L 213.855716 -40.916434 
L 213.855716 -39.796372 
L 210.22767 -39.796372 
L 210.22767 -37.55625 
L 206.599625 -37.55625 
L 206.599625 -37.55625 
L 202.97158 -37.55625 
L 202.97158 -37.55625 
L 199.343534 -37.55625 
L 199.343534 -37.55625 
L 195.715489 -37.55625 
L 195.715489 -37.55625 
L 192.087443 -37.55625 
L 192.087443 -37.55625 
L 188.459398 -37.55625 
L 188.459398 -37.55625 
L 184.831352 -37.55625 
L 184.831352 -37.55625 
L 181.203307 -37.55625 
L 181.203307 -37.55625 
L 177.575261 -37.55625 
L 177.575261 -37.55625 
L 173.947216 -37.55625 
L 173.947216 -37.55625 
L 170.31917 -37.55625 
L 170.31917 -37.55625 
L 166.691125 -37.55625 
L 166.691125 -37.55625 
L 163.06308 -37.55625 
L 163.06308 -37.55625 
L 159.435034 -37.55625 
L 159.435034 -37.55625 
L 155.806989 -37.55625 
L 155.806989 -37.55625 
L 152.178943 -37.55625 
L 152.178943 -37.55625 
L 148.550898 -37.55625 
L 148.550898 -37.55625 
L 144.922852 -37.55625 
L 144.922852 -37.55625 
L 141.294807 -37.55625 
L 141.294807 -37.55625 
L 137.666761 -37.55625 
L 137.666761 -37.55625 
L 134.038716 -37.55625 
L 134.038716 -37.55625 
L 130.41067 -37.55625 
L 130.41067 -37.55625 
L 126.782625 -37.55625 
L 126.782625 -37.55625 
L 123.15458 -37.55625 
L 123.15458 -37.55625 
L 119.526534 -37.55625 
L 119.526534 -37.55625 
L 115.898489 -37.55625 
L 115.898489 -37.55625 
L 112.270443 -37.55625 
L 112.270443 -37.55625 
L 108.642398 -37.55625 
L 108.642398 -37.55625 
L 105.014352 -37.55625 
L 105.014352 -37.55625 
L 101.386307 -37.55625 
L 101.386307 -37.55625 
L 97.758261 -37.55625 
L 97.758261 -37.55625 
L 94.130216 -37.55625 
L 94.130216 -37.55625 
L 90.50217 -37.55625 
L 90.50217 -37.55625 
L 86.874125 -37.55625 
L 86.874125 -37.55625 
L 83.24608 -37.55625 
L 83.24608 -37.55625 
L 79.618034 -37.55625 
L 79.618034 -37.55625 
L 75.989989 -37.55625 
L 75.989989 -37.55625 
L 72.361943 -37.55625 
L 72.361943 -37.55625 
L 68.733898 -37.55625 
L 68.733898 -37.55625 
L 65.105852 -37.55625 
z
" style="stroke: #2f4f4f"/>
    </defs>
    <g clip-path="url(#pfd4c6c9775)">
     <use xlink:href="#m363d87146f" x="0" y="352.714375" style="fill: #2f4f4f; fill-opacity: 0.3; stroke: #2f4f4f"/>
    </g>
   </g>
   <g id="FillBetweenPolyCollection_2">
    <defs>
     <path id="m77d5c84959" d="M 65.105852 -37.55625 
L 65.105852 -37.55625 
L 68.733898 -37.55625 
L 68.733898 -37.55625 
L 72.361943 -37.55625 
L 72.361943 -37.55625 
L 75.989989 -37.55625 
L 75.989989 -37.55625 
L 79.618034 -37.55625 
L 79.618034 -37.55625 
L 83.24608 -37.55625 
L 83.24608 -37.55625 
L 86.874125 -37.55625 
L 86.874125 -37.55625 
L 90.50217 -37.55625 
L 90.50217 -37.55625 
L 94.130216 -37.55625 
L 94.130216 -37.55625 
L 97.758261 -37.55625 
L 97.758261 -37.55625 
L 101.386307 -37.55625 
L 101.386307 -37.55625 
L 105.014352 -37.55625 
L 105.014352 -37.55625 
L 108.642398 -37.55625 
L 108.642398 -37.55625 
L 112.270443 -37.55625 
L 112.270443 -37.55625 
L 115.898489 -37.55625 
L 115.898489 -37.55625 
L 119.526534 -37.55625 
L 119.526534 -37.55625 
L 123.15458 -37.55625 
L 123.15458 -37.55625 
L 126.782625 -37.55625 
L 126.782625 -37.55625 
L 130.41067 -37.55625 
L 130.41067 -37.55625 
L 134.038716 -37.55625 
L 134.038716 -37.55625 
L 137.666761 -37.55625 
L 137.666761 -37.55625 
L 141.294807 -37.55625 
L 141.294807 -37.55625 
L 144.922852 -37.55625 
L 144.922852 -37.55625 
L 148.550898 -37.55625 
L 148.550898 -37.55625 
L 152.178943 -37.55625 
L 152.178943 -37.55625 
L 155.806989 -37.55625 
L 155.806989 -37.55625 
L 159.435034 -37.55625 
L 159.435034 -37.55625 
L 163.06308 -37.55625 
L 163.06308 -37.55625 
L 166.691125 -37.55625 
L 166.691125 -37.55625 
L 170.31917 -37.55625 
L 170.31917 -37.55625 
L 173.947216 -37.55625 
L 173.947216 -37.55625 
L 177.575261 -37.55625 
L 177.575261 -37.55625 
L 181.203307 -37.55625 
L 181.203307 -37.55625 
L 184.831352 -37.55625 
L 184.831352 -37.55625 
L 188.459398 -37.55625 
L 188.459398 -37.55625 
L 192.087443 -37.55625 
L 192.087443 -37.55625 
L 195.715489 -37.55625 
L 195.715489 -37.55625 
L 199.343534 -37.55625 
L 199.343534 -37.55625 
L 202.97158 -37.55625 
L 202.97158 -37.55625 
L 206.599625 -37.55625 
L 206.599625 -37.55625 
L 210.22767 -37.55625 
L 210.22767 -37.55625 
L 213.855716 -37.55625 
L 213.855716 -37.55625 
L 217.483761 -37.55625 
L 217.483761 -37.55625 
L 221.111807 -37.55625 
L 221.111807 -37.55625 
L 224.739852 -37.55625 
L 224.739852 -37.55625 
L 228.367898 -37.55625 
L 228.367898 -37.55625 
L 231.995943 -37.55625 
L 231.995943 -37.55625 
L 235.623989 -37.55625 
L 235.623989 -37.55625 
L 239.252034 -37.55625 
L 239.252034 -37.55625 
L 242.88008 -37.55625 
L 242.88008 -37.55625 
L 246.508125 -37.55625 
L 246.508125 -37.55625 
L 250.13617 -37.55625 
L 250.13617 -37.55625 
L 253.764216 -37.55625 
L 253.764216 -37.55625 
L 257.392261 -37.55625 
L 257.392261 -37.55625 
L 261.020307 -37.55625 
L 261.020307 -37.55625 
L 264.648352 -37.55625 
L 264.648352 -37.55625 
L 268.276398 -37.55625 
L 268.276398 -37.55625 
L 271.904443 -37.55625 
L 271.904443 -37.55625 
L 275.532489 -37.55625 
L 275.532489 -37.55625 
L 279.160534 -37.55625 
L 279.160534 -37.55625 
L 282.78858 -37.55625 
L 282.78858 -37.55625 
L 286.416625 -37.55625 
L 286.416625 -37.55625 
L 290.04467 -37.55625 
L 290.04467 -37.55625 
L 293.672716 -37.55625 
L 293.672716 -37.55625 
L 297.300761 -37.55625 
L 297.300761 -37.55625 
L 300.928807 -37.55625 
L 300.928807 -37.55625 
L 304.556852 -37.55625 
L 304.556852 -37.55625 
L 308.184898 -37.55625 
L 308.184898 -37.55625 
L 311.812943 -37.55625 
L 311.812943 -37.55625 
L 315.440989 -37.55625 
L 315.440989 -37.55625 
L 319.069034 -37.55625 
L 319.069034 -37.55625 
L 322.69708 -37.55625 
L 322.69708 -37.55625 
L 326.325125 -37.55625 
L 326.325125 -37.55625 
L 329.95317 -37.55625 
L 329.95317 -37.55625 
L 333.581216 -37.55625 
L 333.581216 -37.55625 
L 337.209261 -37.55625 
L 337.209261 -37.55625 
L 340.837307 -37.55625 
L 340.837307 -37.55625 
L 344.465352 -37.55625 
L 344.465352 -37.55625 
L 348.093398 -37.55625 
L 348.093398 -37.55625 
L 351.721443 -37.55625 
L 351.721443 -37.55625 
L 355.349489 -37.55625 
L 355.349489 -37.55625 
L 358.977534 -37.55625 
L 358.977534 -37.55625 
L 362.60558 -37.55625 
L 362.60558 -37.55625 
L 366.233625 -37.55625 
L 366.233625 -37.55625 
L 369.86167 -37.55625 
L 369.86167 -37.55625 
L 373.489716 -37.55625 
L 373.489716 -37.55625 
L 377.117761 -37.55625 
L 377.117761 -37.55625 
L 380.745807 -37.55625 
L 380.745807 -37.55625 
L 384.373852 -37.55625 
L 384.373852 -37.55625 
L 388.001898 -37.55625 
L 388.001898 -37.55625 
L 391.629943 -37.55625 
L 391.629943 -37.55625 
L 395.257989 -37.55625 
L 395.257989 -37.55625 
L 398.886034 -37.55625 
L 398.886034 -37.55625 
L 402.51408 -37.55625 
L 402.51408 -37.55625 
L 406.142125 -37.55625 
L 406.142125 -37.55625 
L 409.77017 -37.55625 
L 409.77017 -37.55625 
L 413.398216 -37.55625 
L 413.398216 -37.55625 
L 417.026261 -37.55625 
L 417.026261 -37.55625 
L 420.654307 -37.55625 
L 420.654307 -37.55625 
L 424.282352 -37.55625 
L 424.282352 -37.55625 
L 427.910398 -37.55625 
L 427.910398 -37.55625 
L 427.910398 -50.996984 
L 427.910398 -50.996984 
L 427.910398 -50.996984 
L 424.282352 -50.996984 
L 424.282352 -93.55931 
L 420.654307 -93.55931 
L 420.654307 -152.922553 
L 417.026261 -152.922553 
L 417.026261 -164.123165 
L 413.398216 -164.123165 
L 413.398216 -180.924083 
L 409.77017 -180.924083 
L 409.77017 -206.685491 
L 406.142125 -206.685491 
L 406.142125 -262.688551 
L 402.51408 -262.688551 
L 402.51408 -234.687021 
L 398.886034 -234.687021 
L 398.886034 -260.448428 
L 395.257989 -260.448428 
L 395.257989 -279.489469 
L 391.629943 -279.489469 
L 391.629943 -316.451488 
L 388.001898 -316.451488 
L 388.001898 -286.209836 
L 384.373852 -286.209836 
L 384.373852 -314.211366 
L 380.745807 -314.211366 
L 380.745807 -252.608 
L 377.117761 -252.608 
L 377.117761 -270.528979 
L 373.489716 -270.528979 
L 373.489716 -233.56696 
L 369.86167 -233.56696 
L 369.86167 -201.085185 
L 366.233625 -201.085185 
L 366.233625 -203.325307 
L 362.60558 -203.325307 
L 362.60558 -210.045674 
L 358.977534 -210.045674 
L 358.977534 -241.407388 
L 355.349489 -241.407388 
L 355.349489 -222.366348 
L 351.721443 -222.366348 
L 351.721443 -235.807082 
L 348.093398 -235.807082 
L 348.093398 -249.247816 
L 344.465352 -249.247816 
L 344.465352 -240.287327 
L 340.837307 -240.287327 
L 340.837307 -222.366348 
L 337.209261 -222.366348 
L 337.209261 -232.446898 
L 333.581216 -232.446898 
L 333.581216 -215.64598 
L 329.95317 -215.64598 
L 329.95317 -216.766042 
L 326.325125 -216.766042 
L 326.325125 -225.726531 
L 322.69708 -225.726531 
L 322.69708 -217.886103 
L 319.069034 -217.886103 
L 319.069034 -225.726531 
L 315.440989 -225.726531 
L 315.440989 -227.966654 
L 311.812943 -227.966654 
L 311.812943 -219.006164 
L 308.184898 -219.006164 
L 308.184898 -176.443838 
L 304.556852 -176.443838 
L 304.556852 -195.484879 
L 300.928807 -195.484879 
L 300.928807 -208.925613 
L 297.300761 -208.925613 
L 297.300761 -189.884573 
L 293.672716 -189.884573 
L 293.672716 -195.484879 
L 290.04467 -195.484879 
L 290.04467 -194.364818 
L 286.416625 -194.364818 
L 286.416625 -175.323777 
L 282.78858 -175.323777 
L 282.78858 -208.925613 
L 279.160534 -208.925613 
L 279.160534 -207.805552 
L 275.532489 -207.805552 
L 275.532489 -210.045674 
L 271.904443 -210.045674 
L 271.904443 -222.366348 
L 268.276398 -222.366348 
L 268.276398 -210.045674 
L 264.648352 -210.045674 
L 264.648352 -197.725001 
L 261.020307 -197.725001 
L 261.020307 -205.56543 
L 257.392261 -205.56543 
L 257.392261 -187.64445 
L 253.764216 -187.64445 
L 253.764216 -163.003104 
L 250.13617 -163.003104 
L 250.13617 -137.241697 
L 246.508125 -137.241697 
L 246.508125 -89.079065 
L 242.88008 -89.079065 
L 242.88008 -74.51827 
L 239.252034 -74.51827 
L 239.252034 -58.837413 
L 235.623989 -58.837413 
L 235.623989 -49.876923 
L 231.995943 -49.876923 
L 231.995943 -42.036495 
L 228.367898 -42.036495 
L 228.367898 -38.676311 
L 224.739852 -38.676311 
L 224.739852 -39.796372 
L 221.111807 -39.796372 
L 221.111807 -37.55625 
L 217.483761 -37.55625 
L 217.483761 -38.676311 
L 213.855716 -38.676311 
L 213.855716 -37.55625 
L 210.22767 -37.55625 
L 210.22767 -37.55625 
L 206.599625 -37.55625 
L 206.599625 -37.55625 
L 202.97158 -37.55625 
L 202.97158 -37.55625 
L 199.343534 -37.55625 
L 199.343534 -37.55625 
L 195.715489 -37.55625 
L 195.715489 -37.55625 
L 192.087443 -37.55625 
L 192.087443 -37.55625 
L 188.459398 -37.55625 
L 188.459398 -37.55625 
L 184.831352 -37.55625 
L 184.831352 -37.55625 
L 181.203307 -37.55625 
L 181.203307 -37.55625 
L 177.575261 -37.55625 
L 177.575261 -37.55625 
L 173.947216 -37.55625 
L 173.947216 -37.55625 
L 170.31917 -37.55625 
L 170.31917 -37.55625 
L 166.691125 -37.55625 
L 166.691125 -37.55625 
L 163.06308 -37.55625 
L 163.06308 -37.55625 
L 159.435034 -37.55625 
L 159.435034 -37.55625 
L 155.806989 -37.55625 
L 155.806989 -37.55625 
L 152.178943 -37.55625 
L 152.178943 -37.55625 
L 148.550898 -37.55625 
L 148.550898 -37.55625 
L 144.922852 -37.55625 
L 144.922852 -37.55625 
L 141.294807 -37.55625 
L 141.294807 -37.55625 
L 137.666761 -37.55625 
L 137.666761 -37.55625 
L 134.038716 -37.55625 
L 134.038716 -37.55625 
L 130.41067 -37.55625 
L 130.41067 -37.55625 
L 126.782625 -37.55625 
L 126.782625 -37.55625 
L 123.15458 -37.55625 
L 123.15458 -37.55625 
L 119.526534 -37.55625 
L 119.526534 -37.55625 
L 115.898489 -37.55625 
L 115.898489 -37.55625 
L 112.270443 -37.55625 
L 112.270443 -37.55625 
L 108.642398 -37.55625 
L 108.642398 -37.55625 
L 105.014352 -37.55625 
L 105.014352 -37.55625 
L 101.386307 -37.55625 
L 101.386307 -37.55625 
L 97.758261 -37.55625 
L 97.758261 -37.55625 
L 94.130216 -37.55625 
L 94.130216 -37.55625 
L 90.50217 -37.55625 
L 90.50217 -37.55625 
L 86.874125 -37.55625 
L 86.874125 -37.55625 
L 83.24608 -37.55625 
L 83.24608 -37.55625 
L 79.618034 -37.55625 
L 79.618034 -37.55625 
L 75.989989 -37.55625 
L 75.989989 -37.55625 
L 72.361943 -37.55625 
L 72.361943 -37.55625 
L 68.733898 -37.55625 
L 68.733898 -37.55625 
L 65.105852 -37.55625 
z
" style="stroke: #daa520"/>
    </defs>
    <g clip-path="url(#pfd4c6c9775)">
     <use xlink:href="#m77d5c84959" x="0" y="352.714375" style="fill: #daa520; fill-opacity: 0.3; stroke: #daa520"/>
    </g>
   </g>
   <g id="matplotlib.axis_1">
    <g id="xtick_1">
     <g id="line2d_1">
      <defs>
       <path id="m1b6ce0857c" d="M 0 0 
L 0 3.5 
" style="stroke: #000000; stroke-width: 0.8"/>
      </defs>
      <g>
       <use xlink:href="#m1b6ce0857c" x="65.105852" y="315.158125" style="stroke: #000000; stroke-width: 0.8"/>
      </g>
     </g>
     <g id="text_1">
      <!-- −1.00 -->
      <g transform="translate(49.783196 329.756562) scale(0.1 -0.1)">
       <defs>
        <path id="DejaVuSans-2212" d="M 678 2272 
L 4684 2272 
L 4684 1741 
L 678 1741 
L 678 2272 
z
" transform="scale(0.015625)"/>
        <path id="DejaVuSans-31" d="M 794 531 
L 1825 531 
L 1825 4091 
L 703 3866 
L 703 4441 
L 1819 4666 
L 2450 4666 
L 2450 531 
L 3481 531 
L 3481 0 
L 794 0 
L 794 531 
z
" transform="scale(0.015625)"/>
        <path id="DejaVuSans-2e" d="M 684 794 
L 1344 794 
L 1344 0 
L 684 0 
L 684 794 
z
" transform="scale(0.015625)"/>
        <path id="DejaVuSans-30" d="M 2034 4250 
Q 1547 4250 1301 3770 
Q 1056 3291 1056 2328 
Q 1056 1369 1301 889 
Q 1547 409 2034 409 
Q 2525 409 2770 889 
Q 3016 1369 3016 2328 
Q 3016 3291 2770 3770 
Q 2525 4250 2034 4250 
z
M 2034 4750 
Q 2819 4750 3233 4129 
Q 3647 3509 3647 2328 
Q 3647 1150 3233 529 
Q 2819 -91 2034 -91 
Q 1250 -91 836 529 
Q 422 1150 422 2328 
Q 422 3509 836 4129 
Q 1250 4750 2034 4750 
z
" transform="scale(0.015625)"/>
       </defs>
       <use xlink:href="#DejaVuSans-2212"/>
       <use xlink:href="#DejaVuSans-31" transform="translate(83.789062 0)"/>
       <use xlink:href="#DejaVuSans-2e" transform="translate(147.412109 0)"/>
       <use xlink:href="#DejaVuSans-30" transform="translate(179.199219 0)"/>
       <use xlink:href="#DejaVuSans-30" transform="translate(242.822266 0)"/>
      </g>
     </g>
    </g>
    <g id="xtick_2">
     <g id="line2d_2">
      <g>
       <use xlink:href="#m1b6ce0857c" x="110.45642" y="315.158125" style="stroke: #000000; stroke-width: 0.8"/>
      </g>
     </g>
     <g id="text_2">
      <!-- −0.75 -->
      <g transform="translate(95.133764 329.756562) scale(0.1 -0.1)">
       <defs>
        <path id="DejaVuSans-37" d="M 525 4666 
L 3525 4666 
L 3525 4397 
L 1831 0 
L 1172 0 
L 2766 4134 
L 525 4134 
L 525 4666 
z
" transform="scale(0.015625)"/>
        <path id="DejaVuSans-35" d="M 691 4666 
L 3169 4666 
L 3169 4134 
L 1269 4134 
L 1269 2991 
Q 1406 3038 1543 3061 
Q 1681 3084 1819 3084 
Q 2600 3084 3056 2656 
Q 3513 2228 3513 1497 
Q 3513 744 3044 326 
Q 2575 -91 1722 -91 
Q 1428 -91 1123 -41 
Q 819 9 494 109 
L 494 744 
Q 775 591 1075 516 
Q 1375 441 1709 441 
Q 2250 441 2565 725 
Q 2881 1009 2881 1497 
Q 2881 1984 2565 2268 
Q 2250 2553 1709 2553 
Q 1456 2553 1204 2497 
Q 953 2441 691 2322 
L 691 4666 
z
" transform="scale(0.015625)"/>
       </defs>
       <use xlink:href="#DejaVuSans-2212"/>
       <use xlink:href="#DejaVuSans-30" transform="translate(83.789062 0)"/>
       <use xlink:href="#DejaVuSans-2e" transform="translate(147.412109 0)"/>
       <use xlink:href="#DejaVuSans-37" transform="translate(179.199219 0)"/>
       <use xlink:href="#DejaVuSans-35" transform="translate(242.822266 0)"/>
      </g>
     </g>
    </g>
    <g id="xtick_3">
     <g id="line2d_3">
      <g>
       <use xlink:href="#m1b6ce0857c" x="155.806989" y="315.158125" style="stroke: #000000; stroke-width: 0.8"/>
      </g>
     </g>
     <g id="text_3">
      <!-- −0.50 -->
      <g transform="translate(140.484332 329.756562) scale(0.1 -0.1)">
       <use xlink:href="#DejaVuSans-2212"/>
       <use xlink:href="#DejaVuSans-30" transform="translate(83.789062 0)"/>
       <use xlink:href="#DejaVuSans-2e" transform="translate(147.412109 0)"/>
       <use xlink:href="#DejaVuSans-35" transform="translate(179.199219 0)"/>
       <use xlink:href="#DejaVuSans-30" transform="translate(242.822266 0)"/>
      </g>
     </g>
    </g>
    <g id="xtick_4">
     <g id="line2d_4">
      <g>
       <use xlink:href="#m1b6ce0857c" x="201.157557" y="315.158125" style="stroke: #000000; stroke-width: 0.8"/>
      </g>
     </g>
     <g id="text_4">
      <!-- −0.25 -->
      <g transform="translate(185.834901 329.756562) scale(0.1 -0.1)">
       <defs>
        <path id="DejaVuSans-32" d="M 1228 531 
L 3431 531 
L 3431 0 
L 469 0 
L 469 531 
Q 828 903 1448 1529 
Q 2069 2156 2228 2338 
Q 2531 2678 2651 2914 
Q 2772 3150 2772 3378 
Q 2772 3750 2511 3984 
Q 2250 4219 1831 4219 
Q 1534 4219 1204 4116 
Q 875 4013 500 3803 
L 500 4441 
Q 881 4594 1212 4672 
Q 1544 4750 1819 4750 
Q 2544 4750 2975 4387 
Q 3406 4025 3406 3419 
Q 3406 3131 3298 2873 
Q 3191 2616 2906 2266 
Q 2828 2175 2409 1742 
Q 1991 1309 1228 531 
z
" transform="scale(0.015625)"/>
       </defs>
       <use xlink:href="#DejaVuSans-2212"/>
       <use xlink:href="#DejaVuSans-30" transform="translate(83.789062 0)"/>
       <use xlink:href="#DejaVuSans-2e" transform="translate(147.412109 0)"/>
       <use xlink:href="#DejaVuSans-32" transform="translate(179.199219 0)"/>
       <use xlink:href="#DejaVuSans-35" transform="translate(242.822266 0)"/>
      </g>
     </g>
    </g>
    <g id="xtick_5">
     <g id="line2d_5">
      <g>
       <use xlink:href="#m1b6ce0857c" x="246.508125" y="315.158125" style="stroke: #000000; stroke-width: 0.8"/>
      </g>
     </g>
     <g id="text_5">
      <!-- 0.00 -->
      <g transform="translate(235.375313 329.756562) scale(0.1 -0.1)">
       <use xlink:href="#DejaVuSans-30"/>
       <use xlink:href="#DejaVuSans-2e" transform="translate(63.623047 0)"/>
       <use xlink:href="#DejaVuSans-30" transform="translate(95.410156 0)"/>
       <use xlink:href="#DejaVuSans-30" transform="translate(159.033203 0)"/>
      </g>
     </g>
    </g>
    <g id="xtick_6">
     <g id="line2d_6">
      <g>
       <use xlink:href="#m1b6ce0857c" x="291.858693" y="315.158125" style="stroke: #000000; stroke-width: 0.8"/>
      </g>
     </g>
     <g id="text_6">
      <!-- 0.25 -->
      <g transform="translate(280.725881 329.756562) scale(0.1 -0.1)">
       <use xlink:href="#DejaVuSans-30"/>
       <use xlink:href="#DejaVuSans-2e" transform="translate(63.623047 0)"/>
       <use xlink:href="#DejaVuSans-32" transform="translate(95.410156 0)"/>
       <use xlink:href="#DejaVuSans-35" transform="translate(159.033203 0)"/>
      </g>
     </g>
    </g>
    <g id="xtick_7">
     <g id="line2d_7">
      <g>
       <use xlink:href="#m1b6ce0857c" x="337.209261" y="315.158125" style="stroke: #000000; stroke-width: 0.8"/>
      </g>
     </g>
     <g id="text_7">
      <!-- 0.50 -->
      <g transform="translate(326.076449 329.756562) scale(0.1 -0.1)">
       <use xlink:href="#DejaVuSans-30"/>
       <use xlink:href="#DejaVuSans-2e" transform="translate(63.623047 0)"/>
       <use xlink:href="#DejaVuSans-35" transform="translate(95.410156 0)"/>
       <use xlink:href="#DejaVuSans-30" transform="translate(159.033203 0)"/>
      </g>
     </g>
    </g>
    <g id="xtick_8">
     <g id="line2d_8">
      <g>
       <use xlink:href="#m1b6ce0857c" x="382.55983" y="315.158125" style="stroke: #000000; stroke-width: 0.8"/>
      </g>
     </g>
     <g id="text_8">
      <!-- 0.75 -->
      <g transform="translate(371.427017 329.756562) scale(0.1 -0.1)">
       <use xlink:href="#DejaVuSans-30"/>
       <use xlink:href="#DejaVuSans-2e" transform="translate(63.623047 0)"/>
       <use xlink:href="#DejaVuSans-37" transform="translate(95.410156 0)"/>
       <use xlink:href="#DejaVuSans-35" transform="translate(159.033203 0)"/>
      </g>
     </g>
    </g>
    <g id="xtick_9">
     <g id="line2d_9">
      <g>
       <use xlink:href="#m1b6ce0857c" x="427.910398" y="315.158125" style="stroke: #000000; stroke-width: 0.8"/>
      </g>
     </g>
     <g id="text_9">
      <!-- 1.00 -->
      <g transform="translate(416.777585 329.756562) scale(0.1 -0.1)">
       <use xlink:href="#DejaVuSans-31"/>
       <use xlink:href="#DejaVuSans-2e" transform="translate(63.623047 0)"/>
       <use xlink:href="#DejaVuSans-30" transform="translate(95.410156 0)"/>
       <use xlink:href="#DejaVuSans-30" transform="translate(159.033203 0)"/>
      </g>
     </g>
    </g>
    <g id="text_10">
     <!-- sc scores -->
     <g transform="translate(223.527656 343.434687) scale(0.1 -0.1)">
      <defs>
       <path id="DejaVuSans-73" d="M 2834 3397 
L 2834 2853 
Q 2591 2978 2328 3040 
Q 2066 3103 1784 3103 
Q 1356 3103 1142 2972 
Q 928 2841 928 2578 
Q 928 2378 1081 2264 
Q 1234 2150 1697 2047 
L 1894 2003 
Q 2506 1872 2764 1633 
Q 3022 1394 3022 966 
Q 3022 478 2636 193 
Q 2250 -91 1575 -91 
Q 1294 -91 989 -36 
Q 684 19 347 128 
L 347 722 
Q 666 556 975 473 
Q 1284 391 1588 391 
Q 1994 391 2212 530 
Q 2431 669 2431 922 
Q 2431 1156 2273 1281 
Q 2116 1406 1581 1522 
L 1381 1569 
Q 847 1681 609 1914 
Q 372 2147 372 2553 
Q 372 3047 722 3315 
Q 1072 3584 1716 3584 
Q 2034 3584 2315 3537 
Q 2597 3491 2834 3397 
z
" transform="scale(0.015625)"/>
       <path id="DejaVuSans-63" d="M 3122 3366 
L 3122 2828 
Q 2878 2963 2633 3030 
Q 2388 3097 2138 3097 
Q 1578 3097 1268 2742 
Q 959 2388 959 1747 
Q 959 1106 1268 751 
Q 1578 397 2138 397 
Q 2388 397 2633 464 
Q 2878 531 3122 666 
L 3122 134 
Q 2881 22 2623 -34 
Q 2366 -91 2075 -91 
Q 1284 -91 818 406 
Q 353 903 353 1747 
Q 353 2603 823 3093 
Q 1294 3584 2113 3584 
Q 2378 3584 2631 3529 
Q 2884 3475 3122 3366 
z
" transform="scale(0.015625)"/>
       <path id="DejaVuSans-20" transform="scale(0.015625)"/>
       <path id="DejaVuSans-6f" d="M 1959 3097 
Q 1497 3097 1228 2736 
Q 959 2375 959 1747 
Q 959 1119 1226 758 
Q 1494 397 1959 397 
Q 2419 397 2687 759 
Q 2956 1122 2956 1747 
Q 2956 2369 2687 2733 
Q 2419 3097 1959 3097 
z
M 1959 3584 
Q 2709 3584 3137 3096 
Q 3566 2609 3566 1747 
Q 3566 888 3137 398 
Q 2709 -91 1959 -91 
Q 1206 -91 779 398 
Q 353 888 353 1747 
Q 353 2609 779 3096 
Q 1206 3584 1959 3584 
z
" transform="scale(0.015625)"/>
       <path id="DejaVuSans-72" d="M 2631 2963 
Q 2534 3019 2420 3045 
Q 2306 3072 2169 3072 
Q 1681 3072 1420 2755 
Q 1159 2438 1159 1844 
L 1159 0 
L 581 0 
L 581 3500 
L 1159 3500 
L 1159 2956 
Q 1341 3275 1631 3429 
Q 1922 3584 2338 3584 
Q 2397 3584 2469 3576 
Q 2541 3569 2628 3553 
L 2631 2963 
z
" transform="scale(0.015625)"/>
       <path id="DejaVuSans-65" d="M 3597 1894 
L 3597 1613 
L 953 1613 
Q 991 1019 1311 708 
Q 1631 397 2203 397 
Q 2534 397 2845 478 
Q 3156 559 3463 722 
L 3463 178 
Q 3153 47 2828 -22 
Q 2503 -91 2169 -91 
Q 1331 -91 842 396 
Q 353 884 353 1716 
Q 353 2575 817 3079 
Q 1281 3584 2069 3584 
Q 2775 3584 3186 3129 
Q 3597 2675 3597 1894 
z
M 3022 2063 
Q 3016 2534 2758 2815 
Q 2500 3097 2075 3097 
Q 1594 3097 1305 2825 
Q 1016 2553 972 2059 
L 3022 2063 
z
" transform="scale(0.015625)"/>
      </defs>
      <use xlink:href="#DejaVuSans-73"/>
      <use xlink:href="#DejaVuSans-63" transform="translate(52.099609 0)"/>
      <use xlink:href="#DejaVuSans-20" transform="translate(107.080078 0)"/>
      <use xlink:href="#DejaVuSans-73" transform="translate(138.867188 0)"/>
      <use xlink:href="#DejaVuSans-63" transform="translate(190.966797 0)"/>
      <use xlink:href="#DejaVuSans-6f" transform="translate(245.947266 0)"/>
      <use xlink:href="#DejaVuSans-72" transform="translate(307.128906 0)"/>
      <use xlink:href="#DejaVuSans-65" transform="translate(345.992188 0)"/>
      <use xlink:href="#DejaVuSans-73" transform="translate(407.515625 0)"/>
     </g>
    </g>
   </g>
   <g id="matplotlib.axis_2">
    <g id="ytick_1">
     <g id="line2d_10">
      <defs>
       <path id="m96ec151fc5" d="M 0 0 
L -3.5 0 
" style="stroke: #000000; stroke-width: 0.8"/>
      </defs>
      <g>
       <use xlink:href="#m96ec151fc5" x="46.965625" y="315.158125" style="stroke: #000000; stroke-width: 0.8"/>
      </g>
     </g>
     <g id="text_11">
      <!-- 0 -->
      <g transform="translate(33.603125 318.957344) scale(0.1 -0.1)">
       <use xlink:href="#DejaVuSans-30"/>
      </g>
     </g>
    </g>
    <g id="ytick_2">
     <g id="line2d_11">
      <g>
       <use xlink:href="#m96ec151fc5" x="46.965625" y="259.155065" style="stroke: #000000; stroke-width: 0.8"/>
      </g>
     </g>
     <g id="text_12">
      <!-- 50 -->
      <g transform="translate(27.240625 262.954284) scale(0.1 -0.1)">
       <use xlink:href="#DejaVuSans-35"/>
       <use xlink:href="#DejaVuSans-30" transform="translate(63.623047 0)"/>
      </g>
     </g>
    </g>
    <g id="ytick_3">
     <g id="line2d_12">
      <g>
       <use xlink:href="#m96ec151fc5" x="46.965625" y="203.152005" style="stroke: #000000; stroke-width: 0.8"/>
      </g>
     </g>
     <g id="text_13">
      <!-- 100 -->
      <g transform="translate(20.878125 206.951224) scale(0.1 -0.1)">
       <use xlink:href="#DejaVuSans-31"/>
       <use xlink:href="#DejaVuSans-30" transform="translate(63.623047 0)"/>
       <use xlink:href="#DejaVuSans-30" transform="translate(127.246094 0)"/>
      </g>
     </g>
    </g>
    <g id="ytick_4">
     <g id="line2d_13">
      <g>
       <use xlink:href="#m96ec151fc5" x="46.965625" y="147.148945" style="stroke: #000000; stroke-width: 0.8"/>
      </g>
     </g>
     <g id="text_14">
      <!-- 150 -->
      <g transform="translate(20.878125 150.948164) scale(0.1 -0.1)">
       <use xlink:href="#DejaVuSans-31"/>
       <use xlink:href="#DejaVuSans-35" transform="translate(63.623047 0)"/>
       <use xlink:href="#DejaVuSans-30" transform="translate(127.246094 0)"/>
      </g>
     </g>
    </g>
    <g id="ytick_5">
     <g id="line2d_14">
      <g>
       <use xlink:href="#m96ec151fc5" x="46.965625" y="91.145886" style="stroke: #000000; stroke-width: 0.8"/>
      </g>
     </g>
     <g id="text_15">
      <!-- 200 -->
      <g transform="translate(20.878125 94.945104) scale(0.1 -0.1)">
       <use xlink:href="#DejaVuSans-32"/>
       <use xlink:href="#DejaVuSans-30" transform="translate(63.623047 0)"/>
       <use xlink:href="#DejaVuSans-30" transform="translate(127.246094 0)"/>
      </g>
     </g>
    </g>
    <g id="ytick_6">
     <g id="line2d_15">
      <g>
       <use xlink:href="#m96ec151fc5" x="46.965625" y="35.142826" style="stroke: #000000; stroke-width: 0.8"/>
      </g>
     </g>
     <g id="text_16">
      <!-- 250 -->
      <g transform="translate(20.878125 38.942044) scale(0.1 -0.1)">
       <use xlink:href="#DejaVuSans-32"/>
       <use xlink:href="#DejaVuSans-35" transform="translate(63.623047 0)"/>
       <use xlink:href="#DejaVuSans-30" transform="translate(127.246094 0)"/>
      </g>
     </g>
    </g>
    <g id="text_17">
     <!-- count -->
     <g transform="translate(14.798438 182.844375) rotate(-90) scale(0.1 -0.1)">
      <defs>
       <path id="DejaVuSans-75" d="M 544 1381 
L 544 3500 
L 1119 3500 
L 1119 1403 
Q 1119 906 1312 657 
Q 1506 409 1894 409 
Q 2359 409 2629 706 
Q 2900 1003 2900 1516 
L 2900 3500 
L 3475 3500 
L 3475 0 
L 2900 0 
L 2900 538 
Q 2691 219 2414 64 
Q 2138 -91 1772 -91 
Q 1169 -91 856 284 
Q 544 659 544 1381 
z
M 1991 3584 
L 1991 3584 
z
" transform="scale(0.015625)"/>
       <path id="DejaVuSans-6e" d="M 3513 2113 
L 3513 0 
L 2938 0 
L 2938 2094 
Q 2938 2591 2744 2837 
Q 2550 3084 2163 3084 
Q 1697 3084 1428 2787 
Q 1159 2491 1159 1978 
L 1159 0 
L 581 0 
L 581 3500 
L 1159 3500 
L 1159 2956 
Q 1366 3272 1645 3428 
Q 1925 3584 2291 3584 
Q 2894 3584 3203 3211 
Q 3513 2838 3513 2113 
z
" transform="scale(0.015625)"/>
       <path id="DejaVuSans-74" d="M 1172 4494 
L 1172 3500 
L 2356 3500 
L 2356 3053 
L 1172 3053 
L 1172 1153 
Q 1172 725 1289 603 
Q 1406 481 1766 481 
L 2356 481 
L 2356 0 
L 1766 0 
Q 1100 0 847 248 
Q 594 497 594 1153 
L 594 3053 
L 172 3053 
L 172 3500 
L 594 3500 
L 594 4494 
L 1172 4494 
z
" transform="scale(0.015625)"/>
      </defs>
      <use xlink:href="#DejaVuSans-63"/>
      <use xlink:href="#DejaVuSans-6f" transform="translate(54.980469 0)"/>
      <use xlink:href="#DejaVuSans-75" transform="translate(116.162109 0)"/>
      <use xlink:href="#DejaVuSans-6e" transform="translate(179.541016 0)"/>
      <use xlink:href="#DejaVuSans-74" transform="translate(242.919922 0)"/>
     </g>
    </g>
   </g>
   <g id="line2d_16">
    <path d="M 211.348133 313.25375 
L 214.594033 312.415005 
L 217.839932 311.312449 
L 220.003865 310.374438 
L 222.167798 309.219652 
L 224.331731 307.790915 
L 226.495664 306.022546 
L 228.659597 303.841081 
L 230.82353 301.166566 
L 232.987463 297.915337 
L 235.151395 294.004556 
L 237.315328 289.357483 
L 239.479261 283.90759 
L 241.643194 277.600163 
L 243.807127 270.392417 
L 245.97106 262.256168 
L 248.134993 253.188572 
L 250.298926 243.234218 
L 253.544825 226.936978 
L 260.036624 193.313429 
L 262.200557 183.462719 
L 264.36449 175.048693 
L 265.446456 171.47791 
L 266.528423 168.361121 
L 267.610389 165.705524 
L 268.692356 163.506356 
L 269.774322 161.747791 
L 270.856289 160.4044 
L 271.938255 159.443031 
L 273.020222 158.82497 
L 274.102188 158.50822 
L 275.184155 158.449761 
L 276.266121 158.607646 
L 277.348087 158.942844 
L 279.51202 160.01207 
L 281.675953 161.449163 
L 283.839886 163.142717 
L 286.003819 165.06477 
L 288.167752 167.237404 
L 290.331685 169.689929 
L 292.495618 172.418893 
L 296.823484 178.38969 
L 300.069383 182.691492 
L 302.233316 185.109756 
L 303.315283 186.118509 
L 304.397249 186.972477 
L 305.479215 187.661467 
L 306.561182 188.180208 
L 307.643148 188.528265 
L 308.725115 188.709637 
L 309.807081 188.732054 
L 310.889048 188.606067 
L 311.971014 188.343973 
L 314.134947 187.46268 
L 316.29888 186.180155 
L 318.462813 184.553779 
L 320.626746 182.591148 
L 322.790679 180.249368 
L 324.954612 177.447467 
L 327.118545 174.090047 
L 329.282478 170.100689 
L 331.446411 165.462106 
L 333.610344 160.255668 
L 340.102142 143.873082 
L 342.266075 139.472069 
L 343.348042 137.693049 
L 344.430008 136.239999 
L 345.511975 135.132285 
L 346.593941 134.376234 
L 347.675908 133.964754 
L 348.757874 133.877759 
L 349.83984 134.083334 
L 350.921807 134.539516 
L 352.003773 135.196522 
L 354.167706 136.889684 
L 357.413606 139.514123 
L 358.495572 140.197109 
L 359.577539 140.708148 
L 360.659505 141.010442 
L 361.741472 141.073469 
L 362.823438 140.872929 
L 363.905404 140.390563 
L 364.987371 139.613911 
L 366.069337 138.536101 
L 367.151304 137.155697 
L 368.23327 135.476649 
L 369.315237 133.508336 
L 371.47917 128.769398 
L 373.643103 123.12833 
L 376.889002 113.626422 
L 380.134901 104.103537 
L 382.298834 98.548781 
L 383.380801 96.194343 
L 384.462767 94.196123 
L 385.544734 92.601415 
L 386.6267 91.448601 
L 387.708667 90.765814 
L 388.790633 90.570161 
L 389.8726 90.867637 
L 390.954566 91.65372 
L 392.036532 92.91464 
L 393.118499 94.629196 
L 394.200465 96.770963 
L 395.282432 99.310688 
L 396.364398 102.218638 
L 398.528331 109.030151 
L 400.692264 117.026977 
L 402.856197 126.106796 
L 405.02013 136.236454 
L 407.184063 147.420687 
L 409.347996 159.661844 
L 411.511929 172.922648 
L 414.757828 194.469417 
L 424.495526 261.477667 
L 426.659459 274.026506 
L 426.659459 274.026506 
" clip-path="url(#pfd4c6c9775)" style="fill: none; stroke: #2f4f4f; stroke-width: 1.5; stroke-linecap: square"/>
   </g>
   <g id="line2d_17">
    <path d="M 211.348133 314.664635 
L 214.594033 314.256945 
L 216.757966 313.820942 
L 218.921899 313.180588 
L 221.085831 312.248289 
L 223.249764 310.91309 
L 224.331731 310.053628 
L 225.413697 309.041969 
L 226.495664 307.858482 
L 227.57763 306.482544 
L 228.659597 304.892685 
L 229.741563 303.066775 
L 230.82353 300.982285 
L 231.905496 298.616664 
L 232.987463 295.94786 
L 234.069429 292.955015 
L 236.233362 285.92528 
L 238.397295 277.422712 
L 240.561228 267.433824 
L 242.725161 256.074388 
L 245.97106 237.090246 
L 251.380892 204.162369 
L 253.544825 192.073321 
L 255.708758 181.248325 
L 257.872691 171.929863 
L 260.036624 164.211326 
L 261.118591 160.947331 
L 262.200557 158.066582 
L 263.282523 155.554564 
L 264.36449 153.394942 
L 265.446456 151.57065 
L 266.528423 150.064668 
L 267.610389 148.860467 
L 268.692356 147.942119 
L 269.774322 147.294112 
L 270.856289 146.900926 
L 271.938255 146.746444 
L 273.020222 146.813297 
L 274.102188 147.08223 
L 275.184155 147.5316 
L 276.266121 148.137086 
L 278.430054 149.705974 
L 284.921853 155.072699 
L 287.085786 156.360949 
L 289.249719 157.186991 
L 290.331685 157.417874 
L 291.413651 157.529027 
L 292.495618 157.523754 
L 294.659551 157.177423 
L 296.823484 156.395266 
L 298.987417 155.171145 
L 301.15135 153.487369 
L 303.315283 151.344676 
L 305.479215 148.795827 
L 308.725115 144.499418 
L 311.971014 140.224851 
L 314.134947 137.716786 
L 316.29888 135.630588 
L 318.462813 133.992101 
L 320.626746 132.741325 
L 322.790679 131.760656 
L 329.282478 129.10466 
L 331.446411 127.979546 
L 333.610344 126.665017 
L 337.938209 123.660632 
L 340.102142 122.205677 
L 342.266075 121.006547 
L 343.348042 120.559259 
L 344.430008 120.240232 
L 345.511975 120.06533 
L 346.593941 120.04577 
L 347.675908 120.187263 
L 348.757874 120.489361 
L 349.83984 120.945051 
L 352.003773 122.255364 
L 355.249673 124.815084 
L 357.413606 126.471933 
L 358.495572 127.14567 
L 359.577539 127.649401 
L 360.659505 127.933595 
L 361.741472 127.951458 
L 362.823438 127.660911 
L 363.905404 127.026537 
L 364.987371 126.02139 
L 366.069337 124.628539 
L 367.151304 122.842245 
L 368.23327 120.668693 
L 369.315237 118.126224 
L 371.47917 112.066565 
L 373.643103 105.031304 
L 379.052935 86.636194 
L 381.216868 80.478859 
L 382.298834 77.926317 
L 383.380801 75.796569 
L 384.462767 74.132919 
L 385.544734 72.968972 
L 386.6267 72.328065 
L 387.708667 72.223086 
L 388.790633 72.656697 
L 389.8726 73.622007 
L 390.954566 75.103672 
L 392.036532 77.079373 
L 393.118499 79.521597 
L 394.200465 82.399581 
L 395.282432 85.681274 
L 397.446365 93.331808 
L 399.610298 102.252391 
L 401.774231 112.280764 
L 403.938164 123.314261 
L 406.102096 135.291603 
L 409.347996 154.932043 
L 412.593895 176.423821 
L 415.839795 199.433798 
L 423.41356 254.011153 
L 425.577493 267.819838 
L 426.659459 274.115635 
L 426.659459 274.115635 
" clip-path="url(#pfd4c6c9775)" style="fill: none; stroke: #daa520; stroke-width: 1.5; stroke-linecap: square"/>
   </g>
   <g id="line2d_18">
    <path d="M 340.945614 315.158125 
L 340.945614 22.318125 
" clip-path="url(#pfd4c6c9775)" style="fill: none; stroke-dasharray: 5.55,2.4; stroke-dashoffset: 0; stroke: #daa520; stroke-width: 1.5"/>
   </g>
   <g id="line2d_19">
    <path d="M 345.910159 315.158125 
L 345.910159 22.318125 
" clip-path="url(#pfd4c6c9775)" style="fill: none; stroke-dasharray: 5.55,2.4; stroke-dashoffset: 0; stroke: #2f4f4f; stroke-width: 1.5"/>
   </g>
   <g id="line2d_20">
    <path d="M 343.427887 315.158125 
L 343.427887 22.318125 
" clip-path="url(#pfd4c6c9775)" style="fill: none; stroke: #ff0000; stroke-width: 2; stroke-linecap: square"/>
   </g>
   <g id="patch_3">
    <path d="M 46.965625 315.158125 
L 46.965625 22.318125 
" style="fill: none; stroke: #000000; stroke-width: 0.8; stroke-linejoin: miter; stroke-linecap: square"/>
   </g>
   <g id="patch_4">
    <path d="M 446.050625 315.158125 
L 446.050625 22.318125 
" style="fill: none; stroke: #000000; stroke-width: 0.8; stroke-linejoin: miter; stroke-linecap: square"/>
   </g>
   <g id="patch_5">
    <path d="M 46.965625 315.158125 
L 446.050625 315.158125 
" style="fill: none; stroke: #000000; stroke-width: 0.8; stroke-linejoin: miter; stroke-linecap: square"/>
   </g>
   <g id="patch_6">
    <path d="M 46.965625 22.318125 
L 446.050625 22.318125 
" style="fill: none; stroke: #000000; stroke-width: 0.8; stroke-linejoin: miter; stroke-linecap: square"/>
   </g>
   <g id="text_18">
    <!-- Sc Score Distribution for 1CHO -->
    <g transform="translate(154.474688 16.318125) scale(0.12 -0.12)">
     <defs>
      <path id="DejaVuSans-53" d="M 3425 4513 
L 3425 3897 
Q 3066 4069 2747 4153 
Q 2428 4238 2131 4238 
Q 1616 4238 1336 4038 
Q 1056 3838 1056 3469 
Q 1056 3159 1242 3001 
Q 1428 2844 1947 2747 
L 2328 2669 
Q 3034 2534 3370 2195 
Q 3706 1856 3706 1288 
Q 3706 609 3251 259 
Q 2797 -91 1919 -91 
Q 1588 -91 1214 -16 
Q 841 59 441 206 
L 441 856 
Q 825 641 1194 531 
Q 1563 422 1919 422 
Q 2459 422 2753 634 
Q 3047 847 3047 1241 
Q 3047 1584 2836 1778 
Q 2625 1972 2144 2069 
L 1759 2144 
Q 1053 2284 737 2584 
Q 422 2884 422 3419 
Q 422 4038 858 4394 
Q 1294 4750 2059 4750 
Q 2388 4750 2728 4690 
Q 3069 4631 3425 4513 
z
" transform="scale(0.015625)"/>
      <path id="DejaVuSans-44" d="M 1259 4147 
L 1259 519 
L 2022 519 
Q 2988 519 3436 956 
Q 3884 1394 3884 2338 
Q 3884 3275 3436 3711 
Q 2988 4147 2022 4147 
L 1259 4147 
z
M 628 4666 
L 1925 4666 
Q 3281 4666 3915 4102 
Q 4550 3538 4550 2338 
Q 4550 1131 3912 565 
Q 3275 0 1925 0 
L 628 0 
L 628 4666 
z
" transform="scale(0.015625)"/>
      <path id="DejaVuSans-69" d="M 603 3500 
L 1178 3500 
L 1178 0 
L 603 0 
L 603 3500 
z
M 603 4863 
L 1178 4863 
L 1178 4134 
L 603 4134 
L 603 4863 
z
" transform="scale(0.015625)"/>
      <path id="DejaVuSans-62" d="M 3116 1747 
Q 3116 2381 2855 2742 
Q 2594 3103 2138 3103 
Q 1681 3103 1420 2742 
Q 1159 2381 1159 1747 
Q 1159 1113 1420 752 
Q 1681 391 2138 391 
Q 2594 391 2855 752 
Q 3116 1113 3116 1747 
z
M 1159 2969 
Q 1341 3281 1617 3432 
Q 1894 3584 2278 3584 
Q 2916 3584 3314 3078 
Q 3713 2572 3713 1747 
Q 3713 922 3314 415 
Q 2916 -91 2278 -91 
Q 1894 -91 1617 61 
Q 1341 213 1159 525 
L 1159 0 
L 581 0 
L 581 4863 
L 1159 4863 
L 1159 2969 
z
" transform="scale(0.015625)"/>
      <path id="DejaVuSans-66" d="M 2375 4863 
L 2375 4384 
L 1825 4384 
Q 1516 4384 1395 4259 
Q 1275 4134 1275 3809 
L 1275 3500 
L 2222 3500 
L 2222 3053 
L 1275 3053 
L 1275 0 
L 697 0 
L 697 3053 
L 147 3053 
L 147 3500 
L 697 3500 
L 697 3744 
Q 697 4328 969 4595 
Q 1241 4863 1831 4863 
L 2375 4863 
z
" transform="scale(0.015625)"/>
      <path id="DejaVuSans-43" d="M 4122 4306 
L 4122 3641 
Q 3803 3938 3442 4084 
Q 3081 4231 2675 4231 
Q 1875 4231 1450 3742 
Q 1025 3253 1025 2328 
Q 1025 1406 1450 917 
Q 1875 428 2675 428 
Q 3081 428 3442 575 
Q 3803 722 4122 1019 
L 4122 359 
Q 3791 134 3420 21 
Q 3050 -91 2638 -91 
Q 1578 -91 968 557 
Q 359 1206 359 2328 
Q 359 3453 968 4101 
Q 1578 4750 2638 4750 
Q 3056 4750 3426 4639 
Q 3797 4528 4122 4306 
z
" transform="scale(0.015625)"/>
      <path id="DejaVuSans-48" d="M 628 4666 
L 1259 4666 
L 1259 2753 
L 3553 2753 
L 3553 4666 
L 4184 4666 
L 4184 0 
L 3553 0 
L 3553 2222 
L 1259 2222 
L 1259 0 
L 628 0 
L 628 4666 
z
" transform="scale(0.015625)"/>
      <path id="DejaVuSans-4f" d="M 2522 4238 
Q 1834 4238 1429 3725 
Q 1025 3213 1025 2328 
Q 1025 1447 1429 934 
Q 1834 422 2522 422 
Q 3209 422 3611 934 
Q 4013 1447 4013 2328 
Q 4013 3213 3611 3725 
Q 3209 4238 2522 4238 
z
M 2522 4750 
Q 3503 4750 4090 4092 
Q 4678 3434 4678 2328 
Q 4678 1225 4090 567 
Q 3503 -91 2522 -91 
Q 1538 -91 948 565 
Q 359 1222 359 2328 
Q 359 3434 948 4092 
Q 1538 4750 2522 4750 
z
" transform="scale(0.015625)"/>
     </defs>
     <use xlink:href="#DejaVuSans-53"/>
     <use xlink:href="#DejaVuSans-63" transform="translate(63.476562 0)"/>
     <use xlink:href="#DejaVuSans-20" transform="translate(118.457031 0)"/>
     <use xlink:href="#DejaVuSans-53" transform="translate(150.244141 0)"/>
     <use xlink:href="#DejaVuSans-63" transform="translate(213.720703 0)"/>
     <use xlink:href="#DejaVuSans-6f" transform="translate(268.701172 0)"/>
     <use xlink:href="#DejaVuSans-72" transform="translate(329.882812 0)"/>
     <use xlink:href="#DejaVuSans-65" transform="translate(368.746094 0)"/>
     <use xlink:href="#DejaVuSans-20" transform="translate(430.269531 0)"/>
     <use xlink:href="#DejaVuSans-44" transform="translate(462.056641 0)"/>
     <use xlink:href="#DejaVuSans-69" transform="translate(539.058594 0)"/>
     <use xlink:href="#DejaVuSans-73" transform="translate(566.841797 0)"/>
     <use xlink:href="#DejaVuSans-74" transform="translate(618.941406 0)"/>
     <use xlink:href="#DejaVuSans-72" transform="translate(658.150391 0)"/>
     <use xlink:href="#DejaVuSans-69" transform="translate(699.263672 0)"/>
     <use xlink:href="#DejaVuSans-62" transform="translate(727.046875 0)"/>
     <use xlink:href="#DejaVuSans-75" transform="translate(790.523438 0)"/>
     <use xlink:href="#DejaVuSans-74" transform="translate(853.902344 0)"/>
     <use xlink:href="#DejaVuSans-69" transform="translate(893.111328 0)"/>
     <use xlink:href="#DejaVuSans-6f" transform="translate(920.894531 0)"/>
     <use xlink:href="#DejaVuSans-6e" transform="translate(982.076172 0)"/>
     <use xlink:href="#DejaVuSans-20" transform="translate(1045.455078 0)"/>
     <use xlink:href="#DejaVuSans-66" transform="translate(1077.242188 0)"/>
     <use xlink:href="#DejaVuSans-6f" transform="translate(1112.447266 0)"/>
     <use xlink:href="#DejaVuSans-72" transform="translate(1173.628906 0)"/>
     <use xlink:href="#DejaVuSans-20" transform="translate(1214.742188 0)"/>
     <use xlink:href="#DejaVuSans-31" transform="translate(1246.529297 0)"/>
     <use xlink:href="#DejaVuSans-43" transform="translate(1310.152344 0)"/>
     <use xlink:href="#DejaVuSans-48" transform="translate(1379.976562 0)"/>
     <use xlink:href="#DejaVuSans-4f" transform="translate(1455.171875 0)"/>
    </g>
   </g>
   <g id="legend_1">
    <g id="patch_7">
     <path d="M 53.965625 74.90875 
L 207.885938 74.90875 
Q 209.885938 74.90875 209.885938 72.90875 
L 209.885938 29.318125 
Q 209.885938 27.318125 207.885938 27.318125 
L 53.965625 27.318125 
Q 51.965625 27.318125 51.965625 29.318125 
L 51.965625 72.90875 
Q 51.965625 74.90875 53.965625 74.90875 
z
" style="fill: #ffffff; opacity: 0.8; stroke: #cccccc; stroke-linejoin: miter"/>
    </g>
    <g id="line2d_21">
     <path d="M 55.965625 35.416562 
L 65.965625 35.416562 
L 75.965625 35.416562 
" style="fill: none; stroke-dasharray: 5.55,2.4; stroke-dashoffset: 0; stroke: #daa520; stroke-width: 1.5"/>
    </g>
    <g id="text_19">
     <!-- 1CHO_EFG Median: 0.52 -->
     <g transform="translate(83.965625 38.916562) scale(0.1 -0.1)">
      <defs>
       <path id="DejaVuSans-5f" d="M 3263 -1063 
L 3263 -1509 
L -63 -1509 
L -63 -1063 
L 3263 -1063 
z
" transform="scale(0.015625)"/>
       <path id="DejaVuSans-45" d="M 628 4666 
L 3578 4666 
L 3578 4134 
L 1259 4134 
L 1259 2753 
L 3481 2753 
L 3481 2222 
L 1259 2222 
L 1259 531 
L 3634 531 
L 3634 0 
L 628 0 
L 628 4666 
z
" transform="scale(0.015625)"/>
       <path id="DejaVuSans-46" d="M 628 4666 
L 3309 4666 
L 3309 4134 
L 1259 4134 
L 1259 2759 
L 3109 2759 
L 3109 2228 
L 1259 2228 
L 1259 0 
L 628 0 
L 628 4666 
z
" transform="scale(0.015625)"/>
       <path id="DejaVuSans-47" d="M 3809 666 
L 3809 1919 
L 2778 1919 
L 2778 2438 
L 4434 2438 
L 4434 434 
Q 4069 175 3628 42 
Q 3188 -91 2688 -91 
Q 1594 -91 976 548 
Q 359 1188 359 2328 
Q 359 3472 976 4111 
Q 1594 4750 2688 4750 
Q 3144 4750 3555 4637 
Q 3966 4525 4313 4306 
L 4313 3634 
Q 3963 3931 3569 4081 
Q 3175 4231 2741 4231 
Q 1884 4231 1454 3753 
Q 1025 3275 1025 2328 
Q 1025 1384 1454 906 
Q 1884 428 2741 428 
Q 3075 428 3337 486 
Q 3600 544 3809 666 
z
" transform="scale(0.015625)"/>
       <path id="DejaVuSans-4d" d="M 628 4666 
L 1569 4666 
L 2759 1491 
L 3956 4666 
L 4897 4666 
L 4897 0 
L 4281 0 
L 4281 4097 
L 3078 897 
L 2444 897 
L 1241 4097 
L 1241 0 
L 628 0 
L 628 4666 
z
" transform="scale(0.015625)"/>
       <path id="DejaVuSans-64" d="M 2906 2969 
L 2906 4863 
L 3481 4863 
L 3481 0 
L 2906 0 
L 2906 525 
Q 2725 213 2448 61 
Q 2172 -91 1784 -91 
Q 1150 -91 751 415 
Q 353 922 353 1747 
Q 353 2572 751 3078 
Q 1150 3584 1784 3584 
Q 2172 3584 2448 3432 
Q 2725 3281 2906 2969 
z
M 947 1747 
Q 947 1113 1208 752 
Q 1469 391 1925 391 
Q 2381 391 2643 752 
Q 2906 1113 2906 1747 
Q 2906 2381 2643 2742 
Q 2381 3103 1925 3103 
Q 1469 3103 1208 2742 
Q 947 2381 947 1747 
z
" transform="scale(0.015625)"/>
       <path id="DejaVuSans-61" d="M 2194 1759 
Q 1497 1759 1228 1600 
Q 959 1441 959 1056 
Q 959 750 1161 570 
Q 1363 391 1709 391 
Q 2188 391 2477 730 
Q 2766 1069 2766 1631 
L 2766 1759 
L 2194 1759 
z
M 3341 1997 
L 3341 0 
L 2766 0 
L 2766 531 
Q 2569 213 2275 61 
Q 1981 -91 1556 -91 
Q 1019 -91 701 211 
Q 384 513 384 1019 
Q 384 1609 779 1909 
Q 1175 2209 1959 2209 
L 2766 2209 
L 2766 2266 
Q 2766 2663 2505 2880 
Q 2244 3097 1772 3097 
Q 1472 3097 1187 3025 
Q 903 2953 641 2809 
L 641 3341 
Q 956 3463 1253 3523 
Q 1550 3584 1831 3584 
Q 2591 3584 2966 3190 
Q 3341 2797 3341 1997 
z
" transform="scale(0.015625)"/>
       <path id="DejaVuSans-3a" d="M 750 794 
L 1409 794 
L 1409 0 
L 750 0 
L 750 794 
z
M 750 3309 
L 1409 3309 
L 1409 2516 
L 750 2516 
L 750 3309 
z
" transform="scale(0.015625)"/>
      </defs>
      <use xlink:href="#DejaVuSans-31"/>
      <use xlink:href="#DejaVuSans-43" transform="translate(63.623047 0)"/>
      <use xlink:href="#DejaVuSans-48" transform="translate(133.447266 0)"/>
      <use xlink:href="#DejaVuSans-4f" transform="translate(208.642578 0)"/>
      <use xlink:href="#DejaVuSans-5f" transform="translate(287.353516 0)"/>
      <use xlink:href="#DejaVuSans-45" transform="translate(337.353516 0)"/>
      <use xlink:href="#DejaVuSans-46" transform="translate(400.537109 0)"/>
      <use xlink:href="#DejaVuSans-47" transform="translate(458.056641 0)"/>
      <use xlink:href="#DejaVuSans-20" transform="translate(535.546875 0)"/>
      <use xlink:href="#DejaVuSans-4d" transform="translate(567.333984 0)"/>
      <use xlink:href="#DejaVuSans-65" transform="translate(653.613281 0)"/>
      <use xlink:href="#DejaVuSans-64" transform="translate(715.136719 0)"/>
      <use xlink:href="#DejaVuSans-69" transform="translate(778.613281 0)"/>
      <use xlink:href="#DejaVuSans-61" transform="translate(806.396484 0)"/>
      <use xlink:href="#DejaVuSans-6e" transform="translate(867.675781 0)"/>
      <use xlink:href="#DejaVuSans-3a" transform="translate(931.054688 0)"/>
      <use xlink:href="#DejaVuSans-20" transform="translate(964.746094 0)"/>
      <use xlink:href="#DejaVuSans-30" transform="translate(996.533203 0)"/>
      <use xlink:href="#DejaVuSans-2e" transform="translate(1060.15625 0)"/>
      <use xlink:href="#DejaVuSans-35" transform="translate(1091.943359 0)"/>
      <use xlink:href="#DejaVuSans-32" transform="translate(1155.566406 0)"/>
     </g>
    </g>
    <g id="line2d_22">
     <path d="M 55.965625 50.372813 
L 65.965625 50.372813 
L 75.965625 50.372813 
" style="fill: none; stroke-dasharray: 5.55,2.4; stroke-dashoffset: 0; stroke: #2f4f4f; stroke-width: 1.5"/>
    </g>
    <g id="text_20">
     <!-- 1CHO_I Median: 0.55 -->
     <g transform="translate(83.965625 53.872813) scale(0.1 -0.1)">
      <defs>
       <path id="DejaVuSans-49" d="M 628 4666 
L 1259 4666 
L 1259 0 
L 628 0 
L 628 4666 
z
" transform="scale(0.015625)"/>
      </defs>
      <use xlink:href="#DejaVuSans-31"/>
      <use xlink:href="#DejaVuSans-43" transform="translate(63.623047 0)"/>
      <use xlink:href="#DejaVuSans-48" transform="translate(133.447266 0)"/>
      <use xlink:href="#DejaVuSans-4f" transform="translate(208.642578 0)"/>
      <use xlink:href="#DejaVuSans-5f" transform="translate(287.353516 0)"/>
      <use xlink:href="#DejaVuSans-49" transform="translate(337.353516 0)"/>
      <use xlink:href="#DejaVuSans-20" transform="translate(366.845703 0)"/>
      <use xlink:href="#DejaVuSans-4d" transform="translate(398.632812 0)"/>
      <use xlink:href="#DejaVuSans-65" transform="translate(484.912109 0)"/>
      <use xlink:href="#DejaVuSans-64" transform="translate(546.435547 0)"/>
      <use xlink:href="#DejaVuSans-69" transform="translate(609.912109 0)"/>
      <use xlink:href="#DejaVuSans-61" transform="translate(637.695312 0)"/>
      <use xlink:href="#DejaVuSans-6e" transform="translate(698.974609 0)"/>
      <use xlink:href="#DejaVuSans-3a" transform="translate(762.353516 0)"/>
      <use xlink:href="#DejaVuSans-20" transform="translate(796.044922 0)"/>
      <use xlink:href="#DejaVuSans-30" transform="translate(827.832031 0)"/>
      <use xlink:href="#DejaVuSans-2e" transform="translate(891.455078 0)"/>
      <use xlink:href="#DejaVuSans-35" transform="translate(923.242188 0)"/>
      <use xlink:href="#DejaVuSans-35" transform="translate(986.865234 0)"/>
     </g>
    </g>
    <g id="line2d_23">
     <path d="M 55.965625 65.329063 
L 65.965625 65.329063 
L 75.965625 65.329063 
" style="fill: none; stroke: #ff0000; stroke-width: 2; stroke-linecap: square"/>
    </g>
    <g id="text_21">
     <!-- Sc Score: 0.53 -->
     <g transform="translate(83.965625 68.829063) scale(0.1 -0.1)">
      <defs>
       <path id="DejaVuSans-33" d="M 2597 2516 
Q 3050 2419 3304 2112 
Q 3559 1806 3559 1356 
Q 3559 666 3084 287 
Q 2609 -91 1734 -91 
Q 1441 -91 1130 -33 
Q 819 25 488 141 
L 488 750 
Q 750 597 1062 519 
Q 1375 441 1716 441 
Q 2309 441 2620 675 
Q 2931 909 2931 1356 
Q 2931 1769 2642 2001 
Q 2353 2234 1838 2234 
L 1294 2234 
L 1294 2753 
L 1863 2753 
Q 2328 2753 2575 2939 
Q 2822 3125 2822 3475 
Q 2822 3834 2567 4026 
Q 2313 4219 1838 4219 
Q 1578 4219 1281 4162 
Q 984 4106 628 3988 
L 628 4550 
Q 988 4650 1302 4700 
Q 1616 4750 1894 4750 
Q 2613 4750 3031 4423 
Q 3450 4097 3450 3541 
Q 3450 3153 3228 2886 
Q 3006 2619 2597 2516 
z
" transform="scale(0.015625)"/>
      </defs>
      <use xlink:href="#DejaVuSans-53"/>
      <use xlink:href="#DejaVuSans-63" transform="translate(63.476562 0)"/>
      <use xlink:href="#DejaVuSans-20" transform="translate(118.457031 0)"/>
      <use xlink:href="#DejaVuSans-53" transform="translate(150.244141 0)"/>
      <use xlink:href="#DejaVuSans-63" transform="translate(213.720703 0)"/>
      <use xlink:href="#DejaVuSans-6f" transform="translate(268.701172 0)"/>
      <use xlink:href="#DejaVuSans-72" transform="translate(329.882812 0)"/>
      <use xlink:href="#DejaVuSans-65" transform="translate(368.746094 0)"/>
      <use xlink:href="#DejaVuSans-3a" transform="translate(430.269531 0)"/>
      <use xlink:href="#DejaVuSans-20" transform="translate(463.960938 0)"/>
      <use xlink:href="#DejaVuSans-30" transform="translate(495.748047 0)"/>
      <use xlink:href="#DejaVuSans-2e" transform="translate(559.371094 0)"/>
      <use xlink:href="#DejaVuSans-35" transform="translate(591.158203 0)"/>
      <use xlink:href="#DejaVuSans-33" transform="translate(654.78125 0)"/>
     </g>
    </g>
   </g>
  </g>
 </g>
 <defs>
  <clipPath id="pfd4c6c9775">
   <rect x="46.965625" y="22.318125" width="399.085" height="292.84"/>
  </clipPath>
 </defs>
</svg>
