<?xml version="1.0" encoding="utf-8" standalone="no"?>
<!DOCTYPE svg PUBLIC "-//W3C//DTD SVG 1.1//EN"
  "http://www.w3.org/Graphics/SVG/1.1/DTD/svg11.dtd">
<svg xmlns:xlink="http://www.w3.org/1999/xlink" width="453.250625pt" height="352.714375pt" viewBox="0 0 453.250625 352.714375" xmlns="http://www.w3.org/2000/svg" version="1.1">
 <metadata>
  <rdf:RDF xmlns:dc="http://purl.org/dc/elements/1.1/" xmlns:cc="http://creativecommons.org/ns#" xmlns:rdf="http://www.w3.org/1999/02/22-rdf-syntax-ns#">
   <cc:Work>
    <dc:type rdf:resource="http://purl.org/dc/dcmitype/StillImage"/>
    <dc:date>2025-09-02T15:10:26.252937</dc:date>
    <dc:format>image/svg+xml</dc:format>
    <dc:creator>
     <cc:Agent>
      <dc:title>Matplotlib v3.10.5, https://matplotlib.org/</dc:title>
     </cc:Agent>
    </dc:creator>
   </cc:Work>
  </rdf:RDF>
 </metadata>
 <defs>
  <style type="text/css">*{stroke-linejoin: round; stroke-linecap: butt}</style>
 </defs>
 <g id="figure_1">
  <g id="patch_1">
   <path d="M 0 352.714375 
L 453.250625 352.714375 
L 453.250625 0 
L 0 0 
z
" style="fill: #ffffff"/>
  </g>
  <g id="axes_1">
   <g id="patch_2">
    <path d="M 46.965625 315.158125 
L 446.050625 315.158125 
L 446.050625 22.318125 
L 46.965625 22.318125 
z
" style="fill: #ffffff"/>
   </g>
   <g id="FillBetweenPolyCollection_1">
    <defs>
     <path id="m5875ee7d9c" d="M 65.105852 -37.55625 
L 65.105852 -37.55625 
L 68.733898 -37.55625 
L 68.733898 -37.55625 
L 72.361943 -37.55625 
L 72.361943 -37.55625 
L 75.989989 -37.55625 
L 75.989989 -37.55625 
L 79.618034 -37.55625 
L 79.618034 -37.55625 
L 83.24608 -37.55625 
L 83.24608 -37.55625 
L 86.874125 -37.55625 
L 86.874125 -37.55625 
L 90.50217 -37.55625 
L 90.50217 -37.55625 
L 94.130216 -37.55625 
L 94.130216 -37.55625 
L 97.758261 -37.55625 
L 97.758261 -37.55625 
L 101.386307 -37.55625 
L 101.386307 -37.55625 
L 105.014352 -37.55625 
L 105.014352 -37.55625 
L 108.642398 -37.55625 
L 108.642398 -37.55625 
L 112.270443 -37.55625 
L 112.270443 -37.55625 
L 115.898489 -37.55625 
L 115.898489 -37.55625 
L 119.526534 -37.55625 
L 119.526534 -37.55625 
L 123.15458 -37.55625 
L 123.15458 -37.55625 
L 126.782625 -37.55625 
L 126.782625 -37.55625 
L 130.41067 -37.55625 
L 130.41067 -37.55625 
L 134.038716 -37.55625 
L 134.038716 -37.55625 
L 137.666761 -37.55625 
L 137.666761 -37.55625 
L 141.294807 -37.55625 
L 141.294807 -37.55625 
L 144.922852 -37.55625 
L 144.922852 -37.55625 
L 148.550898 -37.55625 
L 148.550898 -37.55625 
L 152.178943 -37.55625 
L 152.178943 -37.55625 
L 155.806989 -37.55625 
L 155.806989 -37.55625 
L 159.435034 -37.55625 
L 159.435034 -37.55625 
L 163.06308 -37.55625 
L 163.06308 -37.55625 
L 166.691125 -37.55625 
L 166.691125 -37.55625 
L 170.31917 -37.55625 
L 170.31917 -37.55625 
L 173.947216 -37.55625 
L 173.947216 -37.55625 
L 177.575261 -37.55625 
L 177.575261 -37.55625 
L 181.203307 -37.55625 
L 181.203307 -37.55625 
L 184.831352 -37.55625 
L 184.831352 -37.55625 
L 188.459398 -37.55625 
L 188.459398 -37.55625 
L 192.087443 -37.55625 
L 192.087443 -37.55625 
L 195.715489 -37.55625 
L 195.715489 -37.55625 
L 199.343534 -37.55625 
L 199.343534 -37.55625 
L 202.97158 -37.55625 
L 202.97158 -37.55625 
L 206.599625 -37.55625 
L 206.599625 -37.55625 
L 210.22767 -37.55625 
L 210.22767 -37.55625 
L 213.855716 -37.55625 
L 213.855716 -37.55625 
L 217.483761 -37.55625 
L 217.483761 -37.55625 
L 221.111807 -37.55625 
L 221.111807 -37.55625 
L 224.739852 -37.55625 
L 224.739852 -37.55625 
L 228.367898 -37.55625 
L 228.367898 -37.55625 
L 231.995943 -37.55625 
L 231.995943 -37.55625 
L 235.623989 -37.55625 
L 235.623989 -37.55625 
L 239.252034 -37.55625 
L 239.252034 -37.55625 
L 242.88008 -37.55625 
L 242.88008 -37.55625 
L 246.508125 -37.55625 
L 246.508125 -37.55625 
L 250.13617 -37.55625 
L 250.13617 -37.55625 
L 253.764216 -37.55625 
L 253.764216 -37.55625 
L 257.392261 -37.55625 
L 257.392261 -37.55625 
L 261.020307 -37.55625 
L 261.020307 -37.55625 
L 264.648352 -37.55625 
L 264.648352 -37.55625 
L 268.276398 -37.55625 
L 268.276398 -37.55625 
L 271.904443 -37.55625 
L 271.904443 -37.55625 
L 275.532489 -37.55625 
L 275.532489 -37.55625 
L 279.160534 -37.55625 
L 279.160534 -37.55625 
L 282.78858 -37.55625 
L 282.78858 -37.55625 
L 286.416625 -37.55625 
L 286.416625 -37.55625 
L 290.04467 -37.55625 
L 290.04467 -37.55625 
L 293.672716 -37.55625 
L 293.672716 -37.55625 
L 297.300761 -37.55625 
L 297.300761 -37.55625 
L 300.928807 -37.55625 
L 300.928807 -37.55625 
L 304.556852 -37.55625 
L 304.556852 -37.55625 
L 308.184898 -37.55625 
L 308.184898 -37.55625 
L 311.812943 -37.55625 
L 311.812943 -37.55625 
L 315.440989 -37.55625 
L 315.440989 -37.55625 
L 319.069034 -37.55625 
L 319.069034 -37.55625 
L 322.69708 -37.55625 
L 322.69708 -37.55625 
L 326.325125 -37.55625 
L 326.325125 -37.55625 
L 329.95317 -37.55625 
L 329.95317 -37.55625 
L 333.581216 -37.55625 
L 333.581216 -37.55625 
L 337.209261 -37.55625 
L 337.209261 -37.55625 
L 340.837307 -37.55625 
L 340.837307 -37.55625 
L 344.465352 -37.55625 
L 344.465352 -37.55625 
L 348.093398 -37.55625 
L 348.093398 -37.55625 
L 351.721443 -37.55625 
L 351.721443 -37.55625 
L 355.349489 -37.55625 
L 355.349489 -37.55625 
L 358.977534 -37.55625 
L 358.977534 -37.55625 
L 362.60558 -37.55625 
L 362.60558 -37.55625 
L 366.233625 -37.55625 
L 366.233625 -37.55625 
L 369.86167 -37.55625 
L 369.86167 -37.55625 
L 373.489716 -37.55625 
L 373.489716 -37.55625 
L 377.117761 -37.55625 
L 377.117761 -37.55625 
L 380.745807 -37.55625 
L 380.745807 -37.55625 
L 384.373852 -37.55625 
L 384.373852 -37.55625 
L 388.001898 -37.55625 
L 388.001898 -37.55625 
L 391.629943 -37.55625 
L 391.629943 -37.55625 
L 395.257989 -37.55625 
L 395.257989 -37.55625 
L 398.886034 -37.55625 
L 398.886034 -37.55625 
L 402.51408 -37.55625 
L 402.51408 -37.55625 
L 406.142125 -37.55625 
L 406.142125 -37.55625 
L 409.77017 -37.55625 
L 409.77017 -37.55625 
L 413.398216 -37.55625 
L 413.398216 -37.55625 
L 417.026261 -37.55625 
L 417.026261 -37.55625 
L 420.654307 -37.55625 
L 420.654307 -37.55625 
L 424.282352 -37.55625 
L 424.282352 -37.55625 
L 427.910398 -37.55625 
L 427.910398 -37.55625 
L 427.910398 -63.867122 
L 427.910398 -63.867122 
L 427.910398 -63.867122 
L 424.282352 -63.867122 
L 424.282352 -72.637412 
L 420.654307 -72.637412 
L 420.654307 -141.045678 
L 417.026261 -141.045678 
L 417.026261 -184.897131 
L 413.398216 -184.897131 
L 413.398216 -188.405247 
L 409.77017 -188.405247 
L 409.77017 -191.913363 
L 406.142125 -191.913363 
L 406.142125 -214.716118 
L 402.51408 -214.716118 
L 402.51408 -212.96206 
L 398.886034 -212.96206 
L 398.886034 -225.240467 
L 395.257989 -225.240467 
L 395.257989 -277.86221 
L 391.629943 -277.86221 
L 391.629943 -260.321629 
L 388.001898 -260.321629 
L 388.001898 -211.208002 
L 384.373852 -211.208002 
L 384.373852 -235.764815 
L 380.745807 -235.764815 
L 380.745807 -256.813513 
L 377.117761 -256.813513 
L 377.117761 -269.091919 
L 373.489716 -269.091919 
L 373.489716 -209.453944 
L 369.86167 -209.453944 
L 369.86167 -237.518874 
L 366.233625 -237.518874 
L 366.233625 -242.781048 
L 362.60558 -242.781048 
L 362.60558 -251.551338 
L 358.977534 -251.551338 
L 358.977534 -244.535106 
L 355.349489 -244.535106 
L 355.349489 -225.240467 
L 351.721443 -225.240467 
L 351.721443 -246.289164 
L 348.093398 -246.289164 
L 348.093398 -256.813513 
L 344.465352 -256.813513 
L 344.465352 -274.354094 
L 340.837307 -274.354094 
L 340.837307 -265.583803 
L 337.209261 -265.583803 
L 337.209261 -241.02699 
L 333.581216 -241.02699 
L 333.581216 -246.289164 
L 329.95317 -246.289164 
L 329.95317 -269.091919 
L 326.325125 -269.091919 
L 326.325125 -277.86221 
L 322.69708 -277.86221 
L 322.69708 -283.124384 
L 319.069034 -283.124384 
L 319.069034 -290.140617 
L 315.440989 -290.140617 
L 315.440989 -246.289164 
L 311.812943 -246.289164 
L 311.812943 -256.813513 
L 308.184898 -256.813513 
L 308.184898 -260.321629 
L 304.556852 -260.321629 
L 304.556852 -263.829745 
L 300.928807 -263.829745 
L 300.928807 -211.208002 
L 297.300761 -211.208002 
L 297.300761 -237.518874 
L 293.672716 -237.518874 
L 293.672716 -228.748583 
L 290.04467 -228.748583 
L 290.04467 -228.748583 
L 286.416625 -228.748583 
L 286.416625 -286.6325 
L 282.78858 -286.6325 
L 282.78858 -295.402791 
L 279.160534 -295.402791 
L 279.160534 -302.419023 
L 275.532489 -302.419023 
L 275.532489 -269.091919 
L 271.904443 -269.091919 
L 271.904443 -302.419023 
L 268.276398 -302.419023 
L 268.276398 -291.894675 
L 264.648352 -291.894675 
L 264.648352 -276.108152 
L 261.020307 -276.108152 
L 261.020307 -255.059455 
L 257.392261 -255.059455 
L 257.392261 -288.386558 
L 253.764216 -288.386558 
L 253.764216 -237.518874 
L 250.13617 -237.518874 
L 250.13617 -216.470176 
L 246.508125 -216.470176 
L 246.508125 -155.078143 
L 242.88008 -155.078143 
L 242.88008 -90.177993 
L 239.252034 -90.177993 
L 239.252034 -84.915819 
L 235.623989 -84.915819 
L 235.623989 -63.867122 
L 231.995943 -63.867122 
L 231.995943 -67.375238 
L 228.367898 -67.375238 
L 228.367898 -48.080599 
L 224.739852 -48.080599 
L 224.739852 -44.572482 
L 221.111807 -44.572482 
L 221.111807 -44.572482 
L 217.483761 -44.572482 
L 217.483761 -44.572482 
L 213.855716 -44.572482 
L 213.855716 -42.818424 
L 210.22767 -42.818424 
L 210.22767 -37.55625 
L 206.599625 -37.55625 
L 206.599625 -39.310308 
L 202.97158 -39.310308 
L 202.97158 -39.310308 
L 199.343534 -39.310308 
L 199.343534 -37.55625 
L 195.715489 -37.55625 
L 195.715489 -37.55625 
L 192.087443 -37.55625 
L 192.087443 -37.55625 
L 188.459398 -37.55625 
L 188.459398 -37.55625 
L 184.831352 -37.55625 
L 184.831352 -37.55625 
L 181.203307 -37.55625 
L 181.203307 -37.55625 
L 177.575261 -37.55625 
L 177.575261 -37.55625 
L 173.947216 -37.55625 
L 173.947216 -37.55625 
L 170.31917 -37.55625 
L 170.31917 -37.55625 
L 166.691125 -37.55625 
L 166.691125 -37.55625 
L 163.06308 -37.55625 
L 163.06308 -37.55625 
L 159.435034 -37.55625 
L 159.435034 -37.55625 
L 155.806989 -37.55625 
L 155.806989 -37.55625 
L 152.178943 -37.55625 
L 152.178943 -37.55625 
L 148.550898 -37.55625 
L 148.550898 -37.55625 
L 144.922852 -37.55625 
L 144.922852 -37.55625 
L 141.294807 -37.55625 
L 141.294807 -37.55625 
L 137.666761 -37.55625 
L 137.666761 -37.55625 
L 134.038716 -37.55625 
L 134.038716 -37.55625 
L 130.41067 -37.55625 
L 130.41067 -37.55625 
L 126.782625 -37.55625 
L 126.782625 -37.55625 
L 123.15458 -37.55625 
L 123.15458 -37.55625 
L 119.526534 -37.55625 
L 119.526534 -37.55625 
L 115.898489 -37.55625 
L 115.898489 -37.55625 
L 112.270443 -37.55625 
L 112.270443 -37.55625 
L 108.642398 -37.55625 
L 108.642398 -37.55625 
L 105.014352 -37.55625 
L 105.014352 -37.55625 
L 101.386307 -37.55625 
L 101.386307 -37.55625 
L 97.758261 -37.55625 
L 97.758261 -37.55625 
L 94.130216 -37.55625 
L 94.130216 -37.55625 
L 90.50217 -37.55625 
L 90.50217 -37.55625 
L 86.874125 -37.55625 
L 86.874125 -37.55625 
L 83.24608 -37.55625 
L 83.24608 -37.55625 
L 79.618034 -37.55625 
L 79.618034 -37.55625 
L 75.989989 -37.55625 
L 75.989989 -37.55625 
L 72.361943 -37.55625 
L 72.361943 -37.55625 
L 68.733898 -37.55625 
L 68.733898 -37.55625 
L 65.105852 -37.55625 
z
" style="stroke: #2f4f4f"/>
    </defs>
    <g clip-path="url(#p7e3d1935d1)">
     <use xlink:href="#m5875ee7d9c" x="0" y="352.714375" style="fill: #2f4f4f; fill-opacity: 0.3; stroke: #2f4f4f"/>
    </g>
   </g>
   <g id="FillBetweenPolyCollection_2">
    <defs>
     <path id="m6f75ce5401" d="M 65.105852 -37.55625 
L 65.105852 -37.55625 
L 68.733898 -37.55625 
L 68.733898 -37.55625 
L 72.361943 -37.55625 
L 72.361943 -37.55625 
L 75.989989 -37.55625 
L 75.989989 -37.55625 
L 79.618034 -37.55625 
L 79.618034 -37.55625 
L 83.24608 -37.55625 
L 83.24608 -37.55625 
L 86.874125 -37.55625 
L 86.874125 -37.55625 
L 90.50217 -37.55625 
L 90.50217 -37.55625 
L 94.130216 -37.55625 
L 94.130216 -37.55625 
L 97.758261 -37.55625 
L 97.758261 -37.55625 
L 101.386307 -37.55625 
L 101.386307 -37.55625 
L 105.014352 -37.55625 
L 105.014352 -37.55625 
L 108.642398 -37.55625 
L 108.642398 -37.55625 
L 112.270443 -37.55625 
L 112.270443 -37.55625 
L 115.898489 -37.55625 
L 115.898489 -37.55625 
L 119.526534 -37.55625 
L 119.526534 -37.55625 
L 123.15458 -37.55625 
L 123.15458 -37.55625 
L 126.782625 -37.55625 
L 126.782625 -37.55625 
L 130.41067 -37.55625 
L 130.41067 -37.55625 
L 134.038716 -37.55625 
L 134.038716 -37.55625 
L 137.666761 -37.55625 
L 137.666761 -37.55625 
L 141.294807 -37.55625 
L 141.294807 -37.55625 
L 144.922852 -37.55625 
L 144.922852 -37.55625 
L 148.550898 -37.55625 
L 148.550898 -37.55625 
L 152.178943 -37.55625 
L 152.178943 -37.55625 
L 155.806989 -37.55625 
L 155.806989 -37.55625 
L 159.435034 -37.55625 
L 159.435034 -37.55625 
L 163.06308 -37.55625 
L 163.06308 -37.55625 
L 166.691125 -37.55625 
L 166.691125 -37.55625 
L 170.31917 -37.55625 
L 170.31917 -37.55625 
L 173.947216 -37.55625 
L 173.947216 -37.55625 
L 177.575261 -37.55625 
L 177.575261 -37.55625 
L 181.203307 -37.55625 
L 181.203307 -37.55625 
L 184.831352 -37.55625 
L 184.831352 -37.55625 
L 188.459398 -37.55625 
L 188.459398 -37.55625 
L 192.087443 -37.55625 
L 192.087443 -37.55625 
L 195.715489 -37.55625 
L 195.715489 -37.55625 
L 199.343534 -37.55625 
L 199.343534 -37.55625 
L 202.97158 -37.55625 
L 202.97158 -37.55625 
L 206.599625 -37.55625 
L 206.599625 -37.55625 
L 210.22767 -37.55625 
L 210.22767 -37.55625 
L 213.855716 -37.55625 
L 213.855716 -37.55625 
L 217.483761 -37.55625 
L 217.483761 -37.55625 
L 221.111807 -37.55625 
L 221.111807 -37.55625 
L 224.739852 -37.55625 
L 224.739852 -37.55625 
L 228.367898 -37.55625 
L 228.367898 -37.55625 
L 231.995943 -37.55625 
L 231.995943 -37.55625 
L 235.623989 -37.55625 
L 235.623989 -37.55625 
L 239.252034 -37.55625 
L 239.252034 -37.55625 
L 242.88008 -37.55625 
L 242.88008 -37.55625 
L 246.508125 -37.55625 
L 246.508125 -37.55625 
L 250.13617 -37.55625 
L 250.13617 -37.55625 
L 253.764216 -37.55625 
L 253.764216 -37.55625 
L 257.392261 -37.55625 
L 257.392261 -37.55625 
L 261.020307 -37.55625 
L 261.020307 -37.55625 
L 264.648352 -37.55625 
L 264.648352 -37.55625 
L 268.276398 -37.55625 
L 268.276398 -37.55625 
L 271.904443 -37.55625 
L 271.904443 -37.55625 
L 275.532489 -37.55625 
L 275.532489 -37.55625 
L 279.160534 -37.55625 
L 279.160534 -37.55625 
L 282.78858 -37.55625 
L 282.78858 -37.55625 
L 286.416625 -37.55625 
L 286.416625 -37.55625 
L 290.04467 -37.55625 
L 290.04467 -37.55625 
L 293.672716 -37.55625 
L 293.672716 -37.55625 
L 297.300761 -37.55625 
L 297.300761 -37.55625 
L 300.928807 -37.55625 
L 300.928807 -37.55625 
L 304.556852 -37.55625 
L 304.556852 -37.55625 
L 308.184898 -37.55625 
L 308.184898 -37.55625 
L 311.812943 -37.55625 
L 311.812943 -37.55625 
L 315.440989 -37.55625 
L 315.440989 -37.55625 
L 319.069034 -37.55625 
L 319.069034 -37.55625 
L 322.69708 -37.55625 
L 322.69708 -37.55625 
L 326.325125 -37.55625 
L 326.325125 -37.55625 
L 329.95317 -37.55625 
L 329.95317 -37.55625 
L 333.581216 -37.55625 
L 333.581216 -37.55625 
L 337.209261 -37.55625 
L 337.209261 -37.55625 
L 340.837307 -37.55625 
L 340.837307 -37.55625 
L 344.465352 -37.55625 
L 344.465352 -37.55625 
L 348.093398 -37.55625 
L 348.093398 -37.55625 
L 351.721443 -37.55625 
L 351.721443 -37.55625 
L 355.349489 -37.55625 
L 355.349489 -37.55625 
L 358.977534 -37.55625 
L 358.977534 -37.55625 
L 362.60558 -37.55625 
L 362.60558 -37.55625 
L 366.233625 -37.55625 
L 366.233625 -37.55625 
L 369.86167 -37.55625 
L 369.86167 -37.55625 
L 373.489716 -37.55625 
L 373.489716 -37.55625 
L 377.117761 -37.55625 
L 377.117761 -37.55625 
L 380.745807 -37.55625 
L 380.745807 -37.55625 
L 384.373852 -37.55625 
L 384.373852 -37.55625 
L 388.001898 -37.55625 
L 388.001898 -37.55625 
L 391.629943 -37.55625 
L 391.629943 -37.55625 
L 395.257989 -37.55625 
L 395.257989 -37.55625 
L 398.886034 -37.55625 
L 398.886034 -37.55625 
L 402.51408 -37.55625 
L 402.51408 -37.55625 
L 406.142125 -37.55625 
L 406.142125 -37.55625 
L 409.77017 -37.55625 
L 409.77017 -37.55625 
L 413.398216 -37.55625 
L 413.398216 -37.55625 
L 417.026261 -37.55625 
L 417.026261 -37.55625 
L 420.654307 -37.55625 
L 420.654307 -37.55625 
L 424.282352 -37.55625 
L 424.282352 -37.55625 
L 427.910398 -37.55625 
L 427.910398 -37.55625 
L 427.910398 -60.359005 
L 427.910398 -60.359005 
L 427.910398 -60.359005 
L 424.282352 -60.359005 
L 424.282352 -79.653644 
L 420.654307 -79.653644 
L 420.654307 -144.553794 
L 417.026261 -144.553794 
L 417.026261 -193.667421 
L 413.398216 -193.667421 
L 413.398216 -209.453944 
L 409.77017 -209.453944 
L 409.77017 -204.19177 
L 406.142125 -204.19177 
L 406.142125 -214.716118 
L 402.51408 -214.716118 
L 402.51408 -218.224234 
L 398.886034 -218.224234 
L 398.886034 -225.240467 
L 395.257989 -225.240467 
L 395.257989 -246.289164 
L 391.629943 -246.289164 
L 391.629943 -297.156849 
L 388.001898 -297.156849 
L 388.001898 -218.224234 
L 384.373852 -218.224234 
L 384.373852 -225.240467 
L 380.745807 -225.240467 
L 380.745807 -234.010757 
L 377.117761 -234.010757 
L 377.117761 -221.732351 
L 373.489716 -221.732351 
L 373.489716 -216.470176 
L 369.86167 -216.470176 
L 369.86167 -272.600036 
L 366.233625 -272.600036 
L 366.233625 -274.354094 
L 362.60558 -274.354094 
L 362.60558 -239.272932 
L 358.977534 -239.272932 
L 358.977534 -286.6325 
L 355.349489 -286.6325 
L 355.349489 -284.878442 
L 351.721443 -284.878442 
L 351.721443 -284.878442 
L 348.093398 -284.878442 
L 348.093398 -274.354094 
L 344.465352 -274.354094 
L 344.465352 -304.173081 
L 340.837307 -304.173081 
L 340.837307 -316.451488 
L 337.209261 -316.451488 
L 337.209261 -293.648733 
L 333.581216 -293.648733 
L 333.581216 -288.386558 
L 329.95317 -288.386558 
L 329.95317 -276.108152 
L 326.325125 -276.108152 
L 326.325125 -272.600036 
L 322.69708 -272.600036 
L 322.69708 -260.321629 
L 319.069034 -260.321629 
L 319.069034 -302.419023 
L 315.440989 -302.419023 
L 315.440989 -255.059455 
L 311.812943 -255.059455 
L 311.812943 -262.075687 
L 308.184898 -262.075687 
L 308.184898 -246.289164 
L 304.556852 -246.289164 
L 304.556852 -276.108152 
L 300.928807 -276.108152 
L 300.928807 -255.059455 
L 297.300761 -255.059455 
L 297.300761 -219.978293 
L 293.672716 -219.978293 
L 293.672716 -262.075687 
L 290.04467 -262.075687 
L 290.04467 -253.305396 
L 286.416625 -253.305396 
L 286.416625 -225.240467 
L 282.78858 -225.240467 
L 282.78858 -288.386558 
L 279.160534 -288.386558 
L 279.160534 -300.664965 
L 275.532489 -300.664965 
L 275.532489 -302.419023 
L 271.904443 -302.419023 
L 271.904443 -291.894675 
L 268.276398 -291.894675 
L 268.276398 -270.845977 
L 264.648352 -270.845977 
L 264.648352 -298.910907 
L 261.020307 -298.910907 
L 261.020307 -277.86221 
L 257.392261 -277.86221 
L 257.392261 -302.419023 
L 253.764216 -302.419023 
L 253.764216 -267.337861 
L 250.13617 -267.337861 
L 250.13617 -281.370326 
L 246.508125 -281.370326 
L 246.508125 -225.240467 
L 242.88008 -225.240467 
L 242.88008 -139.29162 
L 239.252034 -139.29162 
L 239.252034 -104.210458 
L 235.623989 -104.210458 
L 235.623989 -70.883354 
L 231.995943 -70.883354 
L 231.995943 -60.359005 
L 228.367898 -60.359005 
L 228.367898 -49.834657 
L 224.739852 -49.834657 
L 224.739852 -46.326541 
L 221.111807 -46.326541 
L 221.111807 -53.342773 
L 217.483761 -53.342773 
L 217.483761 -46.326541 
L 213.855716 -46.326541 
L 213.855716 -41.064366 
L 210.22767 -41.064366 
L 210.22767 -41.064366 
L 206.599625 -41.064366 
L 206.599625 -39.310308 
L 202.97158 -39.310308 
L 202.97158 -37.55625 
L 199.343534 -37.55625 
L 199.343534 -37.55625 
L 195.715489 -37.55625 
L 195.715489 -37.55625 
L 192.087443 -37.55625 
L 192.087443 -37.55625 
L 188.459398 -37.55625 
L 188.459398 -37.55625 
L 184.831352 -37.55625 
L 184.831352 -37.55625 
L 181.203307 -37.55625 
L 181.203307 -37.55625 
L 177.575261 -37.55625 
L 177.575261 -37.55625 
L 173.947216 -37.55625 
L 173.947216 -37.55625 
L 170.31917 -37.55625 
L 170.31917 -37.55625 
L 166.691125 -37.55625 
L 166.691125 -37.55625 
L 163.06308 -37.55625 
L 163.06308 -37.55625 
L 159.435034 -37.55625 
L 159.435034 -37.55625 
L 155.806989 -37.55625 
L 155.806989 -37.55625 
L 152.178943 -37.55625 
L 152.178943 -37.55625 
L 148.550898 -37.55625 
L 148.550898 -37.55625 
L 144.922852 -37.55625 
L 144.922852 -37.55625 
L 141.294807 -37.55625 
L 141.294807 -37.55625 
L 137.666761 -37.55625 
L 137.666761 -37.55625 
L 134.038716 -37.55625 
L 134.038716 -37.55625 
L 130.41067 -37.55625 
L 130.41067 -37.55625 
L 126.782625 -37.55625 
L 126.782625 -37.55625 
L 123.15458 -37.55625 
L 123.15458 -37.55625 
L 119.526534 -37.55625 
L 119.526534 -37.55625 
L 115.898489 -37.55625 
L 115.898489 -37.55625 
L 112.270443 -37.55625 
L 112.270443 -37.55625 
L 108.642398 -37.55625 
L 108.642398 -37.55625 
L 105.014352 -37.55625 
L 105.014352 -37.55625 
L 101.386307 -37.55625 
L 101.386307 -37.55625 
L 97.758261 -37.55625 
L 97.758261 -37.55625 
L 94.130216 -37.55625 
L 94.130216 -37.55625 
L 90.50217 -37.55625 
L 90.50217 -37.55625 
L 86.874125 -37.55625 
L 86.874125 -37.55625 
L 83.24608 -37.55625 
L 83.24608 -37.55625 
L 79.618034 -37.55625 
L 79.618034 -37.55625 
L 75.989989 -37.55625 
L 75.989989 -37.55625 
L 72.361943 -37.55625 
L 72.361943 -37.55625 
L 68.733898 -37.55625 
L 68.733898 -37.55625 
L 65.105852 -37.55625 
z
" style="stroke: #daa520"/>
    </defs>
    <g clip-path="url(#p7e3d1935d1)">
     <use xlink:href="#m6f75ce5401" x="0" y="352.714375" style="fill: #daa520; fill-opacity: 0.3; stroke: #daa520"/>
    </g>
   </g>
   <g id="matplotlib.axis_1">
    <g id="xtick_1">
     <g id="line2d_1">
      <defs>
       <path id="md7639284c5" d="M 0 0 
L 0 3.5 
" style="stroke: #000000; stroke-width: 0.8"/>
      </defs>
      <g>
       <use xlink:href="#md7639284c5" x="65.105852" y="315.158125" style="stroke: #000000; stroke-width: 0.8"/>
      </g>
     </g>
     <g id="text_1">
      <!-- −1.00 -->
      <g transform="translate(49.783196 329.756562) scale(0.1 -0.1)">
       <defs>
        <path id="DejaVuSans-2212" d="M 678 2272 
L 4684 2272 
L 4684 1741 
L 678 1741 
L 678 2272 
z
" transform="scale(0.015625)"/>
        <path id="DejaVuSans-31" d="M 794 531 
L 1825 531 
L 1825 4091 
L 703 3866 
L 703 4441 
L 1819 4666 
L 2450 4666 
L 2450 531 
L 3481 531 
L 3481 0 
L 794 0 
L 794 531 
z
" transform="scale(0.015625)"/>
        <path id="DejaVuSans-2e" d="M 684 794 
L 1344 794 
L 1344 0 
L 684 0 
L 684 794 
z
" transform="scale(0.015625)"/>
        <path id="DejaVuSans-30" d="M 2034 4250 
Q 1547 4250 1301 3770 
Q 1056 3291 1056 2328 
Q 1056 1369 1301 889 
Q 1547 409 2034 409 
Q 2525 409 2770 889 
Q 3016 1369 3016 2328 
Q 3016 3291 2770 3770 
Q 2525 4250 2034 4250 
z
M 2034 4750 
Q 2819 4750 3233 4129 
Q 3647 3509 3647 2328 
Q 3647 1150 3233 529 
Q 2819 -91 2034 -91 
Q 1250 -91 836 529 
Q 422 1150 422 2328 
Q 422 3509 836 4129 
Q 1250 4750 2034 4750 
z
" transform="scale(0.015625)"/>
       </defs>
       <use xlink:href="#DejaVuSans-2212"/>
       <use xlink:href="#DejaVuSans-31" transform="translate(83.789062 0)"/>
       <use xlink:href="#DejaVuSans-2e" transform="translate(147.412109 0)"/>
       <use xlink:href="#DejaVuSans-30" transform="translate(179.199219 0)"/>
       <use xlink:href="#DejaVuSans-30" transform="translate(242.822266 0)"/>
      </g>
     </g>
    </g>
    <g id="xtick_2">
     <g id="line2d_2">
      <g>
       <use xlink:href="#md7639284c5" x="110.45642" y="315.158125" style="stroke: #000000; stroke-width: 0.8"/>
      </g>
     </g>
     <g id="text_2">
      <!-- −0.75 -->
      <g transform="translate(95.133764 329.756562) scale(0.1 -0.1)">
       <defs>
        <path id="DejaVuSans-37" d="M 525 4666 
L 3525 4666 
L 3525 4397 
L 1831 0 
L 1172 0 
L 2766 4134 
L 525 4134 
L 525 4666 
z
" transform="scale(0.015625)"/>
        <path id="DejaVuSans-35" d="M 691 4666 
L 3169 4666 
L 3169 4134 
L 1269 4134 
L 1269 2991 
Q 1406 3038 1543 3061 
Q 1681 3084 1819 3084 
Q 2600 3084 3056 2656 
Q 3513 2228 3513 1497 
Q 3513 744 3044 326 
Q 2575 -91 1722 -91 
Q 1428 -91 1123 -41 
Q 819 9 494 109 
L 494 744 
Q 775 591 1075 516 
Q 1375 441 1709 441 
Q 2250 441 2565 725 
Q 2881 1009 2881 1497 
Q 2881 1984 2565 2268 
Q 2250 2553 1709 2553 
Q 1456 2553 1204 2497 
Q 953 2441 691 2322 
L 691 4666 
z
" transform="scale(0.015625)"/>
       </defs>
       <use xlink:href="#DejaVuSans-2212"/>
       <use xlink:href="#DejaVuSans-30" transform="translate(83.789062 0)"/>
       <use xlink:href="#DejaVuSans-2e" transform="translate(147.412109 0)"/>
       <use xlink:href="#DejaVuSans-37" transform="translate(179.199219 0)"/>
       <use xlink:href="#DejaVuSans-35" transform="translate(242.822266 0)"/>
      </g>
     </g>
    </g>
    <g id="xtick_3">
     <g id="line2d_3">
      <g>
       <use xlink:href="#md7639284c5" x="155.806989" y="315.158125" style="stroke: #000000; stroke-width: 0.8"/>
      </g>
     </g>
     <g id="text_3">
      <!-- −0.50 -->
      <g transform="translate(140.484332 329.756562) scale(0.1 -0.1)">
       <use xlink:href="#DejaVuSans-2212"/>
       <use xlink:href="#DejaVuSans-30" transform="translate(83.789062 0)"/>
       <use xlink:href="#DejaVuSans-2e" transform="translate(147.412109 0)"/>
       <use xlink:href="#DejaVuSans-35" transform="translate(179.199219 0)"/>
       <use xlink:href="#DejaVuSans-30" transform="translate(242.822266 0)"/>
      </g>
     </g>
    </g>
    <g id="xtick_4">
     <g id="line2d_4">
      <g>
       <use xlink:href="#md7639284c5" x="201.157557" y="315.158125" style="stroke: #000000; stroke-width: 0.8"/>
      </g>
     </g>
     <g id="text_4">
      <!-- −0.25 -->
      <g transform="translate(185.834901 329.756562) scale(0.1 -0.1)">
       <defs>
        <path id="DejaVuSans-32" d="M 1228 531 
L 3431 531 
L 3431 0 
L 469 0 
L 469 531 
Q 828 903 1448 1529 
Q 2069 2156 2228 2338 
Q 2531 2678 2651 2914 
Q 2772 3150 2772 3378 
Q 2772 3750 2511 3984 
Q 2250 4219 1831 4219 
Q 1534 4219 1204 4116 
Q 875 4013 500 3803 
L 500 4441 
Q 881 4594 1212 4672 
Q 1544 4750 1819 4750 
Q 2544 4750 2975 4387 
Q 3406 4025 3406 3419 
Q 3406 3131 3298 2873 
Q 3191 2616 2906 2266 
Q 2828 2175 2409 1742 
Q 1991 1309 1228 531 
z
" transform="scale(0.015625)"/>
       </defs>
       <use xlink:href="#DejaVuSans-2212"/>
       <use xlink:href="#DejaVuSans-30" transform="translate(83.789062 0)"/>
       <use xlink:href="#DejaVuSans-2e" transform="translate(147.412109 0)"/>
       <use xlink:href="#DejaVuSans-32" transform="translate(179.199219 0)"/>
       <use xlink:href="#DejaVuSans-35" transform="translate(242.822266 0)"/>
      </g>
     </g>
    </g>
    <g id="xtick_5">
     <g id="line2d_5">
      <g>
       <use xlink:href="#md7639284c5" x="246.508125" y="315.158125" style="stroke: #000000; stroke-width: 0.8"/>
      </g>
     </g>
     <g id="text_5">
      <!-- 0.00 -->
      <g transform="translate(235.375313 329.756562) scale(0.1 -0.1)">
       <use xlink:href="#DejaVuSans-30"/>
       <use xlink:href="#DejaVuSans-2e" transform="translate(63.623047 0)"/>
       <use xlink:href="#DejaVuSans-30" transform="translate(95.410156 0)"/>
       <use xlink:href="#DejaVuSans-30" transform="translate(159.033203 0)"/>
      </g>
     </g>
    </g>
    <g id="xtick_6">
     <g id="line2d_6">
      <g>
       <use xlink:href="#md7639284c5" x="291.858693" y="315.158125" style="stroke: #000000; stroke-width: 0.8"/>
      </g>
     </g>
     <g id="text_6">
      <!-- 0.25 -->
      <g transform="translate(280.725881 329.756562) scale(0.1 -0.1)">
       <use xlink:href="#DejaVuSans-30"/>
       <use xlink:href="#DejaVuSans-2e" transform="translate(63.623047 0)"/>
       <use xlink:href="#DejaVuSans-32" transform="translate(95.410156 0)"/>
       <use xlink:href="#DejaVuSans-35" transform="translate(159.033203 0)"/>
      </g>
     </g>
    </g>
    <g id="xtick_7">
     <g id="line2d_7">
      <g>
       <use xlink:href="#md7639284c5" x="337.209261" y="315.158125" style="stroke: #000000; stroke-width: 0.8"/>
      </g>
     </g>
     <g id="text_7">
      <!-- 0.50 -->
      <g transform="translate(326.076449 329.756562) scale(0.1 -0.1)">
       <use xlink:href="#DejaVuSans-30"/>
       <use xlink:href="#DejaVuSans-2e" transform="translate(63.623047 0)"/>
       <use xlink:href="#DejaVuSans-35" transform="translate(95.410156 0)"/>
       <use xlink:href="#DejaVuSans-30" transform="translate(159.033203 0)"/>
      </g>
     </g>
    </g>
    <g id="xtick_8">
     <g id="line2d_8">
      <g>
       <use xlink:href="#md7639284c5" x="382.55983" y="315.158125" style="stroke: #000000; stroke-width: 0.8"/>
      </g>
     </g>
     <g id="text_8">
      <!-- 0.75 -->
      <g transform="translate(371.427017 329.756562) scale(0.1 -0.1)">
       <use xlink:href="#DejaVuSans-30"/>
       <use xlink:href="#DejaVuSans-2e" transform="translate(63.623047 0)"/>
       <use xlink:href="#DejaVuSans-37" transform="translate(95.410156 0)"/>
       <use xlink:href="#DejaVuSans-35" transform="translate(159.033203 0)"/>
      </g>
     </g>
    </g>
    <g id="xtick_9">
     <g id="line2d_9">
      <g>
       <use xlink:href="#md7639284c5" x="427.910398" y="315.158125" style="stroke: #000000; stroke-width: 0.8"/>
      </g>
     </g>
     <g id="text_9">
      <!-- 1.00 -->
      <g transform="translate(416.777585 329.756562) scale(0.1 -0.1)">
       <use xlink:href="#DejaVuSans-31"/>
       <use xlink:href="#DejaVuSans-2e" transform="translate(63.623047 0)"/>
       <use xlink:href="#DejaVuSans-30" transform="translate(95.410156 0)"/>
       <use xlink:href="#DejaVuSans-30" transform="translate(159.033203 0)"/>
      </g>
     </g>
    </g>
    <g id="text_10">
     <!-- sc scores -->
     <g transform="translate(223.527656 343.434687) scale(0.1 -0.1)">
      <defs>
       <path id="DejaVuSans-73" d="M 2834 3397 
L 2834 2853 
Q 2591 2978 2328 3040 
Q 2066 3103 1784 3103 
Q 1356 3103 1142 2972 
Q 928 2841 928 2578 
Q 928 2378 1081 2264 
Q 1234 2150 1697 2047 
L 1894 2003 
Q 2506 1872 2764 1633 
Q 3022 1394 3022 966 
Q 3022 478 2636 193 
Q 2250 -91 1575 -91 
Q 1294 -91 989 -36 
Q 684 19 347 128 
L 347 722 
Q 666 556 975 473 
Q 1284 391 1588 391 
Q 1994 391 2212 530 
Q 2431 669 2431 922 
Q 2431 1156 2273 1281 
Q 2116 1406 1581 1522 
L 1381 1569 
Q 847 1681 609 1914 
Q 372 2147 372 2553 
Q 372 3047 722 3315 
Q 1072 3584 1716 3584 
Q 2034 3584 2315 3537 
Q 2597 3491 2834 3397 
z
" transform="scale(0.015625)"/>
       <path id="DejaVuSans-63" d="M 3122 3366 
L 3122 2828 
Q 2878 2963 2633 3030 
Q 2388 3097 2138 3097 
Q 1578 3097 1268 2742 
Q 959 2388 959 1747 
Q 959 1106 1268 751 
Q 1578 397 2138 397 
Q 2388 397 2633 464 
Q 2878 531 3122 666 
L 3122 134 
Q 2881 22 2623 -34 
Q 2366 -91 2075 -91 
Q 1284 -91 818 406 
Q 353 903 353 1747 
Q 353 2603 823 3093 
Q 1294 3584 2113 3584 
Q 2378 3584 2631 3529 
Q 2884 3475 3122 3366 
z
" transform="scale(0.015625)"/>
       <path id="DejaVuSans-20" transform="scale(0.015625)"/>
       <path id="DejaVuSans-6f" d="M 1959 3097 
Q 1497 3097 1228 2736 
Q 959 2375 959 1747 
Q 959 1119 1226 758 
Q 1494 397 1959 397 
Q 2419 397 2687 759 
Q 2956 1122 2956 1747 
Q 2956 2369 2687 2733 
Q 2419 3097 1959 3097 
z
M 1959 3584 
Q 2709 3584 3137 3096 
Q 3566 2609 3566 1747 
Q 3566 888 3137 398 
Q 2709 -91 1959 -91 
Q 1206 -91 779 398 
Q 353 888 353 1747 
Q 353 2609 779 3096 
Q 1206 3584 1959 3584 
z
" transform="scale(0.015625)"/>
       <path id="DejaVuSans-72" d="M 2631 2963 
Q 2534 3019 2420 3045 
Q 2306 3072 2169 3072 
Q 1681 3072 1420 2755 
Q 1159 2438 1159 1844 
L 1159 0 
L 581 0 
L 581 3500 
L 1159 3500 
L 1159 2956 
Q 1341 3275 1631 3429 
Q 1922 3584 2338 3584 
Q 2397 3584 2469 3576 
Q 2541 3569 2628 3553 
L 2631 2963 
z
" transform="scale(0.015625)"/>
       <path id="DejaVuSans-65" d="M 3597 1894 
L 3597 1613 
L 953 1613 
Q 991 1019 1311 708 
Q 1631 397 2203 397 
Q 2534 397 2845 478 
Q 3156 559 3463 722 
L 3463 178 
Q 3153 47 2828 -22 
Q 2503 -91 2169 -91 
Q 1331 -91 842 396 
Q 353 884 353 1716 
Q 353 2575 817 3079 
Q 1281 3584 2069 3584 
Q 2775 3584 3186 3129 
Q 3597 2675 3597 1894 
z
M 3022 2063 
Q 3016 2534 2758 2815 
Q 2500 3097 2075 3097 
Q 1594 3097 1305 2825 
Q 1016 2553 972 2059 
L 3022 2063 
z
" transform="scale(0.015625)"/>
      </defs>
      <use xlink:href="#DejaVuSans-73"/>
      <use xlink:href="#DejaVuSans-63" transform="translate(52.099609 0)"/>
      <use xlink:href="#DejaVuSans-20" transform="translate(107.080078 0)"/>
      <use xlink:href="#DejaVuSans-73" transform="translate(138.867188 0)"/>
      <use xlink:href="#DejaVuSans-63" transform="translate(190.966797 0)"/>
      <use xlink:href="#DejaVuSans-6f" transform="translate(245.947266 0)"/>
      <use xlink:href="#DejaVuSans-72" transform="translate(307.128906 0)"/>
      <use xlink:href="#DejaVuSans-65" transform="translate(345.992188 0)"/>
      <use xlink:href="#DejaVuSans-73" transform="translate(407.515625 0)"/>
     </g>
    </g>
   </g>
   <g id="matplotlib.axis_2">
    <g id="ytick_1">
     <g id="line2d_10">
      <defs>
       <path id="m5ca99f1174" d="M 0 0 
L -3.5 0 
" style="stroke: #000000; stroke-width: 0.8"/>
      </defs>
      <g>
       <use xlink:href="#m5ca99f1174" x="46.965625" y="315.158125" style="stroke: #000000; stroke-width: 0.8"/>
      </g>
     </g>
     <g id="text_11">
      <!-- 0 -->
      <g transform="translate(33.603125 318.957344) scale(0.1 -0.1)">
       <use xlink:href="#DejaVuSans-30"/>
      </g>
     </g>
    </g>
    <g id="ytick_2">
     <g id="line2d_11">
      <g>
       <use xlink:href="#m5ca99f1174" x="46.965625" y="280.076963" style="stroke: #000000; stroke-width: 0.8"/>
      </g>
     </g>
     <g id="text_12">
      <!-- 20 -->
      <g transform="translate(27.240625 283.876182) scale(0.1 -0.1)">
       <use xlink:href="#DejaVuSans-32"/>
       <use xlink:href="#DejaVuSans-30" transform="translate(63.623047 0)"/>
      </g>
     </g>
    </g>
    <g id="ytick_3">
     <g id="line2d_12">
      <g>
       <use xlink:href="#m5ca99f1174" x="46.965625" y="244.995801" style="stroke: #000000; stroke-width: 0.8"/>
      </g>
     </g>
     <g id="text_13">
      <!-- 40 -->
      <g transform="translate(27.240625 248.79502) scale(0.1 -0.1)">
       <defs>
        <path id="DejaVuSans-34" d="M 2419 4116 
L 825 1625 
L 2419 1625 
L 2419 4116 
z
M 2253 4666 
L 3047 4666 
L 3047 1625 
L 3713 1625 
L 3713 1100 
L 3047 1100 
L 3047 0 
L 2419 0 
L 2419 1100 
L 313 1100 
L 313 1709 
L 2253 4666 
z
" transform="scale(0.015625)"/>
       </defs>
       <use xlink:href="#DejaVuSans-34"/>
       <use xlink:href="#DejaVuSans-30" transform="translate(63.623047 0)"/>
      </g>
     </g>
    </g>
    <g id="ytick_4">
     <g id="line2d_13">
      <g>
       <use xlink:href="#m5ca99f1174" x="46.965625" y="209.914639" style="stroke: #000000; stroke-width: 0.8"/>
      </g>
     </g>
     <g id="text_14">
      <!-- 60 -->
      <g transform="translate(27.240625 213.713858) scale(0.1 -0.1)">
       <defs>
        <path id="DejaVuSans-36" d="M 2113 2584 
Q 1688 2584 1439 2293 
Q 1191 2003 1191 1497 
Q 1191 994 1439 701 
Q 1688 409 2113 409 
Q 2538 409 2786 701 
Q 3034 994 3034 1497 
Q 3034 2003 2786 2293 
Q 2538 2584 2113 2584 
z
M 3366 4563 
L 3366 3988 
Q 3128 4100 2886 4159 
Q 2644 4219 2406 4219 
Q 1781 4219 1451 3797 
Q 1122 3375 1075 2522 
Q 1259 2794 1537 2939 
Q 1816 3084 2150 3084 
Q 2853 3084 3261 2657 
Q 3669 2231 3669 1497 
Q 3669 778 3244 343 
Q 2819 -91 2113 -91 
Q 1303 -91 875 529 
Q 447 1150 447 2328 
Q 447 3434 972 4092 
Q 1497 4750 2381 4750 
Q 2619 4750 2861 4703 
Q 3103 4656 3366 4563 
z
" transform="scale(0.015625)"/>
       </defs>
       <use xlink:href="#DejaVuSans-36"/>
       <use xlink:href="#DejaVuSans-30" transform="translate(63.623047 0)"/>
      </g>
     </g>
    </g>
    <g id="ytick_5">
     <g id="line2d_14">
      <g>
       <use xlink:href="#m5ca99f1174" x="46.965625" y="174.833477" style="stroke: #000000; stroke-width: 0.8"/>
      </g>
     </g>
     <g id="text_15">
      <!-- 80 -->
      <g transform="translate(27.240625 178.632696) scale(0.1 -0.1)">
       <defs>
        <path id="DejaVuSans-38" d="M 2034 2216 
Q 1584 2216 1326 1975 
Q 1069 1734 1069 1313 
Q 1069 891 1326 650 
Q 1584 409 2034 409 
Q 2484 409 2743 651 
Q 3003 894 3003 1313 
Q 3003 1734 2745 1975 
Q 2488 2216 2034 2216 
z
M 1403 2484 
Q 997 2584 770 2862 
Q 544 3141 544 3541 
Q 544 4100 942 4425 
Q 1341 4750 2034 4750 
Q 2731 4750 3128 4425 
Q 3525 4100 3525 3541 
Q 3525 3141 3298 2862 
Q 3072 2584 2669 2484 
Q 3125 2378 3379 2068 
Q 3634 1759 3634 1313 
Q 3634 634 3220 271 
Q 2806 -91 2034 -91 
Q 1263 -91 848 271 
Q 434 634 434 1313 
Q 434 1759 690 2068 
Q 947 2378 1403 2484 
z
M 1172 3481 
Q 1172 3119 1398 2916 
Q 1625 2713 2034 2713 
Q 2441 2713 2670 2916 
Q 2900 3119 2900 3481 
Q 2900 3844 2670 4047 
Q 2441 4250 2034 4250 
Q 1625 4250 1398 4047 
Q 1172 3844 1172 3481 
z
" transform="scale(0.015625)"/>
       </defs>
       <use xlink:href="#DejaVuSans-38"/>
       <use xlink:href="#DejaVuSans-30" transform="translate(63.623047 0)"/>
      </g>
     </g>
    </g>
    <g id="ytick_6">
     <g id="line2d_15">
      <g>
       <use xlink:href="#m5ca99f1174" x="46.965625" y="139.752315" style="stroke: #000000; stroke-width: 0.8"/>
      </g>
     </g>
     <g id="text_16">
      <!-- 100 -->
      <g transform="translate(20.878125 143.551534) scale(0.1 -0.1)">
       <use xlink:href="#DejaVuSans-31"/>
       <use xlink:href="#DejaVuSans-30" transform="translate(63.623047 0)"/>
       <use xlink:href="#DejaVuSans-30" transform="translate(127.246094 0)"/>
      </g>
     </g>
    </g>
    <g id="ytick_7">
     <g id="line2d_16">
      <g>
       <use xlink:href="#m5ca99f1174" x="46.965625" y="104.671153" style="stroke: #000000; stroke-width: 0.8"/>
      </g>
     </g>
     <g id="text_17">
      <!-- 120 -->
      <g transform="translate(20.878125 108.470372) scale(0.1 -0.1)">
       <use xlink:href="#DejaVuSans-31"/>
       <use xlink:href="#DejaVuSans-32" transform="translate(63.623047 0)"/>
       <use xlink:href="#DejaVuSans-30" transform="translate(127.246094 0)"/>
      </g>
     </g>
    </g>
    <g id="ytick_8">
     <g id="line2d_17">
      <g>
       <use xlink:href="#m5ca99f1174" x="46.965625" y="69.589991" style="stroke: #000000; stroke-width: 0.8"/>
      </g>
     </g>
     <g id="text_18">
      <!-- 140 -->
      <g transform="translate(20.878125 73.38921) scale(0.1 -0.1)">
       <use xlink:href="#DejaVuSans-31"/>
       <use xlink:href="#DejaVuSans-34" transform="translate(63.623047 0)"/>
       <use xlink:href="#DejaVuSans-30" transform="translate(127.246094 0)"/>
      </g>
     </g>
    </g>
    <g id="ytick_9">
     <g id="line2d_18">
      <g>
       <use xlink:href="#m5ca99f1174" x="46.965625" y="34.508829" style="stroke: #000000; stroke-width: 0.8"/>
      </g>
     </g>
     <g id="text_19">
      <!-- 160 -->
      <g transform="translate(20.878125 38.308048) scale(0.1 -0.1)">
       <use xlink:href="#DejaVuSans-31"/>
       <use xlink:href="#DejaVuSans-36" transform="translate(63.623047 0)"/>
       <use xlink:href="#DejaVuSans-30" transform="translate(127.246094 0)"/>
      </g>
     </g>
    </g>
    <g id="text_20">
     <!-- count -->
     <g transform="translate(14.798438 182.844375) rotate(-90) scale(0.1 -0.1)">
      <defs>
       <path id="DejaVuSans-75" d="M 544 1381 
L 544 3500 
L 1119 3500 
L 1119 1403 
Q 1119 906 1312 657 
Q 1506 409 1894 409 
Q 2359 409 2629 706 
Q 2900 1003 2900 1516 
L 2900 3500 
L 3475 3500 
L 3475 0 
L 2900 0 
L 2900 538 
Q 2691 219 2414 64 
Q 2138 -91 1772 -91 
Q 1169 -91 856 284 
Q 544 659 544 1381 
z
M 1991 3584 
L 1991 3584 
z
" transform="scale(0.015625)"/>
       <path id="DejaVuSans-6e" d="M 3513 2113 
L 3513 0 
L 2938 0 
L 2938 2094 
Q 2938 2591 2744 2837 
Q 2550 3084 2163 3084 
Q 1697 3084 1428 2787 
Q 1159 2491 1159 1978 
L 1159 0 
L 581 0 
L 581 3500 
L 1159 3500 
L 1159 2956 
Q 1366 3272 1645 3428 
Q 1925 3584 2291 3584 
Q 2894 3584 3203 3211 
Q 3513 2838 3513 2113 
z
" transform="scale(0.015625)"/>
       <path id="DejaVuSans-74" d="M 1172 4494 
L 1172 3500 
L 2356 3500 
L 2356 3053 
L 1172 3053 
L 1172 1153 
Q 1172 725 1289 603 
Q 1406 481 1766 481 
L 2356 481 
L 2356 0 
L 1766 0 
Q 1100 0 847 248 
Q 594 497 594 1153 
L 594 3053 
L 172 3053 
L 172 3500 
L 594 3500 
L 594 4494 
L 1172 4494 
z
" transform="scale(0.015625)"/>
      </defs>
      <use xlink:href="#DejaVuSans-63"/>
      <use xlink:href="#DejaVuSans-6f" transform="translate(54.980469 0)"/>
      <use xlink:href="#DejaVuSans-75" transform="translate(116.162109 0)"/>
      <use xlink:href="#DejaVuSans-6e" transform="translate(179.541016 0)"/>
      <use xlink:href="#DejaVuSans-74" transform="translate(242.919922 0)"/>
     </g>
    </g>
   </g>
   <g id="line2d_19">
    <path d="M 202.150228 313.407976 
L 205.538039 312.560035 
L 208.925851 311.433179 
L 211.184391 310.478064 
L 213.442932 309.30296 
L 215.701473 307.834128 
L 217.960014 305.970556 
L 220.218555 303.580669 
L 221.347825 302.138259 
L 222.477096 300.499835 
L 223.606366 298.639357 
L 224.735636 296.528599 
L 225.864907 294.137293 
L 226.994177 291.433422 
L 228.123448 288.383717 
L 229.252718 284.954407 
L 230.381988 281.112265 
L 231.511259 276.825925 
L 232.640529 272.067486 
L 234.89907 261.050934 
L 237.157611 247.978811 
L 239.416152 232.937504 
L 241.674693 216.218831 
L 245.062504 189.126351 
L 249.579585 152.863068 
L 251.838126 136.239181 
L 254.096667 121.333717 
L 256.355208 108.43535 
L 258.613749 97.628616 
L 259.743019 92.99034 
L 260.87229 88.837498 
L 262.00156 85.146718 
L 263.13083 81.893392 
L 264.260101 79.053619 
L 265.389371 76.605772 
L 266.518642 74.531638 
L 267.647912 72.817102 
L 268.777182 71.452384 
L 269.906453 70.43186 
L 271.035723 69.7535 
L 272.164994 69.417963 
L 273.294264 69.427413 
L 274.423535 69.784075 
L 275.552805 70.488628 
L 276.682075 71.538476 
L 277.811346 72.92603 
L 278.940616 74.637083 
L 280.069887 76.649458 
L 282.328427 81.444293 
L 284.586968 86.950771 
L 287.974779 95.458177 
L 290.23332 100.486968 
L 291.362591 102.615623 
L 292.491861 104.4194 
L 293.621132 105.861881 
L 294.750402 106.919849 
L 295.879672 107.583798 
L 297.008943 107.857658 
L 298.138213 107.757777 
L 299.267484 107.311293 
L 300.396754 106.554065 
L 301.526024 105.528337 
L 302.655295 104.280344 
L 304.913836 101.309042 
L 311.689458 91.66156 
L 313.947999 89.062486 
L 315.077269 87.976568 
L 316.20654 87.051419 
L 317.33581 86.297294 
L 318.465081 85.721503 
L 319.594351 85.328142 
L 320.723621 85.11773 
L 321.852892 85.08686 
L 322.982162 85.227926 
L 324.111433 85.529051 
L 325.240703 85.97427 
L 327.499244 87.21608 
L 329.757785 88.771496 
L 337.662678 94.516176 
L 343.30903 98.513478 
L 347.826111 102.120638 
L 351.213923 104.782919 
L 353.472463 106.335266 
L 355.731004 107.631997 
L 357.989545 108.669957 
L 360.248086 109.486979 
L 363.635897 110.395817 
L 367.023708 110.976073 
L 369.282249 111.162785 
L 371.54079 111.177046 
L 374.928601 110.917935 
L 381.704224 110.170342 
L 383.962764 110.217088 
L 385.092035 110.377127 
L 386.221305 110.660957 
L 387.350576 111.095858 
L 388.479846 111.710188 
L 389.609117 112.531992 
L 390.738387 113.587395 
L 391.867657 114.898967 
L 392.996928 116.484278 
L 394.126198 118.354875 
L 395.255469 120.515822 
L 396.384739 122.965909 
L 398.64328 128.703122 
L 400.901821 135.477757 
L 403.160361 143.200428 
L 405.418902 151.836482 
L 407.677443 161.430344 
L 409.935984 172.0844 
L 412.194525 183.896643 
L 414.453066 196.878234 
L 417.840877 218.166211 
L 423.487229 254.809572 
L 425.74577 268.143215 
L 426.87504 274.246099 
L 426.87504 274.246099 
" clip-path="url(#p7e3d1935d1)" style="fill: none; stroke: #2f4f4f; stroke-width: 1.5; stroke-linecap: square"/>
   </g>
   <g id="line2d_20">
    <path d="M 202.150228 313.103158 
L 204.408769 312.333624 
L 206.66731 311.391585 
L 208.925851 310.266737 
L 211.184391 308.943235 
L 213.442932 307.386572 
L 215.701473 305.524871 
L 217.960014 303.227292 
L 219.089284 301.853176 
L 220.218555 300.284956 
L 221.347825 298.482794 
L 222.477096 296.401735 
L 223.606366 293.992484 
L 224.735636 291.202588 
L 225.864907 287.978033 
L 226.994177 284.265218 
L 228.123448 280.013291 
L 229.252718 275.176733 
L 230.381988 269.718118 
L 231.511259 263.61089 
L 233.7698 249.414255 
L 236.028341 232.682815 
L 238.286881 213.806971 
L 241.674693 183.02075 
L 245.062504 152.089986 
L 247.321045 133.016736 
L 249.579585 116.10969 
L 251.838126 101.852739 
L 252.967397 95.780555 
L 254.096667 90.407003 
L 255.225938 85.70711 
L 256.355208 81.64288 
L 257.484478 78.166868 
L 258.613749 75.225954 
L 259.743019 72.765066 
L 260.87229 70.730639 
L 262.00156 69.073599 
L 263.13083 67.751705 
L 264.260101 66.731143 
L 265.389371 65.987278 
L 266.518642 65.504566 
L 267.647912 65.275645 
L 268.777182 65.299713 
L 269.906453 65.580338 
L 271.035723 66.1229 
L 272.164994 66.93189 
L 273.294264 68.008311 
L 274.423535 69.347415 
L 275.552805 70.936996 
L 277.811346 74.776123 
L 280.069887 79.259718 
L 284.586968 88.630985 
L 286.845509 92.718362 
L 287.974779 94.467077 
L 289.10405 95.981845 
L 290.23332 97.244672 
L 291.362591 98.245447 
L 292.491861 98.98146 
L 293.621132 99.45669 
L 294.750402 99.680942 
L 295.879672 99.668914 
L 297.008943 99.439238 
L 298.138213 99.013534 
L 299.267484 98.415488 
L 301.526024 96.802206 
L 303.784565 94.798016 
L 308.301647 90.305496 
L 312.818729 85.886662 
L 320.723621 78.356021 
L 324.111433 74.625198 
L 328.628514 69.077551 
L 330.887055 66.353634 
L 333.145596 63.962054 
L 334.274866 62.968877 
L 335.404137 62.148478 
L 336.533407 61.523803 
L 337.662678 61.111948 
L 338.791948 60.923319 
L 339.921218 60.961296 
L 341.050489 61.222439 
L 342.179759 61.697192 
L 343.30903 62.371032 
L 344.4383 63.225928 
L 346.696841 65.399024 
L 348.955382 68.063104 
L 351.213923 71.10168 
L 353.472463 74.455575 
L 355.731004 78.118367 
L 357.989545 82.112145 
L 360.248086 86.453074 
L 363.635897 93.541552 
L 369.282249 105.65453 
L 371.54079 109.838457 
L 372.67006 111.633114 
L 373.799331 113.184418 
L 374.928601 114.46712 
L 376.057872 115.465483 
L 377.187142 116.175017 
L 378.316412 116.603629 
L 379.445683 116.772061 
L 380.574953 116.713537 
L 381.704224 116.472606 
L 383.962764 115.666115 
L 386.221305 114.847283 
L 387.350576 114.592468 
L 388.479846 114.517314 
L 389.609117 114.669063 
L 390.738387 115.084347 
L 391.867657 115.788135 
L 392.996928 116.793645 
L 394.126198 118.103225 
L 395.255469 119.710113 
L 396.384739 121.600925 
L 397.514009 123.758623 
L 399.77255 128.807152 
L 402.031091 134.761786 
L 404.289632 141.637906 
L 406.548173 149.580186 
L 408.806714 158.822151 
L 411.065254 169.596983 
L 413.323795 182.027945 
L 415.582336 196.0341 
L 418.970147 219.203552 
L 423.487229 250.767663 
L 425.74577 265.178267 
L 426.87504 271.760239 
L 426.87504 271.760239 
" clip-path="url(#p7e3d1935d1)" style="fill: none; stroke: #daa520; stroke-width: 1.5; stroke-linecap: square"/>
   </g>
   <g id="line2d_21">
    <path d="M 325.848186 315.158125 
L 325.848186 22.318125 
" clip-path="url(#p7e3d1935d1)" style="fill: none; stroke-dasharray: 5.55,2.4; stroke-dashoffset: 0; stroke: #daa520; stroke-width: 1.5"/>
   </g>
   <g id="line2d_22">
    <path d="M 325.737556 315.158125 
L 325.737556 22.318125 
" clip-path="url(#p7e3d1935d1)" style="fill: none; stroke-dasharray: 5.55,2.4; stroke-dashoffset: 0; stroke: #2f4f4f; stroke-width: 1.5"/>
   </g>
   <g id="line2d_23">
    <path d="M 325.792871 315.158125 
L 325.792871 22.318125 
" clip-path="url(#p7e3d1935d1)" style="fill: none; stroke: #ff0000; stroke-width: 2; stroke-linecap: square"/>
   </g>
   <g id="patch_3">
    <path d="M 46.965625 315.158125 
L 46.965625 22.318125 
" style="fill: none; stroke: #000000; stroke-width: 0.8; stroke-linejoin: miter; stroke-linecap: square"/>
   </g>
   <g id="patch_4">
    <path d="M 446.050625 315.158125 
L 446.050625 22.318125 
" style="fill: none; stroke: #000000; stroke-width: 0.8; stroke-linejoin: miter; stroke-linecap: square"/>
   </g>
   <g id="patch_5">
    <path d="M 46.965625 315.158125 
L 446.050625 315.158125 
" style="fill: none; stroke: #000000; stroke-width: 0.8; stroke-linejoin: miter; stroke-linecap: square"/>
   </g>
   <g id="patch_6">
    <path d="M 46.965625 22.318125 
L 446.050625 22.318125 
" style="fill: none; stroke: #000000; stroke-width: 0.8; stroke-linejoin: miter; stroke-linecap: square"/>
   </g>
   <g id="text_21">
    <!-- Sc Score Distribution for 1FDL -->
    <g transform="translate(156.485625 16.318125) scale(0.12 -0.12)">
     <defs>
      <path id="DejaVuSans-53" d="M 3425 4513 
L 3425 3897 
Q 3066 4069 2747 4153 
Q 2428 4238 2131 4238 
Q 1616 4238 1336 4038 
Q 1056 3838 1056 3469 
Q 1056 3159 1242 3001 
Q 1428 2844 1947 2747 
L 2328 2669 
Q 3034 2534 3370 2195 
Q 3706 1856 3706 1288 
Q 3706 609 3251 259 
Q 2797 -91 1919 -91 
Q 1588 -91 1214 -16 
Q 841 59 441 206 
L 441 856 
Q 825 641 1194 531 
Q 1563 422 1919 422 
Q 2459 422 2753 634 
Q 3047 847 3047 1241 
Q 3047 1584 2836 1778 
Q 2625 1972 2144 2069 
L 1759 2144 
Q 1053 2284 737 2584 
Q 422 2884 422 3419 
Q 422 4038 858 4394 
Q 1294 4750 2059 4750 
Q 2388 4750 2728 4690 
Q 3069 4631 3425 4513 
z
" transform="scale(0.015625)"/>
      <path id="DejaVuSans-44" d="M 1259 4147 
L 1259 519 
L 2022 519 
Q 2988 519 3436 956 
Q 3884 1394 3884 2338 
Q 3884 3275 3436 3711 
Q 2988 4147 2022 4147 
L 1259 4147 
z
M 628 4666 
L 1925 4666 
Q 3281 4666 3915 4102 
Q 4550 3538 4550 2338 
Q 4550 1131 3912 565 
Q 3275 0 1925 0 
L 628 0 
L 628 4666 
z
" transform="scale(0.015625)"/>
      <path id="DejaVuSans-69" d="M 603 3500 
L 1178 3500 
L 1178 0 
L 603 0 
L 603 3500 
z
M 603 4863 
L 1178 4863 
L 1178 4134 
L 603 4134 
L 603 4863 
z
" transform="scale(0.015625)"/>
      <path id="DejaVuSans-62" d="M 3116 1747 
Q 3116 2381 2855 2742 
Q 2594 3103 2138 3103 
Q 1681 3103 1420 2742 
Q 1159 2381 1159 1747 
Q 1159 1113 1420 752 
Q 1681 391 2138 391 
Q 2594 391 2855 752 
Q 3116 1113 3116 1747 
z
M 1159 2969 
Q 1341 3281 1617 3432 
Q 1894 3584 2278 3584 
Q 2916 3584 3314 3078 
Q 3713 2572 3713 1747 
Q 3713 922 3314 415 
Q 2916 -91 2278 -91 
Q 1894 -91 1617 61 
Q 1341 213 1159 525 
L 1159 0 
L 581 0 
L 581 4863 
L 1159 4863 
L 1159 2969 
z
" transform="scale(0.015625)"/>
      <path id="DejaVuSans-66" d="M 2375 4863 
L 2375 4384 
L 1825 4384 
Q 1516 4384 1395 4259 
Q 1275 4134 1275 3809 
L 1275 3500 
L 2222 3500 
L 2222 3053 
L 1275 3053 
L 1275 0 
L 697 0 
L 697 3053 
L 147 3053 
L 147 3500 
L 697 3500 
L 697 3744 
Q 697 4328 969 4595 
Q 1241 4863 1831 4863 
L 2375 4863 
z
" transform="scale(0.015625)"/>
      <path id="DejaVuSans-46" d="M 628 4666 
L 3309 4666 
L 3309 4134 
L 1259 4134 
L 1259 2759 
L 3109 2759 
L 3109 2228 
L 1259 2228 
L 1259 0 
L 628 0 
L 628 4666 
z
" transform="scale(0.015625)"/>
      <path id="DejaVuSans-4c" d="M 628 4666 
L 1259 4666 
L 1259 531 
L 3531 531 
L 3531 0 
L 628 0 
L 628 4666 
z
" transform="scale(0.015625)"/>
     </defs>
     <use xlink:href="#DejaVuSans-53"/>
     <use xlink:href="#DejaVuSans-63" transform="translate(63.476562 0)"/>
     <use xlink:href="#DejaVuSans-20" transform="translate(118.457031 0)"/>
     <use xlink:href="#DejaVuSans-53" transform="translate(150.244141 0)"/>
     <use xlink:href="#DejaVuSans-63" transform="translate(213.720703 0)"/>
     <use xlink:href="#DejaVuSans-6f" transform="translate(268.701172 0)"/>
     <use xlink:href="#DejaVuSans-72" transform="translate(329.882812 0)"/>
     <use xlink:href="#DejaVuSans-65" transform="translate(368.746094 0)"/>
     <use xlink:href="#DejaVuSans-20" transform="translate(430.269531 0)"/>
     <use xlink:href="#DejaVuSans-44" transform="translate(462.056641 0)"/>
     <use xlink:href="#DejaVuSans-69" transform="translate(539.058594 0)"/>
     <use xlink:href="#DejaVuSans-73" transform="translate(566.841797 0)"/>
     <use xlink:href="#DejaVuSans-74" transform="translate(618.941406 0)"/>
     <use xlink:href="#DejaVuSans-72" transform="translate(658.150391 0)"/>
     <use xlink:href="#DejaVuSans-69" transform="translate(699.263672 0)"/>
     <use xlink:href="#DejaVuSans-62" transform="translate(727.046875 0)"/>
     <use xlink:href="#DejaVuSans-75" transform="translate(790.523438 0)"/>
     <use xlink:href="#DejaVuSans-74" transform="translate(853.902344 0)"/>
     <use xlink:href="#DejaVuSans-69" transform="translate(893.111328 0)"/>
     <use xlink:href="#DejaVuSans-6f" transform="translate(920.894531 0)"/>
     <use xlink:href="#DejaVuSans-6e" transform="translate(982.076172 0)"/>
     <use xlink:href="#DejaVuSans-20" transform="translate(1045.455078 0)"/>
     <use xlink:href="#DejaVuSans-66" transform="translate(1077.242188 0)"/>
     <use xlink:href="#DejaVuSans-6f" transform="translate(1112.447266 0)"/>
     <use xlink:href="#DejaVuSans-72" transform="translate(1173.628906 0)"/>
     <use xlink:href="#DejaVuSans-20" transform="translate(1214.742188 0)"/>
     <use xlink:href="#DejaVuSans-31" transform="translate(1246.529297 0)"/>
     <use xlink:href="#DejaVuSans-46" transform="translate(1310.152344 0)"/>
     <use xlink:href="#DejaVuSans-44" transform="translate(1367.671875 0)"/>
     <use xlink:href="#DejaVuSans-4c" transform="translate(1444.673828 0)"/>
    </g>
   </g>
   <g id="legend_1">
    <g id="patch_7">
     <path d="M 53.965625 74.90875 
L 197.807813 74.90875 
Q 199.807813 74.90875 199.807813 72.90875 
L 199.807813 29.318125 
Q 199.807813 27.318125 197.807813 27.318125 
L 53.965625 27.318125 
Q 51.965625 27.318125 51.965625 29.318125 
L 51.965625 72.90875 
Q 51.965625 74.90875 53.965625 74.90875 
z
" style="fill: #ffffff; opacity: 0.8; stroke: #cccccc; stroke-linejoin: miter"/>
    </g>
    <g id="line2d_24">
     <path d="M 55.965625 35.416562 
L 65.965625 35.416562 
L 75.965625 35.416562 
" style="fill: none; stroke-dasharray: 5.55,2.4; stroke-dashoffset: 0; stroke: #daa520; stroke-width: 1.5"/>
    </g>
    <g id="text_22">
     <!-- 1FDL_HL Median: 0.44 -->
     <g transform="translate(83.965625 38.916562) scale(0.1 -0.1)">
      <defs>
       <path id="DejaVuSans-5f" d="M 3263 -1063 
L 3263 -1509 
L -63 -1509 
L -63 -1063 
L 3263 -1063 
z
" transform="scale(0.015625)"/>
       <path id="DejaVuSans-48" d="M 628 4666 
L 1259 4666 
L 1259 2753 
L 3553 2753 
L 3553 4666 
L 4184 4666 
L 4184 0 
L 3553 0 
L 3553 2222 
L 1259 2222 
L 1259 0 
L 628 0 
L 628 4666 
z
" transform="scale(0.015625)"/>
       <path id="DejaVuSans-4d" d="M 628 4666 
L 1569 4666 
L 2759 1491 
L 3956 4666 
L 4897 4666 
L 4897 0 
L 4281 0 
L 4281 4097 
L 3078 897 
L 2444 897 
L 1241 4097 
L 1241 0 
L 628 0 
L 628 4666 
z
" transform="scale(0.015625)"/>
       <path id="DejaVuSans-64" d="M 2906 2969 
L 2906 4863 
L 3481 4863 
L 3481 0 
L 2906 0 
L 2906 525 
Q 2725 213 2448 61 
Q 2172 -91 1784 -91 
Q 1150 -91 751 415 
Q 353 922 353 1747 
Q 353 2572 751 3078 
Q 1150 3584 1784 3584 
Q 2172 3584 2448 3432 
Q 2725 3281 2906 2969 
z
M 947 1747 
Q 947 1113 1208 752 
Q 1469 391 1925 391 
Q 2381 391 2643 752 
Q 2906 1113 2906 1747 
Q 2906 2381 2643 2742 
Q 2381 3103 1925 3103 
Q 1469 3103 1208 2742 
Q 947 2381 947 1747 
z
" transform="scale(0.015625)"/>
       <path id="DejaVuSans-61" d="M 2194 1759 
Q 1497 1759 1228 1600 
Q 959 1441 959 1056 
Q 959 750 1161 570 
Q 1363 391 1709 391 
Q 2188 391 2477 730 
Q 2766 1069 2766 1631 
L 2766 1759 
L 2194 1759 
z
M 3341 1997 
L 3341 0 
L 2766 0 
L 2766 531 
Q 2569 213 2275 61 
Q 1981 -91 1556 -91 
Q 1019 -91 701 211 
Q 384 513 384 1019 
Q 384 1609 779 1909 
Q 1175 2209 1959 2209 
L 2766 2209 
L 2766 2266 
Q 2766 2663 2505 2880 
Q 2244 3097 1772 3097 
Q 1472 3097 1187 3025 
Q 903 2953 641 2809 
L 641 3341 
Q 956 3463 1253 3523 
Q 1550 3584 1831 3584 
Q 2591 3584 2966 3190 
Q 3341 2797 3341 1997 
z
" transform="scale(0.015625)"/>
       <path id="DejaVuSans-3a" d="M 750 794 
L 1409 794 
L 1409 0 
L 750 0 
L 750 794 
z
M 750 3309 
L 1409 3309 
L 1409 2516 
L 750 2516 
L 750 3309 
z
" transform="scale(0.015625)"/>
      </defs>
      <use xlink:href="#DejaVuSans-31"/>
      <use xlink:href="#DejaVuSans-46" transform="translate(63.623047 0)"/>
      <use xlink:href="#DejaVuSans-44" transform="translate(121.142578 0)"/>
      <use xlink:href="#DejaVuSans-4c" transform="translate(198.144531 0)"/>
      <use xlink:href="#DejaVuSans-5f" transform="translate(253.857422 0)"/>
      <use xlink:href="#DejaVuSans-48" transform="translate(303.857422 0)"/>
      <use xlink:href="#DejaVuSans-4c" transform="translate(379.052734 0)"/>
      <use xlink:href="#DejaVuSans-20" transform="translate(434.765625 0)"/>
      <use xlink:href="#DejaVuSans-4d" transform="translate(466.552734 0)"/>
      <use xlink:href="#DejaVuSans-65" transform="translate(552.832031 0)"/>
      <use xlink:href="#DejaVuSans-64" transform="translate(614.355469 0)"/>
      <use xlink:href="#DejaVuSans-69" transform="translate(677.832031 0)"/>
      <use xlink:href="#DejaVuSans-61" transform="translate(705.615234 0)"/>
      <use xlink:href="#DejaVuSans-6e" transform="translate(766.894531 0)"/>
      <use xlink:href="#DejaVuSans-3a" transform="translate(830.273438 0)"/>
      <use xlink:href="#DejaVuSans-20" transform="translate(863.964844 0)"/>
      <use xlink:href="#DejaVuSans-30" transform="translate(895.751953 0)"/>
      <use xlink:href="#DejaVuSans-2e" transform="translate(959.375 0)"/>
      <use xlink:href="#DejaVuSans-34" transform="translate(991.162109 0)"/>
      <use xlink:href="#DejaVuSans-34" transform="translate(1054.785156 0)"/>
     </g>
    </g>
    <g id="line2d_25">
     <path d="M 55.965625 50.372813 
L 65.965625 50.372813 
L 75.965625 50.372813 
" style="fill: none; stroke-dasharray: 5.55,2.4; stroke-dashoffset: 0; stroke: #2f4f4f; stroke-width: 1.5"/>
    </g>
    <g id="text_23">
     <!-- 1FDL_Y Median: 0.44 -->
     <g transform="translate(83.965625 53.872813) scale(0.1 -0.1)">
      <defs>
       <path id="DejaVuSans-59" d="M -13 4666 
L 666 4666 
L 1959 2747 
L 3244 4666 
L 3922 4666 
L 2272 2222 
L 2272 0 
L 1638 0 
L 1638 2222 
L -13 4666 
z
" transform="scale(0.015625)"/>
      </defs>
      <use xlink:href="#DejaVuSans-31"/>
      <use xlink:href="#DejaVuSans-46" transform="translate(63.623047 0)"/>
      <use xlink:href="#DejaVuSans-44" transform="translate(121.142578 0)"/>
      <use xlink:href="#DejaVuSans-4c" transform="translate(198.144531 0)"/>
      <use xlink:href="#DejaVuSans-5f" transform="translate(253.857422 0)"/>
      <use xlink:href="#DejaVuSans-59" transform="translate(303.857422 0)"/>
      <use xlink:href="#DejaVuSans-20" transform="translate(364.941406 0)"/>
      <use xlink:href="#DejaVuSans-4d" transform="translate(396.728516 0)"/>
      <use xlink:href="#DejaVuSans-65" transform="translate(483.007812 0)"/>
      <use xlink:href="#DejaVuSans-64" transform="translate(544.53125 0)"/>
      <use xlink:href="#DejaVuSans-69" transform="translate(608.007812 0)"/>
      <use xlink:href="#DejaVuSans-61" transform="translate(635.791016 0)"/>
      <use xlink:href="#DejaVuSans-6e" transform="translate(697.070312 0)"/>
      <use xlink:href="#DejaVuSans-3a" transform="translate(760.449219 0)"/>
      <use xlink:href="#DejaVuSans-20" transform="translate(794.140625 0)"/>
      <use xlink:href="#DejaVuSans-30" transform="translate(825.927734 0)"/>
      <use xlink:href="#DejaVuSans-2e" transform="translate(889.550781 0)"/>
      <use xlink:href="#DejaVuSans-34" transform="translate(921.337891 0)"/>
      <use xlink:href="#DejaVuSans-34" transform="translate(984.960938 0)"/>
     </g>
    </g>
    <g id="line2d_26">
     <path d="M 55.965625 65.329063 
L 65.965625 65.329063 
L 75.965625 65.329063 
" style="fill: none; stroke: #ff0000; stroke-width: 2; stroke-linecap: square"/>
    </g>
    <g id="text_24">
     <!-- Sc Score: 0.44 -->
     <g transform="translate(83.965625 68.829063) scale(0.1 -0.1)">
      <use xlink:href="#DejaVuSans-53"/>
      <use xlink:href="#DejaVuSans-63" transform="translate(63.476562 0)"/>
      <use xlink:href="#DejaVuSans-20" transform="translate(118.457031 0)"/>
      <use xlink:href="#DejaVuSans-53" transform="translate(150.244141 0)"/>
      <use xlink:href="#DejaVuSans-63" transform="translate(213.720703 0)"/>
      <use xlink:href="#DejaVuSans-6f" transform="translate(268.701172 0)"/>
      <use xlink:href="#DejaVuSans-72" transform="translate(329.882812 0)"/>
      <use xlink:href="#DejaVuSans-65" transform="translate(368.746094 0)"/>
      <use xlink:href="#DejaVuSans-3a" transform="translate(430.269531 0)"/>
      <use xlink:href="#DejaVuSans-20" transform="translate(463.960938 0)"/>
      <use xlink:href="#DejaVuSans-30" transform="translate(495.748047 0)"/>
      <use xlink:href="#DejaVuSans-2e" transform="translate(559.371094 0)"/>
      <use xlink:href="#DejaVuSans-34" transform="translate(591.158203 0)"/>
      <use xlink:href="#DejaVuSans-34" transform="translate(654.78125 0)"/>
     </g>
    </g>
   </g>
  </g>
 </g>
 <defs>
  <clipPath id="p7e3d1935d1">
   <rect x="46.965625" y="22.318125" width="399.085" height="292.84"/>
  </clipPath>
 </defs>
</svg>
